<svg width="40" height="40" viewBox="0 0 40 40" fill="none" xmlns="http://www.w3.org/2000/svg">
<path d="M15.5955 1H2.87121C1.83777 1 1 1.83777 1 2.87121V15.5955C1 16.6289 1.83777 17.4667 2.87121 17.4667H15.5955C16.6289 17.4667 17.4667 16.6289 17.4667 15.5955V2.87121C17.4667 1.83777 16.6289 1 15.5955 1Z" stroke="#9A0D1D" stroke-width="2" stroke-linecap="round" stroke-linejoin="round"/>
<path d="M37.2727 1H25.5273C24.5733 1 23.8 1.83777 23.8 2.87121V15.5955C23.8 16.6289 24.5733 17.4667 25.5273 17.4667H37.2727C38.2267 17.4667 39 16.6289 39 15.5955V2.87121C39 1.83777 38.2267 1 37.2727 1Z" stroke="#9A0D1D" stroke-width="2" stroke-linecap="round" stroke-linejoin="round"/>
<path d="M15.5955 22.5333H2.87121C1.83777 22.5333 1 23.3711 1 24.4045V37.1288C1 38.1622 1.83777 39 2.87121 39H15.5955C16.6289 39 17.4667 38.1622 17.4667 37.1288V24.4045C17.4667 23.3711 16.6289 22.5333 15.5955 22.5333Z" stroke="#9A0D1D" stroke-width="2" stroke-linecap="round" stroke-linejoin="round"/>
<path d="M37.2727 22.5333H25.5273C24.5733 22.5333 23.8 23.3711 23.8 24.4045V37.1288C23.8 38.1622 24.5733 39 25.5273 39H37.2727C38.2267 39 39 38.1622 39 37.1288V24.4045C39 23.3711 38.2267 22.5333 37.2727 22.5333Z" stroke="#9A0D1D" stroke-width="2" stroke-linecap="round" stroke-linejoin="round"/>
</svg>
