<svg width="80" height="80" viewBox="0 0 80 80" fill="none" xmlns="http://www.w3.org/2000/svg">
<rect width="80" height="80" rx="10" fill="url(#paint0_linear_3500_2110)"/>
<path d="M46.0486 54.68L44.5439 48.9536H34.6168L33.0702 54.68H24L33.9689 24H44.9828L55.0771 54.68H46.0486ZM42.8302 42.1823L39.4712 43.2607C39.3319 42.7173 37.1052 37.8436 36.8405 36.8405C36.5757 35.8234 38.9805 33.6303 40.1133 31.7118C39.8625 30.625 40.1899 42.8873 40.0506 42.1906C39.9252 42.8873 39.2174 43.2997 38.9805 44.3307C38.7576 45.3478 39.2313 33.6972 38.9805 34.7004C38.7437 35.7035 40.2317 44.732 40.0506 45.4008L36.3305 42.1823H42.8302Z" fill="#1E4552"/>
<defs>
<linearGradient id="paint0_linear_3500_2110" x1="40" y1="0" x2="40" y2="80" gradientUnits="userSpaceOnUse">
<stop stop-color="#F06128"/>
<stop offset="1" stop-color="#E8BB5E"/>
</linearGradient>
</defs>
</svg>
