<svg width="28" height="22" viewBox="0 0 28 22" fill="none" xmlns="http://www.w3.org/2000/svg">
<path d="M1.92857 16L26.0714 16C26.5843 16 27 15.5803 27 15.0625V1.9375C27 1.41973 26.5843 1 26.0714 1L1.92857 1C1.41574 1 1 1.41973 1 1.9375V15.0625C1 15.5803 1.41574 16 1.92857 16Z" stroke="#979797" stroke-width="1.5" stroke-linejoin="round"/>
<path d="M3 19H25M4.83333 21H23.1667" stroke="#979797" stroke-width="1.5" stroke-linecap="round" stroke-linejoin="round"/>
<path d="M14 13C16.7614 13 19 10.9853 19 8.5C19 6.01472 16.7614 4 14 4C11.2386 4 9 6.01472 9 8.5C9 10.9853 11.2386 13 14 13Z" stroke="#979797" stroke-width="1.5" stroke-linecap="round" stroke-linejoin="round"/>
<path d="M27 5.6875C25.7686 5.6875 24.5877 5.19364 23.717 4.31456C22.8463 3.43549 22.3571 2.2432 22.3571 1M1 5.6875C1.60971 5.6875 2.21345 5.56625 2.77674 5.33069C3.34004 5.09512 3.85187 4.74984 4.283 4.31456C4.71412 3.87929 5.05612 3.36254 5.28944 2.79383C5.52277 2.22512 5.64286 1.61557 5.64286 1M27 11.3125C25.7686 11.3125 24.5877 11.8064 23.717 12.6854C22.8463 13.5645 22.3571 14.7568 22.3571 16M1 11.3125C1.60971 11.3125 2.21345 11.4337 2.77674 11.6693C3.34004 11.9049 3.85187 12.2502 4.283 12.6854C4.71412 13.1207 5.05612 13.6375 5.28944 14.2062C5.52277 14.7749 5.64286 15.3844 5.64286 16" stroke="#979797" stroke-width="1.5" stroke-linecap="round" stroke-linejoin="round"/>
</svg>
