<svg width="48" height="48" viewBox="0 0 48 48" fill="none" xmlns="http://www.w3.org/2000/svg">
<rect width="48" height="48" rx="8" fill="#EBFAF5"/>
<path d="M32.7344 33.7115C33.1162 34.0962 33.7337 34.0962 34.0791 33.7116L36.6791 31.0857C36.8984 30.901 37 30.6503 37 30.3893C37 30.1279 36.8984 29.8759 36.6791 29.7282L34.0791 27.1019C33.7337 26.6833 33.1162 26.6833 32.7344 27.1019C32.3566 27.4507 32.3566 28.0745 32.7344 28.4602L33.6728 29.4409H26.6C26.0597 29.4409 25.625 29.8472 25.625 30.3893C25.625 30.933 26.0597 31.3741 26.6 31.3741L33.6728 31.4107L32.7344 32.3188C32.3566 32.7033 32.3566 33.327 32.7344 33.7115ZM15.2291 18.5665L14.3288 17.5857L21.3634 17.6227C21.9403 17.6227 22.3384 17.1467 22.3384 16.6378C22.3384 16.0592 21.9403 15.653 21.3634 15.653L14.3292 15.616L15.2291 14.6722C15.6434 14.2865 15.6434 13.6627 15.2291 13.3139C14.8837 12.8954 14.2662 12.8954 13.8856 13.3139L11.2856 15.9402C11.1027 16.0879 11 16.3383 11 16.6378C11 16.8635 11.1027 17.1138 11.2856 17.2985L13.8856 19.9248C14.2662 20.3064 14.8837 20.3064 15.2291 19.9248C15.6434 19.539 15.6434 18.9153 15.2291 18.5665ZM14.8634 31.3737H24.7272C24.5728 31.0791 24.4875 30.7442 24.4875 30.4258C24.4875 29.2111 25.4341 28.2919 26.6 28.2919H30.5447C30.6787 27.5369 31.1053 26.9214 31.6944 26.5356C31.7634 26.4371 31.8447 26.3427 31.93 26.2525C32.7547 25.4194 34.0953 25.4194 34.92 26.2525L35.7 27.0445V18.2423C35.7 16.7937 34.5341 15.616 33.1 15.616H23.2728C23.4272 15.9115 23.4759 16.2439 23.4759 16.6378C23.4759 17.7786 22.5659 18.7717 21.3634 18.7717L17.4553 18.7347C17.3172 19.4529 16.8947 20.0684 16.3056 20.4541C16.2366 20.5526 16.1553 20.647 16.07 20.7373C15.2453 21.5703 13.9063 21.5703 13.0812 20.7373L12.2634 19.9453V28.7474C12.2634 30.1981 13.4639 31.3737 14.8634 31.3737ZM14.8634 26.1212C16.3341 26.1212 17.4634 27.2989 17.4634 28.7474H14.8634V26.1212ZM33.1 18.2423V20.8686C31.6659 20.8686 30.5 19.6909 30.5 18.2423H33.1ZM23.9634 19.5554C26.1531 19.5554 27.9 21.32 27.9 23.4949C27.9 25.7067 26.1531 27.4343 23.9634 27.4343C21.8103 27.4343 20.0634 25.7067 20.0634 23.4949C20.0634 21.32 21.8103 19.5554 23.9634 19.5554Z" fill="#0ABB85"/>
</svg>
