<svg width="25" height="25" viewBox="0 0 25 25" fill="none" xmlns="http://www.w3.org/2000/svg">
<path d="M22.2222 22.2222H2.77778V2.77778H22.2222M22.2222 0H2.77778C2.04107 0 1.33453 0.292658 0.813592 0.813592C0.292658 1.33453 0 2.04107 0 2.77778V22.2222C0 22.9589 0.292658 23.6655 0.813592 24.1864C1.33453 24.7073 2.04107 25 2.77778 25H22.2222C22.9589 25 23.6655 24.7073 24.1864 24.1864C24.7073 23.6655 25 22.9589 25 22.2222V2.77778C25 1.23611 23.75 0 22.2222 0ZM18.75 18.4028C18.75 16.3194 14.5833 15.2778 12.5 15.2778C10.4167 15.2778 6.25 16.3194 6.25 18.4028V19.4444H18.75M12.5 12.8472C13.3288 12.8472 14.1237 12.518 14.7097 11.9319C15.2958 11.3459 15.625 10.551 15.625 9.72222C15.625 8.89342 15.2958 8.09857 14.7097 7.51251C14.1237 6.92646 13.3288 6.59722 12.5 6.59722C11.6712 6.59722 10.8763 6.92646 10.2903 7.51251C9.70424 8.09857 9.375 8.89342 9.375 9.72222C9.375 10.551 9.70424 11.3459 10.2903 11.9319C10.8763 12.518 11.6712 12.8472 12.5 12.8472Z" fill="#000"/>
</svg>
