<svg width="9" height="10" viewBox="0 0 9 10" fill="none" xmlns="http://www.w3.org/2000/svg">
<path d="M6.27677 4.89122L8.57229 2.34893C8.85398 2.03696 8.85398 1.53114 8.57229 1.21891L8.06213 0.653903C7.78043 0.341928 7.32371 0.341928 7.04179 0.653903L4.74627 3.19619L2.45075 0.653903C2.16906 0.341928 1.71234 0.341928 1.43042 0.653903L0.920254 1.21891C0.638561 1.53089 0.638561 2.0367 0.920254 2.34893L3.21577 4.89122L0.920254 7.43351C0.638561 7.74549 0.638561 8.2513 0.920254 8.56353L1.43042 9.12854C1.71211 9.44051 2.16906 9.44051 2.45075 9.12854L4.74627 6.58625L7.04179 9.12854C7.32349 9.44051 7.78043 9.44051 8.06213 9.12854L8.57229 8.56353C8.85398 8.25155 8.85398 7.74574 8.57229 7.43351L6.27677 4.89122Z" fill="#1E4552"/>
</svg>
