<svg width="18" height="11" viewBox="0 0 18 11" fill="none" xmlns="http://www.w3.org/2000/svg">
<path d="M16.2 3.58022e-08H5.77303C5.53661 -4.71268e-05 5.30251 0.046502 5.08409 0.136986C4.86567 0.227471 4.66723 0.360116 4.50011 0.52734L0.26367 4.76349C-0.0878899 5.11505 -0.0878899 5.68486 0.26367 6.03614L4.50011 10.2726C4.8376 10.6101 5.29547 10.7999 5.77275 10.7999H16.2C17.1942 10.7999 18 9.99414 18 8.99993V1.79999C18 0.805775 17.1942 3.58022e-08 16.2 3.58022e-08ZM13.8181 7.14538C13.9939 7.32116 13.9939 7.60607 13.8181 7.78185L13.1819 8.41803C13.0062 8.59381 12.7213 8.59381 12.5455 8.41803L10.8001 6.6726L9.05463 8.41803C8.87885 8.59381 8.59395 8.59381 8.41817 8.41803L7.78199 7.78185C7.60621 7.60607 7.60621 7.32116 7.78199 7.14538L9.52741 5.39996L7.78199 3.65453C7.60621 3.47875 7.60621 3.19385 7.78199 3.01807L8.41817 2.38189C8.59395 2.20611 8.87885 2.20611 9.05463 2.38189L10.8001 4.12731L12.5455 2.38189C12.7213 2.20611 13.0062 2.20611 13.1819 2.38189L13.8181 3.01807C13.9939 3.19385 13.9939 3.47875 13.8181 3.65453L12.0727 5.39996L13.8181 7.14538Z" fill="#0F2B34" fill-opacity="0.9"/>
</svg>
