<svg width="10" height="12" viewBox="0 0 10 12" fill="none" xmlns="http://www.w3.org/2000/svg">
<path d="M9.64286 0.71429H6.96429L6.75446 0.296879C6.71002 0.207641 6.64155 0.132576 6.55677 0.0801286C6.47198 0.0276812 6.37425 -6.75885e-05 6.27455 3.91355e-06H3.72321C3.62375 -0.000378465 3.52618 0.0272669 3.4417 0.0797726C3.35721 0.132278 3.28923 0.207521 3.24554 0.296879L3.03571 0.71429H0.357143C0.262423 0.71429 0.171582 0.751917 0.104605 0.818894C0.0376275 0.885872 0 0.976712 0 1.07143L0 1.78572C0 1.88044 0.0376275 1.97128 0.104605 2.03826C0.171582 2.10523 0.262423 2.14286 0.357143 2.14286H9.64286C9.73758 2.14286 9.82842 2.10523 9.8954 2.03826C9.96237 1.97128 10 1.88044 10 1.78572V1.07143C10 0.976712 9.96237 0.885872 9.8954 0.818894C9.82842 0.751917 9.73758 0.71429 9.64286 0.71429ZM1.1875 10.4241C1.20453 10.6961 1.32459 10.9514 1.52323 11.138C1.72186 11.3246 1.98415 11.4285 2.2567 11.4286H7.7433C8.01585 11.4285 8.27814 11.3246 8.47677 11.138C8.67541 10.9514 8.79547 10.6961 8.8125 10.4241L9.28571 2.85715H0.714286L1.1875 10.4241Z" fill="#1E4552"/>
</svg>
