<svg width="20" height="28" viewBox="0 0 20 28" fill="none" xmlns="http://www.w3.org/2000/svg">
<path d="M10 22.7679C9.33696 22.7679 8.70107 23.0344 8.23223 23.5088C7.76339 23.9832 7.5 24.6267 7.5 25.2976C7.5 25.9686 7.76339 26.612 8.23223 27.0864C8.70107 27.5609 9.33696 27.8274 10 27.8274C10.663 27.8274 11.2989 27.5609 11.7678 27.0864C12.2366 26.612 12.5 25.9686 12.5 25.2976C12.5 24.6267 12.2366 23.9832 11.7678 23.5088C11.2989 23.0344 10.663 22.7679 10 22.7679ZM2.5 0C1.83696 0 1.20107 0.266528 0.732233 0.74095C0.263392 1.21537 0 1.85883 0 2.52976C0 3.2007 0.263392 3.84415 0.732233 4.31857C1.20107 4.793 1.83696 5.05952 2.5 5.05952C3.16304 5.05952 3.79893 4.793 4.26777 4.31857C4.73661 3.84415 5 3.2007 5 2.52976C5 1.85883 4.73661 1.21537 4.26777 0.74095C3.79893 0.266528 3.16304 0 2.5 0ZM2.5 7.58929C1.83696 7.58929 1.20107 7.85581 0.732233 8.33024C0.263392 8.80466 0 9.44811 0 10.119C0 10.79 0.263392 11.4334 0.732233 11.9079C1.20107 12.3823 1.83696 12.6488 2.5 12.6488C3.16304 12.6488 3.79893 12.3823 4.26777 11.9079C4.73661 11.4334 5 10.79 5 10.119C5 9.44811 4.73661 8.80466 4.26777 8.33024C3.79893 7.85581 3.16304 7.58929 2.5 7.58929ZM2.5 15.1786C1.83696 15.1786 1.20107 15.4451 0.732233 15.9195C0.263392 16.3939 0 17.0374 0 17.7083C0 18.3793 0.263392 19.0227 0.732233 19.4971C1.20107 19.9716 1.83696 20.2381 2.5 20.2381C3.16304 20.2381 3.79893 19.9716 4.26777 19.4971C4.73661 19.0227 5 18.3793 5 17.7083C5 17.0374 4.73661 16.3939 4.26777 15.9195C3.79893 15.4451 3.16304 15.1786 2.5 15.1786ZM17.5 5.05952C18.163 5.05952 18.7989 4.793 19.2678 4.31857C19.7366 3.84415 20 3.2007 20 2.52976C20 1.85883 19.7366 1.21537 19.2678 0.74095C18.7989 0.266528 18.163 0 17.5 0C16.837 0 16.2011 0.266528 15.7322 0.74095C15.2634 1.21537 15 1.85883 15 2.52976C15 3.2007 15.2634 3.84415 15.7322 4.31857C16.2011 4.793 16.837 5.05952 17.5 5.05952ZM10 15.1786C9.33696 15.1786 8.70107 15.4451 8.23223 15.9195C7.76339 16.3939 7.5 17.0374 7.5 17.7083C7.5 18.3793 7.76339 19.0227 8.23223 19.4971C8.70107 19.9716 9.33696 20.2381 10 20.2381C10.663 20.2381 11.2989 19.9716 11.7678 19.4971C12.2366 19.0227 12.5 18.3793 12.5 17.7083C12.5 17.0374 12.2366 16.3939 11.7678 15.9195C11.2989 15.4451 10.663 15.1786 10 15.1786ZM17.5 15.1786C16.837 15.1786 16.2011 15.4451 15.7322 15.9195C15.2634 16.3939 15 17.0374 15 17.7083C15 18.3793 15.2634 19.0227 15.7322 19.4971C16.2011 19.9716 16.837 20.2381 17.5 20.2381C18.163 20.2381 18.7989 19.9716 19.2678 19.4971C19.7366 19.0227 20 18.3793 20 17.7083C20 17.0374 19.7366 16.3939 19.2678 15.9195C18.7989 15.4451 18.163 15.1786 17.5 15.1786ZM17.5 7.58929C16.837 7.58929 16.2011 7.85581 15.7322 8.33024C15.2634 8.80466 15 9.44811 15 10.119C15 10.79 15.2634 11.4334 15.7322 11.9079C16.2011 12.3823 16.837 12.6488 17.5 12.6488C18.163 12.6488 18.7989 12.3823 19.2678 11.9079C19.7366 11.4334 20 10.79 20 10.119C20 9.44811 19.7366 8.80466 19.2678 8.33024C18.7989 7.85581 18.163 7.58929 17.5 7.58929ZM10 7.58929C9.33696 7.58929 8.70107 7.85581 8.23223 8.33024C7.76339 8.80466 7.5 9.44811 7.5 10.119C7.5 10.79 7.76339 11.4334 8.23223 11.9079C8.70107 12.3823 9.33696 12.6488 10 12.6488C10.663 12.6488 11.2989 12.3823 11.7678 11.9079C12.2366 11.4334 12.5 10.79 12.5 10.119C12.5 9.44811 12.2366 8.80466 11.7678 8.33024C11.2989 7.85581 10.663 7.58929 10 7.58929ZM10 0C9.33696 0 8.70107 0.266528 8.23223 0.74095C7.76339 1.21537 7.5 1.85883 7.5 2.52976C7.5 3.2007 7.76339 3.84415 8.23223 4.31857C8.70107 4.793 9.33696 5.05952 10 5.05952C10.663 5.05952 11.2989 4.793 11.7678 4.31857C12.2366 3.84415 12.5 3.2007 12.5 2.52976C12.5 1.85883 12.2366 1.21537 11.7678 0.74095C11.2989 0.266528 10.663 0 10 0Z" fill="#000"/>
</svg>
