<svg width="25" height="24" viewBox="0 0 25 24" fill="none" xmlns="http://www.w3.org/2000/svg">
<path d="M5.55254 10.7067C7.41672 14.3704 10.4201 17.3738 14.0837 19.2379L16.9318 16.3899C17.2943 16.0274 17.7991 15.9239 18.2522 16.0663C19.7022 16.5452 21.2556 16.8042 22.8738 16.8042C23.2172 16.8042 23.5465 16.9405 23.7892 17.1833C24.032 17.4261 24.1684 17.7554 24.1684 18.0987V22.6297C24.1684 22.973 24.032 23.3023 23.7892 23.5451C23.5465 23.7879 23.2172 23.9243 22.8738 23.9243C17.0371 23.9243 11.4393 21.6056 7.3121 17.4784C3.18487 13.3512 0.866211 7.75343 0.866211 1.91664C0.866211 1.5733 1.0026 1.24402 1.24538 1.00124C1.48816 0.758462 1.81744 0.62207 2.16078 0.62207H6.69176C7.0351 0.62207 7.36438 0.758462 7.60716 1.00124C7.84994 1.24402 7.98633 1.5733 7.98633 1.91664C7.98633 3.53485 8.24524 5.08833 8.72423 6.53824C8.86663 6.99134 8.76307 7.49622 8.40059 7.8587L5.55254 10.7067Z" fill="#000"/>
</svg>
