<svg width="14" height="11" viewBox="0 0 14 11" fill="none" xmlns="http://www.w3.org/2000/svg">
<path d="M12.6875 0H1.3125C0.587617 0 0 0.587617 0 1.3125V9.1875C0 9.91238 0.587617 10.5 1.3125 10.5H12.6875C13.4124 10.5 14 9.91238 14 9.1875V1.3125C14 0.587617 13.4124 0 12.6875 0ZM12.6875 1.3125V2.42826C12.0744 2.92753 11.097 3.70388 9.00739 5.3401C8.54689 5.70232 7.6347 6.57253 7 6.56239C6.36541 6.57264 5.45292 5.70218 4.99261 5.3401C2.90336 3.70412 1.92568 2.92761 1.3125 2.42826V1.3125H12.6875ZM1.3125 9.1875V4.11244C1.93905 4.6115 2.82759 5.3118 4.1819 6.3723C4.77955 6.84275 5.82619 7.88129 7 7.87497C8.16804 7.88129 9.20142 6.85781 9.81786 6.37252C11.1721 5.31204 12.0609 4.61155 12.6875 4.11247V9.1875H1.3125Z" fill="#000"/>
</svg>
