<svg width="19" height="18" viewBox="0 0 19 18" fill="none" xmlns="http://www.w3.org/2000/svg">
<path d="M9.12857 0C4.08577 0 0 4.02823 0 9C0 13.9718 4.08577 18 9.12857 18C14.1714 18 18.2571 13.9718 18.2571 9C18.2571 4.02823 14.1714 0 9.12857 0ZM9.12857 16.2581C5.06857 16.2581 1.76682 13.0028 1.76682 9C1.76682 4.99718 5.06857 1.74194 9.12857 1.74194C13.1886 1.74194 16.4903 4.99718 16.4903 9C16.4903 13.0028 13.1886 16.2581 9.12857 16.2581ZM13.0156 10.7637C12.0622 11.0649 10.6451 11.2391 9.12857 11.2391C7.61205 11.2391 6.19859 11.0649 5.24157 10.7637C4.87716 10.6512 4.52748 10.9597 4.59005 11.319C4.88084 13.0282 7.21452 14.2222 9.12857 14.2222C11.0426 14.2222 13.3726 13.0282 13.6671 11.319C13.726 10.9633 13.3837 10.6512 13.0156 10.7637ZM6.18387 8.41935C6.83539 8.41935 7.36175 7.9004 7.36175 7.25806C7.36175 6.61573 6.83539 6.09677 6.18387 6.09677C5.53236 6.09677 5.00599 6.61573 5.00599 7.25806C5.00599 7.9004 5.53236 8.41935 6.18387 8.41935ZM12.0733 8.41935C12.7248 8.41935 13.2512 7.9004 13.2512 7.25806C13.2512 6.61573 12.7248 6.09677 12.0733 6.09677C11.4218 6.09677 10.8954 6.61573 10.8954 7.25806C10.8954 7.9004 11.4218 8.41935 12.0733 8.41935Z" fill="#444647"/>
</svg>
