<svg width="243" height="268" viewBox="0 0 243 268" fill="none" xmlns="http://www.w3.org/2000/svg">
<path opacity="0.1" d="M6.99557 229.454C4.82706 214.105 9.03166 197.444 21.1858 183.725C54.4458 146.185 53.0294 153.723 58.8754 108.543C64.7214 63.3621 113.924 45.7382 150.367 64.5704C194.487 87.3681 171.593 95.9368 224.202 134.003C269.678 166.908 227.534 228.948 152.489 254.968C91.8362 275.997 13.2764 273.91 6.99557 229.454Z" fill="#D90800"/>
<path d="M44.7219 97.392H185.342C188.538 97.3921 191.602 98.6616 193.861 100.921C196.12 103.181 197.39 106.245 197.39 109.44V216.216C197.39 219.411 196.12 222.476 193.861 224.735C191.601 226.995 188.537 228.264 185.342 228.264H39.3537C36.1583 228.264 33.0939 226.995 30.8344 224.735C28.575 222.476 27.3057 219.411 27.3057 216.216V114.808C27.3057 110.189 29.1406 105.759 32.4067 102.493C35.6729 99.227 40.1028 97.392 44.7219 97.392Z" fill="#262626"/>
<path d="M195.854 107.613H39.3537C32.6997 107.613 27.3057 113.007 27.3057 119.661V226.436C27.3057 233.09 32.6997 238.484 39.3537 238.484H195.854C202.508 238.484 207.902 233.09 207.902 226.436V119.661C207.902 113.007 202.508 107.613 195.854 107.613Z" fill="#D90800"/>
<path opacity="0.55" d="M195.854 107.613H39.3537C32.6997 107.613 27.3057 113.007 27.3057 119.661V226.436C27.3057 233.09 32.6997 238.484 39.3537 238.484H195.854C202.508 238.484 207.902 233.09 207.902 226.436V119.661C207.902 113.007 202.508 107.613 195.854 107.613Z" fill="white"/>
<path d="M195.854 238.917H39.3536C36.0446 238.913 32.8722 237.597 30.5324 235.257C28.1926 232.917 26.8765 229.745 26.8728 226.436V119.661C26.8765 116.352 28.1927 113.179 30.5325 110.839C32.8722 108.499 36.0446 107.183 39.3536 107.179H195.854C199.163 107.183 202.335 108.5 204.675 110.839C207.014 113.179 208.331 116.352 208.334 119.661V226.436C208.331 229.745 207.014 232.917 204.675 235.257C202.335 237.597 199.163 238.913 195.854 238.917ZM39.3536 108.044C36.274 108.047 33.3214 109.272 31.1438 111.45C28.9662 113.627 27.7415 116.58 27.7384 119.66V226.435C27.7416 229.514 28.9663 232.467 31.1439 234.645C33.3215 236.822 36.274 238.047 39.3536 238.05H195.854C198.933 238.047 201.886 236.822 204.063 234.644C206.241 232.467 207.465 229.514 207.469 226.435V119.661C207.466 116.581 206.241 113.628 204.063 111.451C201.886 109.273 198.933 108.048 195.854 108.045L39.3536 108.044Z" fill="#262626"/>
<path d="M194.154 229.298H190.649V228.432H194.13L194.154 229.298ZM187.167 229.298H183.685V228.432H187.166L187.167 229.298ZM180.204 229.298H176.723V228.432H180.204V229.298ZM173.242 229.298H169.76V228.432H173.241L173.242 229.298ZM166.279 229.298H162.796V228.432H166.278L166.279 229.298ZM159.316 229.298H155.835V228.432H159.316V229.298ZM152.353 229.298H148.872V228.432H152.353V229.298ZM145.39 229.298H141.909V228.432H145.39V229.298ZM138.428 229.298H134.946V228.432H138.428V229.298ZM131.465 229.298H127.984V228.432H131.465V229.298ZM124.502 229.298H121.021V228.432H124.502V229.298ZM117.539 229.298H114.058V228.432H117.539V229.298ZM110.577 229.298H107.095V228.432H110.577V229.298ZM103.614 229.298H100.132V228.432H103.614V229.298ZM96.6512 229.298H93.1696V228.432H96.6512V229.298ZM89.6883 229.298H86.2068V228.432H89.6883V229.298ZM82.7255 229.298H79.2442V228.432H82.7255V229.298ZM75.7627 229.298H72.2814V228.432H75.7627V229.298ZM68.7998 229.298H65.3185V228.432H68.7998V229.298ZM61.8373 229.298H58.3557V228.432H61.8373V229.298ZM54.8744 229.298H51.3929V228.432H54.8744V229.298ZM47.9116 229.298H44.4303V228.432H47.9116V229.298ZM40.9334 229.294C39.6829 229.25 38.4715 228.846 37.4447 228.131L37.9392 227.421C38.8293 228.042 39.8797 228.392 40.9643 228.43L40.9334 229.294ZM197.68 228.249L197.209 227.523C198.12 226.933 198.843 226.094 199.291 225.105L200.079 225.463C199.563 226.602 198.73 227.569 197.68 228.249ZM35.1368 225.268C34.808 224.476 34.6396 223.626 34.6411 222.769V221.683H35.5067V222.769C35.5052 223.513 35.6513 224.25 35.9366 224.937L35.1368 225.268ZM200.66 221.88H199.795V218.399H200.66V221.88ZM35.5067 218.202H34.6411V214.72H35.5067V218.202ZM200.66 214.918H199.794V211.436H200.66V214.918ZM35.5067 211.239H34.6411V207.757H35.5067V211.239ZM200.66 207.955H199.794V204.473H200.66V207.955ZM35.5067 204.276H34.6411V200.795H35.5067V204.276ZM200.66 200.992H199.794V197.511H200.66V200.992ZM35.5067 197.313H34.6411V193.832H35.5067V197.313ZM200.66 194.029H199.794V190.548H200.66V194.029ZM35.5067 190.35H34.6411V186.869H35.5067V190.35ZM200.66 187.067H199.794V183.585H200.66V187.067ZM35.5067 183.388H34.6411V179.906H35.5067V183.388ZM200.66 180.104H199.794V176.622H200.66V180.104ZM35.5067 176.425H34.6411V172.943H35.5067V176.425ZM200.66 173.14H199.794V169.66H200.66V173.14ZM35.5067 169.462H34.6411V165.981H35.5067V169.462ZM200.66 166.178H199.794V162.696H200.66V166.178ZM35.5067 162.499H34.6411V159.018H35.5067V162.499ZM200.66 159.215H199.794V155.734H200.66V159.215ZM35.5067 155.537H34.6411V152.055H35.5067V155.537ZM200.66 152.251H199.794V148.771H200.66V152.251ZM35.5067 148.574H34.6411V145.092H35.5067V148.574ZM200.66 145.29H199.794V141.808H200.66V145.29ZM35.5067 141.611H34.6411V138.13H35.5067V141.611ZM200.66 138.327H199.794V134.846H200.66V138.327ZM35.5067 134.648H34.6411V131.167H35.5067V134.648ZM200.66 131.364H199.794V127.883H200.66V131.364ZM35.5067 127.685H34.6411V124.204H35.5067V127.685ZM200.66 124.402H199.794V123.328C199.796 122.58 199.649 121.84 199.361 121.15L200.16 120.816C200.492 121.612 200.662 122.465 200.661 123.326L200.66 124.402ZM36.0142 120.981L35.2265 120.622C35.7453 119.483 36.5799 118.518 37.6313 117.84L38.101 118.567C37.1889 119.155 36.4646 119.993 36.0142 120.981ZM197.352 118.67C196.461 118.051 195.41 117.703 194.325 117.667L194.354 116.802C195.605 116.843 196.817 117.244 197.845 117.958L197.352 118.67ZM190.859 117.664H187.378V116.798H190.859L190.859 117.664ZM183.896 117.664H180.414V116.798H183.896V117.664ZM176.933 117.664H173.452V116.798H176.934L176.933 117.664ZM169.97 117.664H166.489V116.798H169.971L169.97 117.664ZM163.007 117.664H159.526V116.798H163.007V117.664ZM156.045 117.664H152.563V116.798H156.045L156.045 117.664ZM149.082 117.664H145.601V116.798H149.082V117.664ZM142.119 117.664H138.638V116.798H142.119V117.664ZM135.156 117.664H131.675V116.798H135.156L135.156 117.664ZM128.194 117.664H124.712V116.798H128.193L128.194 117.664ZM121.231 117.664H117.749V116.798H121.231V117.664ZM114.268 117.664H110.787V116.798H114.267L114.268 117.664ZM107.305 117.664H103.823V116.798H107.304L107.305 117.664ZM100.342 117.664H96.8609V116.798H100.342V117.664ZM93.3797 117.664H89.8981V116.798H93.3785L93.3797 117.664ZM86.4168 117.664H82.9341V116.798H86.4154L86.4168 117.664ZM79.454 117.664H75.9727V116.798H79.454V117.664ZM72.4911 117.664H69.0099V116.798H72.4911V117.664ZM65.5286 117.664H62.047V116.798H65.5286V117.664ZM58.5657 117.664H55.0842V116.798H58.5657V117.664ZM51.6029 117.664H48.1216V116.798H51.6029V117.664ZM44.6401 117.664H41.1706L41.1588 116.798H44.6401V117.664Z" fill="white"/>
<path d="M153.5 152.724H208.592C210.322 152.724 211.981 153.411 213.204 154.634C214.427 155.858 215.115 157.517 215.115 159.247V186.85C215.115 188.579 214.427 190.239 213.204 191.462C211.981 192.685 210.322 193.372 208.592 193.372H153.5C151.565 193.372 149.708 192.603 148.339 191.234C146.97 189.865 146.201 188.009 146.201 186.073V160.024C146.201 159.065 146.39 158.116 146.756 157.231C147.123 156.345 147.661 155.54 148.339 154.862C149.017 154.184 149.821 153.647 150.707 153.28C151.593 152.913 152.542 152.724 153.5 152.724Z" fill="white"/>
<path d="M208.592 193.805H153.5C151.45 193.803 149.485 192.987 148.036 191.538C146.586 190.088 145.771 188.123 145.768 186.073V160.024C145.771 157.974 146.586 156.009 148.036 154.56C149.485 153.11 151.45 152.295 153.5 152.292H208.592C210.436 152.294 212.204 153.028 213.508 154.332C214.812 155.636 215.545 157.404 215.547 159.248V186.85C215.545 188.694 214.812 190.462 213.508 191.766C212.204 193.07 210.436 193.803 208.592 193.805ZM153.5 153.157C151.68 153.159 149.935 153.883 148.647 155.171C147.36 156.458 146.636 158.203 146.634 160.024V186.071C146.636 187.892 147.36 189.637 148.647 190.924C149.935 192.212 151.68 192.936 153.5 192.938H208.592C210.206 192.936 211.754 192.294 212.896 191.152C214.038 190.011 214.68 188.462 214.682 186.848V159.245C214.68 157.63 214.038 156.082 212.896 154.941C211.754 153.799 210.206 153.157 208.592 153.155L153.5 153.157Z" fill="#262626"/>
<path d="M166.042 182.987C171.531 182.987 175.981 178.537 175.981 173.048C175.981 167.559 171.531 163.11 166.042 163.11C160.554 163.11 156.104 167.559 156.104 173.048C156.104 178.537 160.554 182.987 166.042 182.987Z" fill="white"/>
<path d="M166.042 183.42C163.991 183.419 161.986 182.811 160.28 181.671C158.575 180.532 157.245 178.912 156.461 177.017C155.676 175.121 155.47 173.036 155.871 171.024C156.271 169.012 157.259 167.165 158.709 165.714C160.16 164.264 162.008 163.276 164.02 162.876C166.032 162.476 168.117 162.681 170.012 163.466C171.907 164.251 173.527 165.581 174.666 167.286C175.806 168.992 176.414 170.997 176.414 173.048C176.411 175.798 175.317 178.434 173.373 180.379C171.428 182.323 168.792 183.417 166.042 183.42ZM166.042 163.543C164.162 163.543 162.324 164.1 160.761 165.145C159.198 166.19 157.98 167.674 157.26 169.411C156.541 171.148 156.353 173.06 156.72 174.904C157.087 176.748 157.992 178.441 159.322 179.771C160.651 181.1 162.345 182.005 164.189 182.372C166.033 182.738 167.944 182.55 169.681 181.831C171.418 181.111 172.902 179.893 173.947 178.329C174.991 176.766 175.549 174.928 175.549 173.048C175.546 170.528 174.543 168.111 172.761 166.329C170.979 164.547 168.562 163.545 166.042 163.543Z" fill="#262626"/>
<path d="M6.45028 152.929C6.36746 152.929 6.28544 152.913 6.20892 152.881C6.1324 152.85 6.06288 152.803 6.00431 152.745C5.94574 152.686 5.89929 152.617 5.86759 152.54C5.83589 152.464 5.81958 152.382 5.81958 152.299V134.504C5.81958 134.336 5.88603 134.176 6.00431 134.058C6.12259 133.939 6.28301 133.873 6.45028 133.873C6.61756 133.873 6.77798 133.939 6.89626 134.058C7.01454 134.176 7.08099 134.336 7.08099 134.504V152.299C7.08099 152.466 7.01454 152.626 6.89626 152.745C6.77798 152.863 6.61756 152.929 6.45028 152.929Z" fill="#262626"/>
<path d="M12.2565 144.032H0.644192C0.560251 144.034 0.476796 144.019 0.398722 143.988C0.320647 143.957 0.249524 143.911 0.189524 143.852C0.129523 143.793 0.0818529 143.723 0.0493084 143.646C0.0167638 143.568 0 143.485 0 143.401C0 143.317 0.0167638 143.234 0.0493084 143.157C0.0818529 143.079 0.129523 143.009 0.189524 142.95C0.249524 142.892 0.320647 142.846 0.398722 142.815C0.476796 142.784 0.560251 142.769 0.644192 142.771H12.2565C12.4214 142.774 12.5784 142.842 12.6938 142.96C12.8091 143.078 12.8737 143.236 12.8737 143.401C12.8737 143.566 12.8091 143.725 12.6938 143.842C12.5784 143.96 12.4214 144.028 12.2565 144.032Z" fill="#262626"/>
<path d="M229.809 178.265C229.691 178.265 229.578 178.218 229.494 178.135C229.411 178.052 229.364 177.938 229.364 177.821V168.276C229.363 168.217 229.373 168.158 229.395 168.102C229.416 168.047 229.449 167.997 229.49 167.954C229.532 167.912 229.581 167.878 229.636 167.855C229.691 167.832 229.75 167.82 229.809 167.82C229.868 167.82 229.927 167.832 229.982 167.855C230.037 167.878 230.086 167.912 230.127 167.954C230.169 167.997 230.201 168.047 230.223 168.102C230.245 168.158 230.255 168.217 230.254 168.276V177.821C230.254 177.879 230.242 177.937 230.22 177.991C230.197 178.045 230.165 178.094 230.123 178.135C230.082 178.176 230.033 178.209 229.979 178.231C229.925 178.254 229.867 178.265 229.809 178.265Z" fill="#262626"/>
<path d="M232.923 173.493H226.695C226.635 173.495 226.576 173.484 226.521 173.463C226.466 173.441 226.415 173.408 226.373 173.367C226.33 173.326 226.297 173.276 226.273 173.221C226.25 173.167 226.239 173.108 226.239 173.048C226.239 172.989 226.25 172.93 226.273 172.876C226.297 172.821 226.33 172.771 226.373 172.73C226.415 172.688 226.466 172.656 226.521 172.634C226.576 172.613 226.635 172.602 226.695 172.604H232.923C233.039 172.607 233.15 172.655 233.231 172.738C233.312 172.821 233.357 172.932 233.357 173.048C233.357 173.164 233.312 173.276 233.231 173.359C233.15 173.442 233.039 173.49 232.923 173.493Z" fill="#262626"/>
<path d="M222.691 97.392C222.632 97.392 222.574 97.3806 222.52 97.3582C222.466 97.3359 222.417 97.3032 222.376 97.2619C222.335 97.2206 222.302 97.1716 222.28 97.1176C222.257 97.0636 222.246 97.0058 222.246 96.9474V87.4029C222.244 87.3435 222.255 87.2845 222.276 87.2292C222.298 87.1739 222.33 87.1235 222.372 87.081C222.413 87.0385 222.463 87.0047 222.518 86.9816C222.572 86.9585 222.631 86.9467 222.691 86.9467C222.75 86.9467 222.809 86.9585 222.863 86.9816C222.918 87.0047 222.968 87.0385 223.009 87.081C223.051 87.1235 223.083 87.1739 223.105 87.2292C223.126 87.2845 223.137 87.3435 223.135 87.4029V96.9474C223.135 97.0653 223.088 97.1784 223.005 97.2618C222.922 97.3452 222.809 97.392 222.691 97.392Z" fill="#262626"/>
<path d="M225.805 92.6199H219.577C219.517 92.6214 219.458 92.611 219.403 92.5893C219.348 92.5677 219.297 92.5351 219.255 92.4937C219.212 92.4522 219.179 92.4027 219.156 92.348C219.132 92.2933 219.121 92.2345 219.121 92.1751C219.121 92.1157 219.132 92.057 219.156 92.0023C219.179 91.9475 219.212 91.898 219.255 91.8566C219.297 91.8151 219.348 91.7826 219.403 91.7609C219.458 91.7392 219.517 91.7289 219.577 91.7304H225.805C225.921 91.7333 226.032 91.7815 226.113 91.8646C226.194 91.9476 226.239 92.0591 226.239 92.1751C226.239 92.2912 226.194 92.4026 226.113 92.4857C226.032 92.5688 225.921 92.6169 225.805 92.6199H225.805Z" fill="#262626"/>
<path d="M52.4502 36.5486C51.6213 36.5671 50.8178 36.2613 50.211 35.6963C49.6041 35.1313 49.2417 34.3518 49.2011 33.5236C49.1604 32.6954 49.4447 31.8841 49.9933 31.2624C50.5419 30.6407 51.3116 30.2576 52.1383 30.1949C52.9651 30.1322 53.7837 30.3947 54.4199 30.9265C55.056 31.4583 55.4594 32.2175 55.5442 33.0423C55.629 33.8671 55.3884 34.6925 54.8737 35.3426C54.359 35.9927 53.6109 36.4162 52.7887 36.5229C52.6764 36.5373 52.5634 36.5459 52.4502 36.5486ZM52.3334 31.1285C52.2543 31.1301 52.1753 31.1361 52.0968 31.1463C51.5171 31.2212 50.9895 31.5194 50.6264 31.9775C50.2633 32.4355 50.0934 33.0173 50.1529 33.5987C50.2124 34.1802 50.4965 34.7155 50.9448 35.0906C51.3931 35.4657 51.9702 35.6509 52.553 35.6068C53.1359 35.5628 53.6785 35.2929 54.0653 34.8547C54.4521 34.4164 54.6525 33.8445 54.6239 33.2607C54.5953 32.6769 54.3398 32.1273 53.912 31.729C53.4842 31.3308 52.9177 31.1153 52.3334 31.1285Z" fill="#292A2E"/>
<path d="M54.3929 29.4845C53.6089 29.501 52.8465 29.2271 52.2523 28.7154C51.658 28.2037 51.274 27.4904 51.1739 26.7126C51.0937 26.0893 51.2002 25.4561 51.4799 24.8933C51.7595 24.3304 52.1998 23.8631 52.745 23.5505C53.2903 23.2379 53.916 23.094 54.543 23.137C55.17 23.1799 55.7702 23.4079 56.2677 23.792C56.7652 24.1761 57.1376 24.6991 57.3379 25.2948C57.5381 25.8906 57.5572 26.5323 57.3927 27.1389C57.2282 27.7455 56.8876 28.2897 56.4138 28.7027C55.94 29.1157 55.3544 29.3789 54.7311 29.4591C54.6189 29.4734 54.506 29.4819 54.3929 29.4845ZM54.2775 24.064C53.9628 24.0706 53.653 24.1434 53.3683 24.2776C53.0836 24.4119 52.8303 24.6045 52.6249 24.8431C52.4195 25.0817 52.2667 25.3608 52.1763 25.6623C52.086 25.9638 52.0601 26.281 52.1003 26.5932C52.1559 27.0228 52.3347 27.4272 52.6152 27.7574C52.8957 28.0875 53.2657 28.3294 53.6807 28.4537C54.0957 28.578 54.5379 28.5795 54.9537 28.4579C55.3694 28.3362 55.7411 28.0968 56.0237 27.7685C56.3063 27.4401 56.4878 27.037 56.5461 26.6077C56.6045 26.1784 56.5373 25.7414 56.3526 25.3496C56.1678 24.9577 55.8736 24.6277 55.5053 24.3996C55.1371 24.1714 54.7106 24.0547 54.2775 24.0637V24.064Z" fill="#292A2E"/>
<path d="M57.3851 30.8558C57.7915 29.3774 56.3268 27.6857 54.1136 27.0772C51.9004 26.4687 49.7767 27.1738 49.3702 28.6522C48.9638 30.1305 50.4285 31.8223 52.6417 32.4308C54.8549 33.0393 56.9786 32.3341 57.3851 30.8558Z" fill="white"/>
<path d="M54.3575 33.1158C53.7362 33.1272 53.1166 33.0483 52.518 32.8815C50.0176 32.194 48.4371 30.2817 48.9195 28.5283C49.4019 26.775 51.7378 25.9397 54.2372 26.6264C55.3326 26.9063 56.3224 27.5 57.0852 28.3344C57.8085 29.1711 58.0751 30.1091 57.8354 30.9796C57.5956 31.85 56.887 32.5211 55.8382 32.8694C55.3596 33.0244 54.8606 33.1075 54.3575 33.1158ZM52.4331 27.331C51.1293 27.3598 50.0615 27.9017 49.8212 28.7759C49.4891 29.9828 50.8376 31.4499 52.7641 31.9799C53.6703 32.2506 54.6358 32.2514 55.5425 31.9822C56.2852 31.7355 56.7791 31.2915 56.9329 30.7317C57.0867 30.172 56.8893 29.5381 56.3769 28.9464C55.7354 28.2515 54.9054 27.7587 53.9882 27.528C53.4822 27.3873 52.9583 27.3209 52.4331 27.331Z" fill="#292A2E"/>
<path d="M53.6447 32.6192L54.9855 27.3889L53.7062 26.9795L52.1484 32.2721L53.6447 32.6192Z" fill="#292A2E"/>
<path d="M47.8638 29.4351C48.1008 29.4351 48.2929 29.243 48.2929 29.0061C48.2929 28.7691 48.1008 28.577 47.8638 28.577C47.6269 28.577 47.4348 28.7691 47.4348 29.0061C47.4348 29.243 47.6269 29.4351 47.8638 29.4351Z" fill="#292A2E"/>
<path d="M48.7977 27.3112C49.0346 27.3112 49.2267 27.1191 49.2267 26.8822C49.2267 26.6452 49.0346 26.4531 48.7977 26.4531C48.5607 26.4531 48.3687 26.6452 48.3687 26.8822C48.3687 27.1191 48.5607 27.3112 48.7977 27.3112Z" fill="#292A2E"/>
<path d="M100.305 86.6264C100.244 86.6264 100.184 86.607 100.135 86.5709C100.085 86.5347 100.048 86.4838 100.03 86.4255C100.011 86.3671 100.012 86.3044 100.031 86.2463C100.051 86.1882 100.088 86.1378 100.138 86.1024C100.329 85.9603 100.512 85.8085 100.688 85.6477C100.716 85.6224 100.749 85.6028 100.784 85.5902C100.82 85.5776 100.858 85.5722 100.896 85.5742C100.934 85.5762 100.971 85.5857 101.005 85.602C101.039 85.6184 101.07 85.6413 101.095 85.6695C101.12 85.6977 101.14 85.7306 101.153 85.7663C101.165 85.802 101.171 85.8399 101.169 85.8778C101.167 85.9156 101.157 85.9527 101.141 85.9869C101.124 86.021 101.102 86.0517 101.073 86.077C100.881 86.253 100.68 86.4188 100.471 86.5738C100.422 86.608 100.364 86.6263 100.305 86.6264ZM103.169 83.5329C103.116 83.5328 103.064 83.5182 103.019 83.4907C102.974 83.4631 102.937 83.4237 102.913 83.3767C102.889 83.3297 102.878 83.277 102.881 83.2242C102.885 83.1715 102.903 83.1207 102.934 83.0776C103.593 82.1415 104.169 81.1504 104.658 80.1153C104.674 80.0799 104.696 80.048 104.724 80.0214C104.752 79.9948 104.785 79.9741 104.822 79.9606C104.858 79.947 104.896 79.9409 104.935 79.9426C104.974 79.9442 105.011 79.9536 105.046 79.9702C105.081 79.9867 105.112 80.0101 105.138 80.039C105.164 80.0679 105.183 80.1016 105.196 80.1382C105.208 80.1748 105.213 80.2136 105.21 80.2521C105.208 80.2906 105.197 80.3282 105.179 80.3626C104.677 81.4278 104.083 82.4477 103.405 83.4108C103.378 83.4485 103.343 83.4793 103.302 83.5005C103.261 83.5218 103.215 83.5329 103.169 83.5329ZM106.161 77.2801C106.133 77.28 106.105 77.2759 106.078 77.2679C106.005 77.2459 105.944 77.1957 105.907 77.1283C105.871 77.061 105.863 76.982 105.885 76.9087C106.212 75.8088 106.466 74.6883 106.645 73.5547C106.65 73.5169 106.663 73.4805 106.683 73.4477C106.702 73.4149 106.728 73.3863 106.759 73.3637C106.79 73.341 106.825 73.3247 106.862 73.3157C106.899 73.3066 106.938 73.3051 106.976 73.3111C107.013 73.3171 107.049 73.3305 107.082 73.3506C107.114 73.3707 107.143 73.3971 107.165 73.4282C107.187 73.4593 107.203 73.4945 107.212 73.5318C107.22 73.569 107.221 73.6076 107.215 73.6453C107.032 74.8042 106.772 75.9498 106.438 77.0743C106.42 77.1338 106.383 77.1859 106.334 77.223C106.284 77.26 106.223 77.2801 106.161 77.2801ZM107.27 70.4277H107.258C107.182 70.4246 107.11 70.3912 107.058 70.3349C107.006 70.2786 106.979 70.2041 106.982 70.1277C107 69.6807 107.011 69.2217 107.011 68.7635C107.011 68.0751 106.967 67.3874 106.878 66.7047C106.873 66.6669 106.875 66.6283 106.884 66.5914C106.894 66.5544 106.911 66.5197 106.934 66.4893C106.957 66.4589 106.986 66.4333 107.019 66.4142C107.052 66.395 107.088 66.3826 107.126 66.3776C107.164 66.3727 107.203 66.3753 107.24 66.3853C107.276 66.3954 107.311 66.4126 107.341 66.4361C107.371 66.4596 107.396 66.4888 107.415 66.5221C107.434 66.5553 107.446 66.592 107.45 66.6299C107.542 67.3374 107.588 68.0501 107.588 68.7635C107.588 69.2298 107.578 69.6966 107.559 70.1513C107.556 70.2257 107.524 70.2959 107.47 70.3474C107.416 70.3988 107.345 70.4275 107.27 70.4274V70.4277ZM106.318 63.5898C106.26 63.5898 106.202 63.5721 106.154 63.5389C106.106 63.5057 106.069 63.4587 106.048 63.404C105.642 62.3405 105.114 61.3277 104.474 60.3861C104.453 60.3547 104.438 60.3195 104.43 60.2823C104.422 60.2452 104.422 60.2069 104.429 60.1697C104.436 60.1325 104.451 60.097 104.472 60.0654C104.493 60.0337 104.519 60.0065 104.551 59.9852C104.582 59.9639 104.617 59.949 104.655 59.9414C104.692 59.9337 104.73 59.9335 104.767 59.9406C104.804 59.9477 104.84 59.9621 104.871 59.983C104.903 60.0038 104.93 60.0307 104.952 60.0621C105.616 61.0409 106.166 62.0935 106.588 63.1989C106.601 63.2343 106.608 63.272 106.607 63.3099C106.605 63.3478 106.597 63.3851 106.581 63.4196C106.566 63.4542 106.544 63.4853 106.516 63.5113C106.488 63.5373 106.456 63.5576 106.421 63.571C106.388 63.5835 106.353 63.5897 106.318 63.5895L106.318 63.5898ZM84.9965 62.2107C84.5294 62.2342 84.0624 62.1619 83.6243 61.9981C83.1863 61.8344 82.7863 61.5827 82.4492 61.2586C82.3961 61.2034 82.3672 61.1294 82.3687 61.0529C82.3702 60.9764 82.4021 60.9036 82.4572 60.8506C82.5124 60.7976 82.5864 60.7686 82.6629 60.7701C82.7394 60.7717 82.8122 60.8035 82.8652 60.8587C83.4832 61.5012 84.4601 61.7499 85.7158 61.5846L85.8672 61.5635C85.943 61.5527 86.02 61.5724 86.0812 61.6183C86.1424 61.6642 86.1829 61.7326 86.1937 61.8083C86.2045 61.8841 86.1848 61.9611 86.1389 62.0223C86.093 62.0835 86.0247 62.124 85.9489 62.1348L85.7922 62.1567C85.5289 62.1921 85.2636 62.2102 84.9979 62.211L84.9965 62.2107ZM89.2331 61.1631C89.1676 61.1637 89.1037 61.1421 89.0521 61.1016C89.0005 61.0611 88.9643 61.0043 88.9493 60.9405C88.9343 60.8767 88.9415 60.8096 88.9697 60.7505C88.9979 60.6913 89.0454 60.6434 89.1044 60.6149C90.1111 60.1344 90.9712 59.3937 91.5958 58.4695C91.6391 58.4084 91.7044 58.3665 91.7779 58.3526C91.8515 58.3388 91.9276 58.3541 91.9901 58.3953C92.0526 58.4365 92.0966 58.5003 92.1129 58.5734C92.1292 58.6464 92.1164 58.723 92.0773 58.7868C91.3968 59.7959 90.4591 60.605 89.3612 61.1305C89.3221 61.1511 89.2787 61.1623 89.2346 61.1634L89.2331 61.1631ZM82.0031 58.0722C81.9811 58.0723 81.9591 58.0699 81.9376 58.0649C81.9007 58.0564 81.8658 58.0407 81.835 58.0187C81.8041 57.9966 81.7779 57.9688 81.7578 57.9366C81.7378 57.9045 81.7242 57.8687 81.718 57.8313C81.7118 57.7939 81.713 57.7556 81.7215 57.7187C82.0153 56.5379 82.6065 55.452 83.4388 54.5643C83.4913 54.5107 83.5626 54.4795 83.6377 54.4776C83.7127 54.4757 83.7856 54.5031 83.8408 54.554C83.8959 54.605 83.9291 54.6754 83.9332 54.7504C83.9372 54.8253 83.9119 54.899 83.8626 54.9556C83.0982 55.7693 82.5547 56.7651 82.2838 57.8483C82.2693 57.9116 82.2339 57.9682 82.1832 58.0089C82.1325 58.0496 82.0695 58.072 82.0045 58.0724L82.0031 58.0722ZM102.463 57.8638C102.389 57.864 102.318 57.8352 102.264 57.7836C101.436 56.9952 100.537 56.2854 99.5774 55.6633C99.5445 55.6432 99.516 55.6167 99.4936 55.5853C99.4711 55.554 99.4552 55.5185 99.4467 55.4809C99.4382 55.4433 99.4373 55.4044 99.4441 55.3664C99.4509 55.3285 99.4652 55.2923 99.4862 55.26C99.5073 55.2277 99.5345 55.1999 99.5665 55.1783C99.5984 55.1567 99.6343 55.1417 99.6721 55.1342C99.7099 55.1268 99.7489 55.1269 99.7866 55.1348C99.8244 55.1426 99.8602 55.1579 99.8919 55.1798C100.881 55.8212 101.808 56.5534 102.662 57.3667C102.703 57.4065 102.732 57.4579 102.744 57.5142C102.757 57.5706 102.752 57.6292 102.73 57.6827C102.709 57.7362 102.672 57.782 102.624 57.8143C102.576 57.8466 102.52 57.8639 102.462 57.8638H102.463ZM92.9386 55.6552C92.9288 55.6552 92.9192 55.6552 92.9097 55.6552C92.8719 55.6514 92.8352 55.6402 92.8018 55.6221C92.7683 55.6041 92.7388 55.5796 92.7148 55.5501C92.6908 55.5206 92.6729 55.4867 92.6621 55.4503C92.6513 55.4139 92.6478 55.3757 92.6518 55.3379C92.6846 55.008 92.7008 54.6768 92.7003 54.3454C92.6949 53.5432 92.6169 52.7431 92.4671 51.955C92.4532 51.8797 92.4698 51.802 92.5132 51.739C92.5566 51.6759 92.6233 51.6327 92.6985 51.6188C92.7738 51.605 92.8515 51.6215 92.9145 51.6649C92.9775 51.7083 93.0208 51.775 93.0346 51.8502C93.0754 52.0724 93.1112 52.2919 93.142 52.5086C93.1761 52.467 93.2212 52.4357 93.2722 52.4184C93.3232 52.4011 93.378 52.3983 93.4305 52.4105C94.5776 52.6819 95.6988 53.0528 96.7814 53.519C96.8517 53.5492 96.9071 53.6061 96.9355 53.6772C96.9639 53.7482 96.9629 53.8277 96.9327 53.898C96.9025 53.9683 96.8456 54.0238 96.7745 54.0522C96.7035 54.0805 96.624 54.0795 96.5537 54.0493C95.5021 53.5964 94.4129 53.2361 93.2986 52.9726C93.2609 52.9636 93.2253 52.9472 93.1939 52.9244C93.248 53.3961 93.2756 53.8705 93.2767 54.3454C93.2771 54.6961 93.26 55.0466 93.2254 55.3956C93.2182 55.4667 93.1849 55.5326 93.1319 55.5806C93.0789 55.6286 93.01 55.6552 92.9386 55.6552ZM86.5046 53.1053C86.4374 53.1053 86.3723 53.0819 86.3206 53.0391C86.2688 52.9963 86.2336 52.9368 86.221 52.8708C86.2085 52.8048 86.2193 52.7365 86.2517 52.6777C86.284 52.6188 86.3359 52.5731 86.3984 52.5485C86.5767 52.4781 86.7579 52.4134 86.9371 52.3566C87.8634 52.0797 88.8267 51.9465 89.7934 51.9616H89.9189C89.9954 51.9616 90.0688 51.992 90.1229 52.0461C90.177 52.1002 90.2074 52.1736 90.2074 52.2501C90.2074 52.3266 90.177 52.4 90.1229 52.4541C90.0688 52.5082 89.9954 52.5386 89.9189 52.5386H89.9169H89.7946C88.8876 52.5236 87.9836 52.6477 87.1142 52.9065C86.9425 52.9611 86.7752 53.0206 86.6125 53.0848C86.578 53.0984 86.5411 53.105 86.504 53.1044L86.5046 53.1053ZM91.8113 48.8421C91.7523 48.8421 91.6947 48.824 91.6463 48.7902C91.5979 48.7564 91.5611 48.7086 91.5407 48.6532C91.1403 47.5754 90.6768 46.5221 90.1526 45.4988C90.1353 45.465 90.1249 45.4282 90.1219 45.3903C90.1188 45.3525 90.1233 45.3145 90.135 45.2784C90.1467 45.2423 90.1654 45.2089 90.19 45.1801C90.2146 45.1512 90.2447 45.1275 90.2785 45.1103C90.3123 45.093 90.3491 45.0827 90.387 45.0797C90.4248 45.0767 90.4628 45.0813 90.4989 45.093C90.5349 45.1048 90.5683 45.1235 90.5971 45.1482C90.6259 45.1729 90.6496 45.203 90.6668 45.2368C91.2014 46.2806 91.6741 47.3549 92.0822 48.4544C92.0982 48.498 92.1034 48.5448 92.0974 48.5908C92.0915 48.6369 92.0744 48.6808 92.0478 48.7189C92.0212 48.7569 91.9859 48.788 91.9447 48.8095C91.9035 48.8309 91.8578 48.8421 91.8113 48.8421ZM88.6812 42.6346C88.6325 42.6347 88.5846 42.6225 88.5419 42.5991C88.4992 42.5757 88.4632 42.5419 88.4371 42.5008C87.8257 41.5374 87.1598 40.5833 86.4584 39.6652C86.4119 39.6044 86.3915 39.5276 86.4016 39.4518C86.4117 39.3759 86.4516 39.3072 86.5124 39.2607C86.5732 39.2142 86.6499 39.1938 86.7258 39.2039C86.8017 39.214 86.8704 39.2538 86.9169 39.3146C87.6284 40.2463 88.3038 41.2143 88.9244 42.1912C88.9654 42.2558 88.9791 42.334 88.9624 42.4087C88.9457 42.4833 88.9001 42.5483 88.8355 42.5893C88.7892 42.6188 88.7354 42.6342 88.6806 42.6338L88.6812 42.6346ZM84.4558 37.1063C84.4157 37.1064 84.376 37.098 84.3393 37.0819C84.3026 37.0658 84.2697 37.0421 84.2426 37.0125C83.89 36.6274 83.5299 36.2511 83.1728 35.8937C82.7273 35.4483 82.2582 35.0273 81.7674 34.6325C81.7368 34.6092 81.7111 34.5799 81.692 34.5465C81.6729 34.5131 81.6606 34.4762 81.656 34.438C81.6513 34.3997 81.6544 34.3609 81.665 34.3239C81.6755 34.2869 81.6934 34.2524 81.7175 34.2223C81.7417 34.1923 81.7716 34.1675 81.8055 34.1492C81.8394 34.1309 81.8766 34.1196 81.9149 34.1159C81.9533 34.1123 81.992 34.1163 82.0287 34.1279C82.0655 34.1394 82.0995 34.1581 82.1289 34.183C82.636 34.5907 83.1207 35.0255 83.5807 35.4857C83.944 35.8489 84.3098 36.2315 84.6684 36.6233C84.7061 36.6646 84.731 36.716 84.74 36.7711C84.7491 36.8263 84.7419 36.8829 84.7194 36.9341C84.6968 36.9852 84.6599 37.0287 84.6132 37.0593C84.5664 37.0899 84.5117 37.1062 84.4558 37.1063ZM79.0351 32.8016C78.989 32.8015 78.9436 32.7904 78.9027 32.7693C77.8867 32.2461 76.8242 31.8185 75.729 31.492C75.6565 31.4694 75.5959 31.4191 75.5603 31.3521C75.5247 31.285 75.5169 31.2067 75.5386 31.134C75.5604 31.0613 75.6099 31 75.6765 30.9636C75.743 30.9271 75.8213 30.9184 75.8943 30.9392C77.0245 31.2757 78.1209 31.7168 79.1693 32.2566C79.2268 32.2862 79.2727 32.3344 79.2996 32.3933C79.3265 32.4522 79.3328 32.5184 79.3175 32.5813C79.3022 32.6443 79.2661 32.7002 79.2152 32.7401C79.1642 32.7801 79.1013 32.8017 79.0365 32.8016H79.0351ZM62.0537 31.5639C61.9848 31.5639 61.9181 31.5392 61.8658 31.4943C61.8135 31.4494 61.7789 31.3873 61.7685 31.3191C61.758 31.251 61.7723 31.1813 61.8087 31.1228C61.8452 31.0643 61.9014 31.0208 61.9672 31.0001C63.0992 30.6732 64.2546 30.4338 65.4233 30.284C65.4615 30.2773 65.5006 30.2784 65.5384 30.2872C65.5761 30.296 65.6117 30.3123 65.643 30.3352C65.6743 30.358 65.7007 30.387 65.7206 30.4202C65.7404 30.4535 65.7534 30.4904 65.7587 30.5288C65.764 30.5672 65.7615 30.6063 65.7514 30.6437C65.7412 30.6811 65.7237 30.716 65.6997 30.7465C65.6758 30.777 65.6459 30.8023 65.612 30.821C65.578 30.8397 65.5407 30.8513 65.5021 30.8553C64.3657 31.0024 63.242 31.2349 62.1406 31.5509C62.1124 31.5596 62.0832 31.5639 62.0537 31.5639ZM72.4072 30.7898C72.3948 30.7897 72.3824 30.7889 72.37 30.7874C71.2315 30.6428 70.0842 30.5788 68.9366 30.5959H68.9329C68.8564 30.5964 68.7828 30.5664 68.7283 30.5127C68.6739 30.4589 68.643 30.3857 68.6425 30.3092C68.642 30.2327 68.6719 30.1591 68.7257 30.1047C68.7794 30.0502 68.8526 30.0193 68.9291 30.0188C70.1036 30.0038 71.2778 30.0693 72.4433 30.215C72.516 30.2243 72.5825 30.2609 72.6293 30.3174C72.676 30.3739 72.6994 30.4461 72.6948 30.5193C72.6902 30.5925 72.658 30.6612 72.6045 30.7114C72.5511 30.7617 72.4806 30.7897 72.4072 30.7898Z" fill="#1E1E1E"/>
<path d="M193.19 6.62384C192.571 6.73505 191.932 6.66879 191.349 6.43268C190.765 6.19657 190.26 5.80025 189.892 5.28946C189.524 4.77867 189.308 4.17424 189.269 3.54591C189.23 2.91759 189.369 2.291 189.671 1.73845C189.972 1.1859 190.424 0.729929 190.974 0.423156C191.524 0.116383 192.149 -0.0286847 192.778 0.00469729C193.406 0.0380793 194.013 0.24855 194.527 0.611817C195.041 0.975084 195.442 1.47634 195.683 2.05773C195.874 2.51878 195.959 3.0166 195.932 3.51471C195.905 4.01282 195.767 4.49859 195.528 4.93642C195.289 5.37424 194.955 5.75303 194.55 6.04501C194.146 6.33699 193.681 6.53476 193.19 6.62384ZM192.171 0.972894C191.682 1.06173 191.232 1.30013 190.884 1.65522C190.536 2.01032 190.307 2.46462 190.228 2.95552C190.149 3.44641 190.224 3.94973 190.443 4.39608C190.662 4.84243 191.015 5.20984 191.451 5.44766C191.888 5.68548 192.388 5.78201 192.881 5.72393C193.375 5.66586 193.839 5.45604 194.208 5.1234C194.578 4.79077 194.835 4.35169 194.945 3.86669C195.054 3.3817 195.011 2.87467 194.82 2.41549C194.609 1.90877 194.232 1.48932 193.75 1.22688C193.268 0.964436 192.711 0.874808 192.171 0.972894Z" fill="#292A2E"/>
<path d="M193.168 14.3817C192.325 14.5349 191.455 14.3589 190.738 13.8901C190.021 13.4214 189.511 12.6954 189.312 11.8617C189.114 11.028 189.243 10.1501 189.673 9.40857C190.102 8.66707 190.8 8.11848 191.621 7.87571C192.443 7.63295 193.327 7.71449 194.09 8.10356C194.854 8.49262 195.439 9.1596 195.726 9.96719C196.012 10.7748 195.978 11.6615 195.631 12.4448C195.283 13.2282 194.649 13.8485 193.858 14.1781C193.636 14.2705 193.405 14.3388 193.168 14.3817ZM192.154 8.72965C191.984 8.76057 191.817 8.80971 191.657 8.87622C191.092 9.1119 190.639 9.55512 190.391 10.1147C190.143 10.6743 190.119 11.3077 190.323 11.8846C190.528 12.4615 190.946 12.9379 191.491 13.216C192.037 13.4941 192.668 13.5526 193.255 13.3795C193.842 13.2064 194.341 12.8148 194.648 12.2854C194.955 11.756 195.048 11.1289 194.907 10.5333C194.766 9.93761 194.402 9.41865 193.89 9.08316C193.378 8.74766 192.757 8.62115 192.154 8.72965Z" fill="#292A2E"/>
<path d="M196.99 7.3224C196.994 5.69884 195.028 4.37707 192.597 4.37016C190.166 4.36324 188.192 5.6738 188.188 7.29736C188.183 8.92092 190.15 10.2427 192.58 10.2496C195.011 10.2565 196.985 8.94596 196.99 7.3224Z" fill="white"/>
<path d="M193.842 10.6069C193.426 10.6819 193.003 10.7188 192.579 10.7171C191.388 10.7353 190.217 10.4053 189.21 9.7676C188.247 9.12045 187.718 8.24277 187.72 7.29614C187.723 6.34951 188.257 5.4753 189.225 4.83305C190.243 4.22112 191.41 3.89945 192.599 3.90286C193.787 3.90627 194.952 4.23461 195.968 4.85238C196.931 5.49953 197.461 6.3775 197.458 7.32384C197.455 8.27018 196.921 9.14526 195.954 9.78693C195.312 10.1999 194.594 10.4789 193.842 10.6069ZM191.5 4.93346C190.873 5.0388 190.275 5.26972 189.74 5.61234C189.042 6.07628 188.656 6.67525 188.654 7.29931C188.652 7.92338 189.034 8.52495 189.73 8.99235C190.592 9.50694 191.577 9.78002 192.581 9.78291C193.584 9.7858 194.571 9.51841 195.435 9.00879C196.134 8.54485 196.52 7.94589 196.521 7.32182C196.523 6.69775 196.141 6.09648 195.445 5.62879C194.592 5.09414 193.601 4.81963 192.595 4.83882C192.228 4.83709 191.861 4.86877 191.5 4.93346Z" fill="#292A2E"/>
<path d="M191.521 4.45626L191.604 10.1733L193.025 10.2362L193.146 4.39539L191.521 4.45626Z" fill="#292A2E"/>
<path d="M198.067 9.42654C198.318 9.42654 198.522 9.22309 198.522 8.97212C198.522 8.72115 198.318 8.5177 198.067 8.5177C197.816 8.5177 197.613 8.72115 197.613 8.97212C197.613 9.22309 197.816 9.42654 198.067 9.42654Z" fill="#292A2E"/>
<path d="M198.431 6.9966C198.682 6.9966 198.886 6.79316 198.886 6.54219C198.886 6.29122 198.682 6.08777 198.431 6.08777C198.18 6.08777 197.977 6.29122 197.977 6.54219C197.977 6.79316 198.18 6.9966 198.431 6.9966Z" fill="#292A2E"/>
<path d="M130.328 73.38C130.277 73.38 130.226 73.3662 130.181 73.34C130.137 73.3139 130.1 73.2762 130.075 73.2311C129.532 72.1859 129.066 71.1026 128.68 69.9899C128.654 69.9179 128.657 69.8385 128.69 69.7693C128.722 69.7 128.781 69.6464 128.853 69.6204C128.925 69.5944 129.004 69.598 129.073 69.6305C129.143 69.663 129.196 69.7217 129.222 69.7937C129.6 70.8771 130.054 71.9325 130.58 72.9518C130.605 72.9957 130.617 73.0452 130.616 73.0954C130.616 73.1455 130.602 73.1946 130.576 73.2379C130.551 73.2811 130.515 73.3169 130.471 73.3419C130.428 73.3668 130.378 73.3799 130.328 73.38ZM127.926 66.8525C127.862 66.8525 127.8 66.8312 127.749 66.7921C127.699 66.7529 127.663 66.698 127.647 66.6361C127.358 65.5141 127.112 64.36 126.92 63.2053C126.907 63.1298 126.925 63.0525 126.969 62.9902C127.014 62.928 127.081 62.8859 127.157 62.8734C127.232 62.8608 127.31 62.8788 127.372 62.9233C127.434 62.9678 127.476 63.0352 127.489 63.1107C127.679 64.2486 127.92 65.386 128.206 66.4919C128.225 66.5659 128.214 66.6446 128.175 66.7105C128.136 66.7764 128.072 66.8241 127.998 66.8433C127.975 66.8494 127.95 66.8525 127.926 66.8525ZM126.78 59.9921C126.707 59.9923 126.637 59.9651 126.584 59.9158C126.53 59.8665 126.497 59.7989 126.491 59.7264C126.407 58.6623 126.365 57.5821 126.365 56.5157V56.2232C126.365 56.1466 126.396 56.0735 126.451 56.0197C126.505 55.966 126.579 55.9361 126.655 55.9367C126.732 55.9372 126.805 55.9681 126.859 56.0226C126.912 56.0771 126.942 56.1507 126.942 56.2272V56.5157C126.942 57.5671 126.984 58.632 127.067 59.6808C127.073 59.757 127.048 59.8326 126.999 59.8908C126.949 59.949 126.878 59.9851 126.802 59.9912C126.795 59.9918 126.788 59.9921 126.78 59.9921ZM126.831 53.0388C126.821 53.0388 126.813 53.0388 126.802 53.0388C126.726 53.0315 126.656 52.9943 126.607 52.9354C126.558 52.8765 126.535 52.8007 126.542 52.7246C126.65 51.5676 126.811 50.3991 127.018 49.252C127.024 49.2137 127.037 49.177 127.057 49.1439C127.077 49.1109 127.104 49.0823 127.135 49.0597C127.167 49.0372 127.202 49.0212 127.24 49.0127C127.278 49.0042 127.317 49.0033 127.355 49.0102C127.393 49.0171 127.429 49.0316 127.461 49.0528C127.494 49.074 127.522 49.1014 127.543 49.1336C127.565 49.1657 127.579 49.2018 127.587 49.2398C127.594 49.2778 127.594 49.3169 127.585 49.3547C127.381 50.4857 127.223 51.6374 127.117 52.7782C127.109 52.8492 127.076 52.9149 127.023 52.9628C126.971 53.0107 126.902 53.0373 126.831 53.0376V53.0388ZM128.065 46.1951C128.039 46.1952 128.014 46.1919 127.99 46.1853C127.953 46.1755 127.919 46.1585 127.889 46.1355C127.859 46.1124 127.833 46.0836 127.814 46.0508C127.796 46.018 127.783 45.9818 127.778 45.9442C127.773 45.9066 127.776 45.8684 127.786 45.8318C128.085 44.7164 128.437 43.5915 128.832 42.4879C128.845 42.4521 128.865 42.4192 128.89 42.391C128.916 42.3628 128.946 42.34 128.981 42.3237C129.015 42.3074 129.052 42.2981 129.09 42.2962C129.128 42.2943 129.166 42.2999 129.202 42.3127C129.237 42.3255 129.27 42.3452 129.298 42.3707C129.326 42.3962 129.349 42.4271 129.365 42.4614C129.382 42.4957 129.391 42.5329 129.393 42.5708C129.394 42.6088 129.389 42.6467 129.376 42.6824C128.986 43.7712 128.639 44.8815 128.343 45.9816C128.326 46.0426 128.29 46.0965 128.24 46.1348C128.19 46.1732 128.128 46.194 128.065 46.1939V46.1951ZM130.404 39.6457C130.363 39.6457 130.323 39.6371 130.286 39.6203C130.216 39.5888 130.162 39.531 130.135 39.4596C130.108 39.3881 130.11 39.3089 130.142 39.2392C130.377 38.7129 130.628 38.18 130.887 37.6564C131.146 37.1327 131.422 36.6082 131.706 36.1018C131.744 36.0351 131.806 35.986 131.88 35.9654C131.954 35.9447 132.033 35.9542 132.1 35.9917C132.166 36.0293 132.215 36.0918 132.236 36.1655C132.257 36.2392 132.247 36.3181 132.21 36.3849C131.93 36.882 131.659 37.3947 131.404 37.9117C131.15 38.4287 130.901 38.9553 130.668 39.4752C130.645 39.5259 130.608 39.5688 130.561 39.5988C130.514 39.6288 130.459 39.6446 130.404 39.6443V39.6457ZM161.009 37.6722C160.936 37.672 160.866 37.6441 160.812 37.594C160.759 37.544 160.727 37.4756 160.722 37.4027C160.717 37.3297 160.74 37.2577 160.786 37.2011C160.833 37.1445 160.899 37.1076 160.971 37.0978C162.055 36.9535 162.828 36.3029 163.268 35.1624C163.281 35.1263 163.302 35.0931 163.328 35.0649C163.354 35.0366 163.385 35.0139 163.42 34.9979C163.455 34.982 163.493 34.9732 163.531 34.9721C163.57 34.971 163.608 34.9775 163.644 34.9914C163.68 35.0052 163.712 35.0261 163.74 35.0528C163.768 35.0794 163.79 35.1114 163.805 35.1467C163.82 35.182 163.828 35.22 163.828 35.2584C163.829 35.2968 163.821 35.3349 163.807 35.3704C163.292 36.7037 162.338 37.4988 161.047 37.6699C161.035 37.6711 161.022 37.6713 161.009 37.6708V37.6722ZM157.655 36.944C157.611 36.9443 157.568 36.9344 157.528 36.9151C156.467 36.3814 155.48 35.7122 154.591 34.9244C154.562 34.8995 154.539 34.8692 154.522 34.8353C154.505 34.8014 154.495 34.7644 154.492 34.7266C154.489 34.6888 154.494 34.6509 154.506 34.6149C154.518 34.579 154.537 34.5457 154.562 34.5171C154.587 34.4885 154.617 34.4651 154.651 34.4482C154.685 34.4313 154.722 34.4212 154.76 34.4186C154.798 34.4159 154.836 34.4208 154.872 34.4328C154.908 34.4448 154.941 34.4638 154.969 34.4887C155.82 35.244 156.766 35.8856 157.782 36.3973C157.841 36.4258 157.888 36.4735 157.916 36.5325C157.945 36.5915 157.952 36.6584 157.937 36.7222C157.922 36.7859 157.886 36.8427 157.835 36.8833C157.784 36.9239 157.72 36.9458 157.655 36.9454V36.944ZM133.831 33.6015C133.778 33.6015 133.726 33.5868 133.68 33.559C133.635 33.5312 133.598 33.4914 133.574 33.444C133.55 33.3966 133.539 33.3435 133.544 33.2905C133.548 33.2375 133.566 33.1867 133.598 33.1436C134.285 32.1942 135.031 31.2878 135.83 30.4298C135.882 30.3757 135.954 30.3444 136.029 30.3426C136.105 30.3407 136.178 30.3685 136.233 30.4199C136.288 30.4713 136.321 30.5423 136.325 30.6177C136.328 30.693 136.302 30.7668 136.252 30.8231C135.469 31.6639 134.739 32.552 134.065 33.4823C134.038 33.519 134.003 33.5488 133.962 33.5692C133.921 33.5897 133.877 33.6002 133.831 33.6001V33.6015ZM152.394 32.4642C152.35 32.4642 152.306 32.4542 152.267 32.4349C152.227 32.4156 152.193 32.3875 152.166 32.3528C151.439 31.4223 150.804 30.4242 150.269 29.3721C150.25 29.3382 150.239 29.3008 150.235 29.2624C150.231 29.2239 150.235 29.1851 150.247 29.1483C150.259 29.1114 150.277 29.0772 150.302 29.0477C150.327 29.0183 150.358 28.9941 150.392 28.9767C150.427 28.9593 150.465 28.949 150.503 28.9465C150.542 28.9439 150.58 28.9491 150.617 28.9618C150.653 28.9744 150.687 28.9943 150.716 29.0202C150.744 29.046 150.768 29.0774 150.784 29.1124C151.302 30.1314 151.917 31.0982 152.621 31.9994C152.654 32.042 152.675 32.093 152.68 32.1468C152.686 32.2005 152.676 32.2548 152.653 32.3033C152.629 32.3519 152.592 32.3928 152.546 32.4214C152.501 32.4501 152.448 32.4653 152.394 32.4653V32.4642ZM163.955 32.1254C163.882 32.1256 163.811 32.0975 163.757 32.047C163.703 31.9966 163.671 31.9275 163.667 31.8539C163.609 30.7292 163.333 29.6264 162.854 28.6069C162.834 28.5725 162.822 28.5345 162.818 28.4951C162.814 28.4558 162.818 28.416 162.83 28.3783C162.842 28.3406 162.861 28.3057 162.887 28.2758C162.913 28.246 162.945 28.2217 162.98 28.2047C163.016 28.1876 163.055 28.1781 163.094 28.1766C163.134 28.1752 163.173 28.1819 163.21 28.1963C163.247 28.2107 163.281 28.2326 163.309 28.2605C163.337 28.2884 163.359 28.3218 163.373 28.3585C163.885 29.4445 164.18 30.6195 164.243 31.8182C164.248 31.8945 164.222 31.9696 164.171 32.0268C164.12 32.0841 164.049 32.1188 163.972 32.1234L163.955 32.1254ZM138.574 28.5316C138.515 28.5317 138.457 28.5134 138.408 28.4792C138.359 28.445 138.322 28.3966 138.302 28.3405C138.282 28.2845 138.28 28.2237 138.296 28.1663C138.312 28.1089 138.345 28.0579 138.391 28.0201C139.297 27.2738 140.254 26.591 141.255 25.9768C141.287 25.9539 141.323 25.9379 141.362 25.9297C141.401 25.9215 141.441 25.9213 141.479 25.9292C141.518 25.9371 141.555 25.9528 141.587 25.9755C141.62 25.9981 141.647 26.0272 141.668 26.0608C141.688 26.0945 141.702 26.132 141.708 26.1712C141.713 26.2103 141.711 26.2501 141.7 26.2883C141.69 26.3264 141.671 26.3619 141.647 26.3927C141.622 26.4235 141.591 26.4489 141.556 26.4673C140.578 27.0675 139.643 27.7348 138.758 28.4644C138.706 28.5071 138.641 28.5304 138.574 28.5302V28.5316ZM149.304 26.2774C149.239 26.2774 149.177 26.2558 149.126 26.216C149.075 26.1763 149.039 26.1207 149.024 26.0582C148.773 25.0585 148.645 24.0322 148.641 23.0016C148.641 22.8439 148.644 22.6859 148.651 22.5278C148.652 22.4898 148.66 22.4524 148.676 22.4178C148.692 22.3832 148.714 22.352 148.742 22.3263C148.77 22.3005 148.803 22.2805 148.839 22.2676C148.874 22.2547 148.912 22.2491 148.95 22.2512C149.027 22.2542 149.099 22.2875 149.151 22.3437C149.203 22.4 149.23 22.4745 149.227 22.5509C149.221 22.7013 149.218 22.8516 149.218 23.0016C149.222 23.9856 149.345 24.9655 149.584 25.92C149.603 25.9943 149.591 26.0728 149.551 26.1383C149.511 26.2037 149.447 26.2508 149.373 26.2691C149.35 26.2743 149.327 26.2767 149.304 26.276V26.2774ZM161.018 26.0253C160.948 26.0253 160.88 25.9998 160.828 25.9537C159.972 25.2148 158.999 24.6236 157.949 24.2047C157.914 24.1904 157.882 24.1693 157.855 24.1426C157.828 24.116 157.806 24.0843 157.792 24.0493C157.777 24.0144 157.769 23.9769 157.769 23.939C157.769 23.9011 157.776 23.8636 157.791 23.8285C157.805 23.7934 157.826 23.7615 157.853 23.7345C157.879 23.7076 157.911 23.6862 157.946 23.6715C157.981 23.6568 158.018 23.6492 158.056 23.649C158.094 23.6488 158.132 23.6561 158.167 23.6704C159.276 24.1134 160.304 24.7384 161.208 25.5198C161.252 25.5585 161.284 25.6097 161.298 25.6667C161.312 25.7236 161.309 25.7835 161.288 25.8385C161.267 25.8934 161.23 25.9407 161.182 25.9741C161.134 26.0075 161.076 26.0253 161.018 26.0253ZM144.495 24.9153C144.429 24.9153 144.364 24.8924 144.313 24.8503C144.261 24.8083 144.226 24.7497 144.212 24.6845C144.199 24.6194 144.209 24.5516 144.24 24.4927C144.27 24.4338 144.321 24.3874 144.382 24.3614C145.464 23.8992 146.58 23.523 147.721 23.2362C147.794 23.2191 147.872 23.2316 147.936 23.2711C148.001 23.3106 148.047 23.3738 148.066 23.4472C148.084 23.5206 148.073 23.5983 148.035 23.6635C147.996 23.7287 147.934 23.7763 147.861 23.7959C146.749 24.0754 145.662 24.442 144.608 24.8923C144.572 24.9069 144.534 24.9142 144.496 24.9139L144.495 24.9153ZM154.698 23.3513C154.685 23.3513 154.672 23.3504 154.659 23.3487C153.944 23.254 153.223 23.207 152.501 23.2079C152.082 23.2079 151.668 23.2223 151.244 23.2523C151.206 23.2563 151.167 23.2525 151.13 23.2411C151.093 23.2298 151.058 23.2111 151.029 23.1862C150.999 23.1613 150.975 23.1307 150.957 23.0963C150.94 23.0618 150.929 23.0241 150.927 22.9855C150.924 22.9469 150.929 22.9082 150.942 22.8716C150.954 22.835 150.974 22.8013 151 22.7725C151.026 22.7437 151.057 22.7205 151.092 22.704C151.127 22.6876 151.165 22.6784 151.204 22.677C151.64 22.6456 152.069 22.6265 152.502 22.6308C153.249 22.6299 153.996 22.6787 154.737 22.7768C154.809 22.7866 154.875 22.8236 154.921 22.8802C154.968 22.9368 154.991 23.0089 154.986 23.0818C154.981 23.1548 154.949 23.2232 154.895 23.2732C154.842 23.3232 154.772 23.3511 154.699 23.3513H154.698ZM149.634 19.4314C149.588 19.4314 149.541 19.42 149.5 19.3982C149.459 19.3764 149.423 19.3448 149.397 19.3062C149.37 19.2676 149.353 19.2232 149.348 19.1767C149.342 19.1302 149.348 19.083 149.365 19.0393C149.495 18.7015 149.644 18.3633 149.809 18.0344C150.175 17.3068 150.578 16.5991 151.018 15.9141C151.06 15.8503 151.125 15.8055 151.2 15.7896C151.274 15.7736 151.352 15.7878 151.416 15.829C151.48 15.8703 151.525 15.9352 151.542 16.0096C151.558 16.084 151.544 16.1619 151.503 16.2263C151.074 16.8939 150.681 17.5838 150.325 18.2929C150.168 18.6051 150.027 18.926 149.904 19.2451C149.883 19.2998 149.846 19.3469 149.798 19.3802C149.75 19.4135 149.693 19.4314 149.634 19.4314ZM153.351 13.5788C153.296 13.5788 153.242 13.5629 153.195 13.5329C153.148 13.503 153.111 13.4602 153.088 13.4098C153.066 13.3594 153.058 13.3035 153.066 13.2487C153.074 13.1938 153.097 13.1425 153.134 13.1008C153.906 12.2171 154.737 11.3863 155.621 10.614C155.679 10.5636 155.755 10.5383 155.831 10.5435C155.908 10.5488 155.979 10.5842 156.029 10.642C156.08 10.6998 156.105 10.7753 156.1 10.8518C156.095 10.9283 156.059 10.9996 156.001 11.05C155.137 11.8047 154.324 12.6171 153.569 13.4816C153.541 13.5124 153.508 13.537 153.47 13.5537C153.433 13.5705 153.392 13.5791 153.351 13.5788ZM158.57 8.99858C158.509 8.9986 158.449 8.9788 158.399 8.94211C158.349 8.90541 158.313 8.85375 158.295 8.79471C158.276 8.73568 158.278 8.67239 158.298 8.61415C158.319 8.55591 158.357 8.5058 158.409 8.47117C159.38 7.81557 160.389 7.2161 161.429 6.67571C161.462 6.65703 161.5 6.64528 161.538 6.64116C161.576 6.63704 161.615 6.64063 161.652 6.65172C161.689 6.66281 161.723 6.68117 161.753 6.70572C161.782 6.73028 161.807 6.76053 161.825 6.79468C161.842 6.82884 161.853 6.86622 161.856 6.90461C161.859 6.943 161.855 6.98163 161.843 7.01822C161.831 7.05481 161.812 7.08862 161.786 7.11765C161.761 7.14668 161.73 7.17035 161.695 7.18726C160.675 7.71778 159.685 8.30607 158.732 8.94925C158.684 8.98139 158.628 8.99857 158.57 8.99858ZM164.733 5.78246C164.666 5.78249 164.601 5.759 164.549 5.71604C164.497 5.67308 164.462 5.61336 164.45 5.54721C164.437 5.48107 164.448 5.41266 164.481 5.35382C164.514 5.29499 164.566 5.24943 164.628 5.22504C165.719 4.79961 166.831 4.43134 167.961 4.12174C168.034 4.10158 168.113 4.11157 168.18 4.14953C168.246 4.18749 168.295 4.25029 168.315 4.32414C168.335 4.39798 168.325 4.4768 168.287 4.54328C168.249 4.60975 168.186 4.65842 168.113 4.67858C167.003 4.98255 165.909 5.34446 164.837 5.76284C164.804 5.77582 164.769 5.78247 164.733 5.78246ZM181.633 4.20916C181.609 4.20916 181.585 4.20615 181.561 4.20022C180.508 3.93304 179.435 3.75164 178.353 3.6578C178.315 3.65439 178.279 3.64358 178.245 3.62599C178.212 3.6084 178.182 3.58437 178.157 3.55527C178.133 3.52618 178.115 3.49258 178.104 3.45641C178.092 3.42024 178.088 3.38221 178.092 3.34447C178.095 3.30673 178.106 3.27003 178.123 3.23647C178.141 3.20291 178.165 3.17315 178.194 3.14888C178.223 3.1246 178.257 3.1063 178.293 3.09501C178.329 3.08372 178.367 3.07966 178.405 3.08307C179.518 3.17995 180.622 3.36655 181.705 3.64107C181.773 3.65845 181.833 3.70013 181.872 3.75828C181.912 3.81644 181.929 3.88705 181.92 3.95684C181.911 4.02663 181.877 4.09079 181.824 4.13726C181.772 4.18373 181.704 4.2093 181.633 4.20916ZM171.438 3.94949C171.366 3.9499 171.295 3.92278 171.242 3.87357C171.188 3.82436 171.155 3.75668 171.149 3.68412C171.143 3.61156 171.165 3.53948 171.21 3.48232C171.255 3.42516 171.32 3.38715 171.392 3.37592C172.549 3.18766 173.716 3.06628 174.887 3.01238C174.925 3.01033 174.963 3.01585 174.999 3.02863C175.035 3.04141 175.068 3.06119 175.096 3.08681C175.124 3.11244 175.146 3.1434 175.162 3.17788C175.178 3.21236 175.187 3.24967 175.189 3.28763C175.19 3.32548 175.185 3.3633 175.172 3.39892C175.159 3.43454 175.139 3.46727 175.113 3.49524C175.088 3.52321 175.057 3.54588 175.023 3.56194C174.988 3.578 174.951 3.58714 174.913 3.58884C173.765 3.64167 172.62 3.76084 171.485 3.94574C171.469 3.94776 171.454 3.94853 171.438 3.94805V3.94949Z" fill="#1E1E1E"/>
</svg>
