<svg width="26" height="23" viewBox="0 0 26 23" fill="none" xmlns="http://www.w3.org/2000/svg">
<path d="M15.7178 21.2354H10.2607V13.9736C10.2607 13.7516 10.3288 13.5762 10.4648 13.4473C10.6081 13.3112 10.7907 13.2432 11.0127 13.2432H14.9873C15.2093 13.2432 15.3848 13.3112 15.5137 13.4473C15.6497 13.5762 15.7178 13.7516 15.7178 13.9736V21.2354ZM3.68652 20.376C3.68652 21.0635 3.87988 21.597 4.2666 21.9766C4.66048 22.3561 5.20475 22.5459 5.89941 22.5459H20.1221C20.8167 22.5459 21.3574 22.3561 21.7441 21.9766C22.1309 21.597 22.3242 21.0635 22.3242 20.376V11.1592L13.666 3.89746C13.222 3.52507 12.778 3.52507 12.334 3.89746L3.68652 11.1592V20.376ZM0.614258 10.6221C0.614258 10.7868 0.67513 10.9372 0.796875 11.0732C0.925781 11.2021 1.09766 11.2666 1.3125 11.2666C1.42708 11.2666 1.53092 11.2415 1.62402 11.1914C1.71712 11.1341 1.80664 11.0732 1.89258 11.0088L12.5918 2.03906C12.7207 1.91732 12.8568 1.85645 13 1.85645C13.1432 1.84928 13.2865 1.91016 13.4297 2.03906L24.1182 11.0088C24.1969 11.0732 24.2829 11.1341 24.376 11.1914C24.4691 11.2415 24.5729 11.2666 24.6875 11.2666C24.8737 11.2666 25.0348 11.2129 25.1709 11.1055C25.307 10.9909 25.375 10.8369 25.375 10.6436C25.375 10.4072 25.2855 10.2139 25.1064 10.0635L14.1602 0.857422C13.8021 0.556641 13.4189 0.40625 13.0107 0.40625C12.6025 0.40625 12.2194 0.556641 11.8613 0.857422L0.893555 10.0635C0.707357 10.2139 0.614258 10.4001 0.614258 10.6221ZM20.0361 6.35742L22.3242 8.29102V3.34961C22.3242 3.15625 22.2633 3.00228 22.1416 2.8877C22.027 2.77311 21.8766 2.71582 21.6904 2.71582H20.6807C20.4945 2.71582 20.3405 2.77311 20.2188 2.8877C20.097 3.00228 20.0361 3.15625 20.0361 3.34961V6.35742Z" fill="#979797"/>
</svg>
