<svg width="25" height="25" viewBox="0 0 25 25" fill="none" xmlns="http://www.w3.org/2000/svg">
<path d="M13.999 0.458391L8.20682 6.24991H1.56246C0.699201 6.24991 0 6.94911 0 7.81237V17.1871C0 18.0497 0.699201 18.7496 1.56246 18.7496H8.20682L13.999 24.5404C14.9775 25.5189 16.6662 24.8315 16.6662 23.4357V1.56383C16.6662 0.16608 14.9762 -0.518146 13.999 0.458391ZM22.0196 7.49467C21.2657 7.08257 20.3146 7.35405 19.8966 8.10989C19.4806 8.86572 19.756 9.81557 20.5118 10.2329C21.3523 10.6951 21.8744 11.5636 21.8744 12.4997C21.8744 13.4359 21.3523 14.3044 20.5125 14.766C19.7566 15.1833 19.4813 16.1331 19.8973 16.889C20.3159 17.648 21.2677 17.9176 22.0203 17.5042C23.8581 16.4918 25 14.5746 25 12.4991C25 10.4236 23.8581 8.50701 22.0196 7.49467Z" fill="#1E4552"/>
</svg>
