<svg width="36" height="36" viewBox="0 0 36 36" fill="none" xmlns="http://www.w3.org/2000/svg">
<path d="M5.71396 22.4832L11.2926 20.2813C11.5305 20.1868 11.7313 20.0176 11.8648 19.7991C11.9982 19.5807 12.0571 19.3248 12.0325 19.07L11.6672 15.2329C15.6602 13.8193 20.0207 13.8392 24.0007 15.2892L23.6004 19.1227C23.573 19.3774 23.6293 19.634 23.7608 19.8538C23.8923 20.0736 24.0918 20.2445 24.3292 20.3407L29.8875 22.5935C30.1448 22.6959 30.4297 22.7053 30.6931 22.6201C30.9565 22.5349 31.182 22.3604 31.3305 22.1268L34.1351 17.6847C34.2777 17.4588 34.3395 17.1912 34.3104 16.9257C34.2814 16.6601 34.1632 16.4122 33.9751 16.2225C25.0888 7.2548 10.6315 7.20277 1.67775 16.0752C1.48782 16.2632 1.36723 16.51 1.33567 16.7753C1.30412 17.0407 1.36347 17.3089 1.50403 17.5362L4.26796 22.0037C4.4156 22.2393 4.64076 22.4161 4.90468 22.5036C5.1686 22.5911 5.45477 22.5839 5.71396 22.4832Z" fill="white"/>
</svg>
