<svg width="20" height="20" viewBox="0 0 20 20" fill="none" xmlns="http://www.w3.org/2000/svg">
<path d="M3.75 3C3.55109 3 3.36032 3.07902 3.21967 3.21967C3.07902 3.36032 3 3.55109 3 3.75C3 7.13151 4.3433 10.3745 6.73439 12.7656C9.12548 15.1567 12.3685 16.5 15.75 16.5C15.9489 16.5 16.1397 16.421 16.2803 16.2803C16.421 16.1397 16.5 15.9489 16.5 15.75V13.125C16.5 12.9261 16.421 12.7353 16.2803 12.5947C16.1397 12.454 15.9489 12.375 15.75 12.375C14.8125 12.375 13.9125 12.225 13.0725 11.9475C12.81 11.865 12.5175 11.925 12.3075 12.1275L10.6575 13.7775C8.535 12.6975 6.795 10.965 5.715 8.835L7.365 7.1775C7.575 6.9825 7.635 6.69 7.5525 6.4275C7.275 5.5875 7.125 4.6875 7.125 3.75C7.125 3.55109 7.04598 3.36032 6.90533 3.21967C6.76468 3.07902 6.57391 3 6.375 3H3.75ZM15 9V7.875H12.375L16.5 3.75L15.75 3L11.625 7.125V4.5H10.5V9H15Z" fill="#1E4552"/>
</svg>
