<svg width="21" height="29" viewBox="0 0 21 29" fill="none" xmlns="http://www.w3.org/2000/svg">
<path d="M15 11V5.57143C15 4.35901 14.5259 3.19625 13.682 2.33894C12.8381 1.48163 11.6935 1 10.5 1C9.30653 1 8.16193 1.48163 7.31802 2.33894C6.47411 3.19625 6 4.35901 6 5.57143V11" stroke="white" stroke-width="2" stroke-linecap="round" stroke-linejoin="round"/>
<path d="M17.15 11H3.85C2.27599 11 1 12.3431 1 14V25C1 26.6569 2.27599 28 3.85 28H17.15C18.724 28 20 26.6569 20 25V14C20 12.3431 18.724 11 17.15 11Z" stroke="white" stroke-width="2" stroke-linecap="round" stroke-linejoin="round"/>
</svg>
