<svg width="207" height="40" viewBox="0 0 207 40" fill="none" xmlns="http://www.w3.org/2000/svg">
<path d="M50.3888 5.248V22H47.0288V11.104L42.5408 22H39.9968L35.4848 11.104V22H32.1248V5.248H35.9408L41.2688 17.704L46.5968 5.248H50.3888ZM59.6147 22.216C58.3347 22.216 57.1827 21.936 56.1587 21.376C55.1347 20.8 54.3267 19.992 53.7347 18.952C53.1587 17.912 52.8707 16.712 52.8707 15.352C52.8707 13.992 53.1667 12.792 53.7587 11.752C54.3667 10.712 55.1907 9.912 56.2307 9.352C57.2707 8.776 58.4307 8.488 59.7107 8.488C60.9907 8.488 62.1507 8.776 63.1907 9.352C64.2307 9.912 65.0467 10.712 65.6387 11.752C66.2467 12.792 66.5507 13.992 66.5507 15.352C66.5507 16.712 66.2387 17.912 65.6147 18.952C65.0067 19.992 64.1747 20.8 63.1187 21.376C62.0787 21.936 60.9107 22.216 59.6147 22.216ZM59.6147 19.288C60.2227 19.288 60.7907 19.144 61.3187 18.856C61.8627 18.552 62.2947 18.104 62.6147 17.512C62.9347 16.92 63.0947 16.2 63.0947 15.352C63.0947 14.088 62.7587 13.12 62.0867 12.448C61.4307 11.76 60.6227 11.416 59.6627 11.416C58.7027 11.416 57.8947 11.76 57.2387 12.448C56.5987 13.12 56.2787 14.088 56.2787 15.352C56.2787 16.616 56.5907 17.592 57.2147 18.28C57.8547 18.952 58.6547 19.288 59.6147 19.288ZM72.3754 10.648C72.8074 10.008 73.3994 9.488 74.1514 9.088C74.9194 8.688 75.7914 8.488 76.7674 8.488C77.9034 8.488 78.9274 8.768 79.8394 9.328C80.7674 9.888 81.4954 10.688 82.0234 11.728C82.5674 12.752 82.8394 13.944 82.8394 15.304C82.8394 16.664 82.5674 17.872 82.0234 18.928C81.4954 19.968 80.7674 20.776 79.8394 21.352C78.9274 21.928 77.9034 22.216 76.7674 22.216C75.7754 22.216 74.9034 22.024 74.1514 21.64C73.4154 21.24 72.8234 20.728 72.3754 20.104V22H69.0154V4.24H72.3754V10.648ZM79.4074 15.304C79.4074 14.504 79.2394 13.816 78.9034 13.24C78.5834 12.648 78.1514 12.2 77.6074 11.896C77.0794 11.592 76.5034 11.44 75.8794 11.44C75.2714 11.44 74.6954 11.6 74.1514 11.92C73.6234 12.224 73.1914 12.672 72.8554 13.264C72.5354 13.856 72.3754 14.552 72.3754 15.352C72.3754 16.152 72.5354 16.848 72.8554 17.44C73.1914 18.032 73.6234 18.488 74.1514 18.808C74.6954 19.112 75.2714 19.264 75.8794 19.264C76.5034 19.264 77.0794 19.104 77.6074 18.784C78.1514 18.464 78.5834 18.008 78.9034 17.416C79.2394 16.824 79.4074 16.12 79.4074 15.304ZM86.985 7.12C86.393 7.12 85.897 6.936 85.497 6.568C85.113 6.184 84.921 5.712 84.921 5.152C84.921 4.592 85.113 4.128 85.497 3.76C85.897 3.376 86.393 3.184 86.985 3.184C87.577 3.184 88.065 3.376 88.449 3.76C88.849 4.128 89.049 4.592 89.049 5.152C89.049 5.712 88.849 6.184 88.449 6.568C88.065 6.936 87.577 7.12 86.985 7.12ZM88.641 8.704V22H85.281V8.704H88.641ZM101.039 10.648C101.471 10.008 102.063 9.488 102.815 9.088C103.583 8.688 104.455 8.488 105.431 8.488C106.567 8.488 107.591 8.768 108.503 9.328C109.431 9.888 110.159 10.688 110.687 11.728C111.231 12.752 111.503 13.944 111.503 15.304C111.503 16.664 111.231 17.872 110.687 18.928C110.159 19.968 109.431 20.776 108.503 21.352C107.591 21.928 106.567 22.216 105.431 22.216C104.439 22.216 103.567 22.024 102.815 21.64C102.079 21.24 101.487 20.728 101.039 20.104V22H97.6794V4.24H101.039V10.648ZM108.071 15.304C108.071 14.504 107.903 13.816 107.567 13.24C107.247 12.648 106.815 12.2 106.271 11.896C105.743 11.592 105.167 11.44 104.543 11.44C103.935 11.44 103.359 11.6 102.815 11.92C102.287 12.224 101.855 12.672 101.519 13.264C101.199 13.856 101.039 14.552 101.039 15.352C101.039 16.152 101.199 16.848 101.519 17.44C101.855 18.032 102.287 18.488 102.815 18.808C103.359 19.112 103.935 19.264 104.543 19.264C105.167 19.264 105.743 19.104 106.271 18.784C106.815 18.464 107.247 18.008 107.567 17.416C107.903 16.824 108.071 16.12 108.071 15.304ZM124.217 18.808H117.545L116.441 22H112.913L118.937 5.224H122.849L128.873 22H125.321L124.217 18.808ZM123.305 16.12L120.881 9.112L118.457 16.12H123.305ZM141.397 18.808H134.725L133.621 22H130.093L136.117 5.224H140.029L146.053 22H142.501L141.397 18.808ZM140.485 16.12L138.061 9.112L135.637 16.12H140.485ZM155.672 8.512C157.256 8.512 158.536 9.016 159.512 10.024C160.488 11.016 160.976 12.408 160.976 14.2V22H157.616V14.656C157.616 13.6 157.352 12.792 156.824 12.232C156.296 11.656 155.576 11.368 154.664 11.368C153.736 11.368 153 11.656 152.456 12.232C151.928 12.792 151.664 13.6 151.664 14.656V22H148.304V8.704H151.664V10.36C152.112 9.784 152.68 9.336 153.368 9.016C154.072 8.68 154.84 8.512 155.672 8.512ZM172.044 22L167.532 16.336V22H164.172V4.24H167.532V14.344L171.996 8.704H176.364L170.508 15.376L176.412 22H172.044Z" fill="#282460"/>
<path d="M27.2079 34.4411V36.1461H29.0666V36.6949H27.2079V38.4512H29.2861V39H26.542V33.8923H29.2861V34.4411H27.2079ZM35.4307 37.8658H33.2061L32.7964 39H32.0939L33.9379 33.9289H34.7063L36.543 39H35.8405L35.4307 37.8658ZM35.2405 37.3243L34.3184 34.7484L33.3964 37.3243H35.2405ZM41.086 39.0512C40.7494 39.0512 40.4469 38.9927 40.1786 38.8756C39.9152 38.7536 39.7078 38.5878 39.5566 38.378C39.4054 38.1633 39.3273 37.917 39.3224 37.6389H40.0323C40.0566 37.878 40.1542 38.0804 40.325 38.2463C40.5006 38.4073 40.7543 38.4878 41.086 38.4878C41.4031 38.4878 41.6519 38.4097 41.8324 38.2536C42.0178 38.0926 42.1105 37.8877 42.1105 37.6389C42.1105 37.4438 42.0568 37.2852 41.9495 37.1633C41.8421 37.0413 41.708 36.9486 41.547 36.8852C41.386 36.8218 41.1689 36.7535 40.8957 36.6803C40.5591 36.5925 40.2884 36.5047 40.0835 36.4169C39.8835 36.3291 39.7103 36.1925 39.5639 36.0071C39.4224 35.8168 39.3517 35.5631 39.3517 35.246C39.3517 34.968 39.4224 34.7216 39.5639 34.507C39.7054 34.2923 39.903 34.1264 40.1567 34.0094C40.4152 33.8923 40.7104 33.8337 41.0421 33.8337C41.5202 33.8337 41.9104 33.9533 42.2129 34.1923C42.5203 34.4313 42.6934 34.7484 42.7325 35.1436H42.0007C41.9763 34.9485 41.8739 34.7777 41.6934 34.6314C41.5129 34.4801 41.2738 34.4045 40.9762 34.4045C40.6982 34.4045 40.4713 34.4777 40.2957 34.624C40.1201 34.7655 40.0323 34.9655 40.0323 35.2241C40.0323 35.4095 40.0835 35.5607 40.1859 35.6778C40.2932 35.7949 40.4225 35.8851 40.5738 35.9485C40.7299 36.0071 40.947 36.0754 41.225 36.1534C41.5616 36.2461 41.8324 36.3388 42.0373 36.4315C42.2422 36.5193 42.4178 36.6584 42.5642 36.8486C42.7105 37.034 42.7837 37.2877 42.7837 37.6096C42.7837 37.8584 42.7178 38.0926 42.5861 38.3121C42.4544 38.5317 42.2593 38.7097 42.0007 38.8463C41.7421 38.9829 41.4372 39.0512 41.086 39.0512ZM49.4568 33.8996L47.7956 37.0755V39H47.1297V37.0755L45.4613 33.8996H46.2004L47.459 36.4827L48.7177 33.8996H49.4568ZM60.2692 39L59.6033 38.3268C59.3545 38.5853 59.0886 38.778 58.8057 38.9049C58.5227 39.0268 58.2032 39.0878 57.8471 39.0878C57.4958 39.0878 57.1836 39.0244 56.9104 38.8976C56.6421 38.7707 56.4323 38.5902 56.2811 38.356C56.1347 38.1219 56.0616 37.8487 56.0616 37.5365C56.0616 37.1803 56.1616 36.8681 56.3616 36.5998C56.5665 36.3266 56.8665 36.112 57.2617 35.9559C57.1055 35.7705 56.9933 35.5997 56.925 35.4436C56.8567 35.2875 56.8226 35.1168 56.8226 34.9314C56.8226 34.7167 56.8763 34.524 56.9836 34.3533C57.0958 34.1777 57.2543 34.0411 57.4592 33.9435C57.6641 33.8459 57.9007 33.7972 58.169 33.7972C58.4325 33.7972 58.6618 33.8484 58.8569 33.9508C59.052 34.0533 59.1984 34.1972 59.296 34.3826C59.3935 34.5631 59.4374 34.7655 59.4277 34.9899H58.7618C58.7666 34.7899 58.7105 34.6338 58.5935 34.5216C58.4764 34.4045 58.3251 34.346 58.1398 34.346C57.9446 34.346 57.7861 34.4021 57.6641 34.5143C57.547 34.6216 57.4885 34.7606 57.4885 34.9314C57.4885 35.0777 57.5275 35.2192 57.6056 35.3558C57.6885 35.4924 57.8251 35.6607 58.0154 35.8607L59.5374 37.3901L59.6692 37.1852L60.1668 36.351H60.8839L60.2838 37.3901C60.2009 37.5365 60.1033 37.6901 59.9911 37.8511L61.14 39H60.2692ZM57.8471 38.517C58.1105 38.517 58.3471 38.4658 58.5569 38.3634C58.7715 38.2609 58.974 38.1024 59.1642 37.8877L57.6641 36.3803C57.0397 36.6193 56.7275 36.9974 56.7275 37.5145C56.7275 37.8023 56.8299 38.0414 57.0348 38.2316C57.2446 38.4219 57.5153 38.517 57.8471 38.517ZM70.9739 37.8658H68.7493L68.3395 39H67.637L69.4811 33.9289H70.2494L72.0862 39H71.3837L70.9739 37.8658ZM70.7836 37.3243L69.8616 34.7484L68.9396 37.3243H70.7836ZM77.8951 33.8996V34.4411H75.6779V36.1608H77.478V36.7023H75.6779V39H75.012V33.8996H77.8951ZM83.7047 33.8996V34.4411H81.4874V36.1608H83.2875V36.7023H81.4874V39H80.8215V33.8996H83.7047ZM88.9434 39.0512C88.4702 39.0512 88.0385 38.9415 87.6482 38.7219C87.2579 38.4975 86.9481 38.1877 86.7188 37.7926C86.4944 37.3926 86.3822 36.9437 86.3822 36.4461C86.3822 35.9485 86.4944 35.5022 86.7188 35.107C86.9481 34.707 87.2579 34.3972 87.6482 34.1777C88.0385 33.9533 88.4702 33.8411 88.9434 33.8411C89.4215 33.8411 89.8557 33.9533 90.2459 34.1777C90.6362 34.3972 90.9436 34.7045 91.168 35.0997C91.3924 35.4948 91.5046 35.9437 91.5046 36.4461C91.5046 36.9486 91.3924 37.3974 91.168 37.7926C90.9436 38.1877 90.6362 38.4975 90.2459 38.7219C89.8557 38.9415 89.4215 39.0512 88.9434 39.0512ZM88.9434 38.4731C89.2995 38.4731 89.6191 38.3902 89.902 38.2243C90.1898 38.0585 90.4142 37.8219 90.5752 37.5145C90.7411 37.2072 90.824 36.8511 90.824 36.4461C90.824 36.0364 90.7411 35.6802 90.5752 35.3778C90.4142 35.0704 90.1923 34.8338 89.9093 34.668C89.6264 34.5021 89.3044 34.4192 88.9434 34.4192C88.5824 34.4192 88.2604 34.5021 87.9775 34.668C87.6945 34.8338 87.4701 35.0704 87.3042 35.3778C87.1433 35.6802 87.0628 36.0364 87.0628 36.4461C87.0628 36.8511 87.1433 37.2072 87.3042 37.5145C87.4701 37.8219 87.6945 38.0585 87.9775 38.2243C88.2653 38.3902 88.5873 38.4731 88.9434 38.4731ZM97.1914 39L95.9766 36.9145H95.1717V39H94.5058V33.8996H96.1523C96.5377 33.8996 96.8621 33.9655 97.1255 34.0972C97.3938 34.2289 97.5938 34.407 97.7256 34.6314C97.8573 34.8558 97.9231 35.1119 97.9231 35.3997C97.9231 35.751 97.8207 36.0607 97.6158 36.3291C97.4158 36.5974 97.1133 36.7754 96.7084 36.8632L97.989 39H97.1914ZM95.1717 36.3803H96.1523C96.5133 36.3803 96.784 36.2925 96.9645 36.1168C97.145 35.9363 97.2353 35.6973 97.2353 35.3997C97.2353 35.0973 97.145 34.8631 96.9645 34.6972C96.7889 34.5314 96.5181 34.4484 96.1523 34.4484H95.1717V36.3803ZM102.668 33.8996C103.224 33.8996 103.705 34.0045 104.109 34.2143C104.519 34.4192 104.831 34.7143 105.046 35.0997C105.266 35.4851 105.375 35.9388 105.375 36.4608C105.375 36.9828 105.266 37.4365 105.046 37.8219C104.831 38.2024 104.519 38.4951 104.109 38.7C103.705 38.9 103.224 39 102.668 39H101.08V33.8996H102.668ZM102.668 38.4512C103.326 38.4512 103.829 38.278 104.175 37.9316C104.522 37.5804 104.695 37.0901 104.695 36.4608C104.695 35.8266 104.519 35.3314 104.168 34.9753C103.822 34.6192 103.322 34.4411 102.668 34.4411H101.746V38.4512H102.668ZM111.391 37.8658H109.166L108.756 39H108.054L109.898 33.9289H110.666L112.503 39H111.801L111.391 37.8658ZM111.2 37.3243L110.278 34.7484L109.356 37.3243H111.2ZM117.983 36.373C118.168 36.4022 118.336 36.4779 118.488 36.5998C118.644 36.7218 118.766 36.873 118.853 37.0535C118.946 37.234 118.993 37.4267 118.993 37.6316C118.993 37.8902 118.927 38.1243 118.795 38.3341C118.663 38.539 118.471 38.7024 118.217 38.8244C117.968 38.9415 117.673 39 117.331 39H115.429V33.8996H117.258C117.605 33.8996 117.9 33.9581 118.144 34.0752C118.388 34.1874 118.571 34.3411 118.692 34.5362C118.814 34.7314 118.875 34.9509 118.875 35.1948C118.875 35.4973 118.793 35.7485 118.627 35.9485C118.466 36.1437 118.251 36.2852 117.983 36.373ZM116.095 36.1022H117.214C117.527 36.1022 117.768 36.029 117.939 35.8827C118.11 35.7363 118.195 35.5339 118.195 35.2753C118.195 35.0168 118.11 34.8143 117.939 34.668C117.768 34.5216 117.522 34.4484 117.2 34.4484H116.095V36.1022ZM117.273 38.4512C117.605 38.4512 117.863 38.3731 118.049 38.217C118.234 38.0609 118.327 37.8438 118.327 37.5657C118.327 37.2828 118.229 37.0608 118.034 36.8998C117.839 36.734 117.578 36.651 117.251 36.651H116.095V38.4512H117.273ZM122.705 38.4585H124.49V39H122.039V33.8996H122.705V38.4585ZM127.985 34.4411V36.1461H129.844V36.6949H127.985V38.4512H130.064V39H127.319V33.8923H130.064V34.4411H127.985ZM139.82 36.373C140.006 36.4022 140.174 36.4779 140.325 36.5998C140.481 36.7218 140.603 36.873 140.691 37.0535C140.784 37.234 140.83 37.4267 140.83 37.6316C140.83 37.8902 140.764 38.1243 140.632 38.3341C140.501 38.539 140.308 38.7024 140.054 38.8244C139.806 38.9415 139.51 39 139.169 39H137.266V33.8996H139.096C139.442 33.8996 139.737 33.9581 139.981 34.0752C140.225 34.1874 140.408 34.3411 140.53 34.5362C140.652 34.7314 140.713 34.9509 140.713 35.1948C140.713 35.4973 140.63 35.7485 140.464 35.9485C140.303 36.1437 140.088 36.2852 139.82 36.373ZM137.932 36.1022H139.052C139.364 36.1022 139.605 36.029 139.776 35.8827C139.947 35.7363 140.032 35.5339 140.032 35.2753C140.032 35.0168 139.947 34.8143 139.776 34.668C139.605 34.5216 139.359 34.4484 139.037 34.4484H137.932V36.1022ZM139.11 38.4512C139.442 38.4512 139.701 38.3731 139.886 38.217C140.071 38.0609 140.164 37.8438 140.164 37.5657C140.164 37.2828 140.067 37.0608 139.871 36.8998C139.676 36.734 139.415 36.651 139.088 36.651H137.932V38.4512H139.11ZM146.891 37.8658H144.666L144.257 39H143.554L145.398 33.9289H146.167L148.003 39H147.301L146.891 37.8658ZM146.701 37.3243L145.779 34.7484L144.857 37.3243H146.701ZM154.939 39H154.273L151.595 34.9387V39H150.929V33.8923H151.595L154.273 37.9463V33.8923H154.939V39ZM160.963 39L158.862 36.673V39H158.196V33.8996H158.862V36.2632L160.97 33.8996H161.811L159.499 36.4535L161.833 39H160.963ZM165.365 33.8996V39H164.699V33.8996H165.365ZM172.632 39H171.966L169.288 34.9387V39H168.622V33.8923H169.288L171.966 37.9463V33.8923H172.632V39ZM179.753 35.3778C179.612 35.0802 179.407 34.8509 179.138 34.6899C178.87 34.524 178.558 34.4411 178.202 34.4411C177.846 34.4411 177.524 34.524 177.236 34.6899C176.953 34.8509 176.729 35.0851 176.563 35.3924C176.402 35.6949 176.321 36.0461 176.321 36.4461C176.321 36.8462 176.402 37.1974 176.563 37.4999C176.729 37.8023 176.953 38.0365 177.236 38.2024C177.524 38.3634 177.846 38.4439 178.202 38.4439C178.699 38.4439 179.109 38.2951 179.431 37.9975C179.753 37.6999 179.941 37.2974 179.995 36.7901H177.96V36.2486H180.704V36.7608C180.665 37.1803 180.534 37.5657 180.309 37.917C180.085 38.2634 179.79 38.539 179.424 38.7439C179.058 38.9439 178.651 39.0439 178.202 39.0439C177.729 39.0439 177.297 38.9341 176.907 38.7146C176.516 38.4902 176.207 38.1804 175.977 37.7853C175.753 37.3901 175.641 36.9437 175.641 36.4461C175.641 35.9485 175.753 35.5022 175.977 35.107C176.207 34.707 176.516 34.3972 176.907 34.1777C177.297 33.9533 177.729 33.8411 178.202 33.8411C178.743 33.8411 179.221 33.9752 179.636 34.2435C180.056 34.5118 180.361 34.8899 180.551 35.3778H179.753Z" fill="#EF3E37"/>
</svg>
