<svg width="18" height="16" viewBox="0 0 18 16" fill="none" xmlns="http://www.w3.org/2000/svg">
<path d="M17.7509 8.29491L11.7506 14.9619C11.2148 15.5572 10.2862 15.1405 10.2862 14.2873V10.4776H5.42884C4.95382 10.4776 4.57166 10.0529 4.57166 9.52513V5.71541C4.57166 5.18761 4.95382 4.76299 5.42884 4.76299H10.2862V0.953272C10.2862 0.104024 11.2113 -0.316632 11.7506 0.278636L17.7509 6.94563C18.083 7.31867 18.083 7.92187 17.7509 8.29491ZM6.85748 14.7635V13.1761C6.85748 12.9142 6.66462 12.6999 6.42889 12.6999H3.42874C2.79657 12.6999 2.28583 12.1324 2.28583 11.43V3.81056C2.28583 3.10814 2.79657 2.54065 3.42874 2.54065H6.42889C6.66462 2.54065 6.85748 2.32636 6.85748 2.06444V0.477058C6.85748 0.21514 6.66462 0.000844033 6.42889 0.000844033H3.42874C1.53579 0.000844033 0 1.70728 0 3.81056V11.43C0 13.5333 1.53579 15.2397 3.42874 15.2397H6.42889C6.66462 15.2397 6.85748 15.0254 6.85748 14.7635Z" fill="#1E4552"/>
</svg>
