<svg width="175" height="40" viewBox="0 0 175 40" fill="none" xmlns="http://www.w3.org/2000/svg">
<path d="M28.8946 9.13C28.8946 10.4367 28.5796 11.6617 27.9496 12.805C27.3429 13.9483 26.3746 14.87 25.0446 15.57C23.7379 16.27 22.0812 16.62 20.0746 16.62H15.9796V26H11.0796V1.57H20.0746C21.9646 1.57 23.5746 1.89667 24.9046 2.55C26.2346 3.20333 27.2262 4.10167 27.8796 5.245C28.5562 6.38833 28.8946 7.68333 28.8946 9.13ZM19.8646 12.665C21.2179 12.665 22.2212 12.3617 22.8746 11.755C23.5279 11.125 23.8546 10.25 23.8546 9.13C23.8546 6.75 22.5246 5.56 19.8646 5.56H15.9796V12.665H19.8646ZM47.3535 21.345H37.6235L36.0135 26H30.8685L39.6535 1.535H45.3585L54.1435 26H48.9635L47.3535 21.345ZM46.0235 17.425L42.4885 7.205L38.9535 17.425H46.0235ZM76.8522 1.57L68.5922 17.495V26H63.6922V17.495L55.3972 1.57H60.9272L66.1772 12.735L71.3922 1.57H76.8522ZM100.573 26H95.6732L84.5782 9.235V26H79.6782V1.535H84.5782L95.6732 18.335V1.535H100.573V26ZM116.755 26.245C114.469 26.245 112.369 25.7083 110.455 24.635C108.542 23.5617 107.025 22.08 105.905 20.19C104.785 18.2767 104.225 16.1183 104.225 13.715C104.225 11.335 104.785 9.2 105.905 7.31C107.025 5.39666 108.542 3.90333 110.455 2.83C112.369 1.75667 114.469 1.22 116.755 1.22C119.065 1.22 121.165 1.75667 123.055 2.83C124.969 3.90333 126.474 5.39666 127.57 7.31C128.69 9.2 129.25 11.335 129.25 13.715C129.25 16.1183 128.69 18.2767 127.57 20.19C126.474 22.08 124.969 23.5617 123.055 24.635C121.142 25.7083 119.042 26.245 116.755 26.245ZM116.755 21.87C118.225 21.87 119.52 21.5433 120.64 20.89C121.76 20.2133 122.635 19.2567 123.265 18.02C123.895 16.7833 124.21 15.3483 124.21 13.715C124.21 12.0817 123.895 10.6583 123.265 9.445C122.635 8.20833 121.76 7.26333 120.64 6.61C119.52 5.95667 118.225 5.63 116.755 5.63C115.285 5.63 113.979 5.95667 112.835 6.61C111.715 7.26333 110.84 8.20833 110.21 9.445C109.58 10.6583 109.265 12.0817 109.265 13.715C109.265 15.3483 109.58 16.7833 110.21 18.02C110.84 19.2567 111.715 20.2133 112.835 20.89C113.979 21.5433 115.285 21.87 116.755 21.87ZM165.551 1.57L158.726 26H152.951L148.366 8.605L143.571 26L137.831 26.035L131.251 1.57H136.501L140.806 20.54L145.776 1.57H151.236L155.926 20.435L160.266 1.57H165.551Z" fill="#282460"/>
<path d="M11.2079 34.4411V36.1461H13.0666V36.6949H11.2079V38.4512H13.2861V39H10.542V33.8923H13.2861V34.4411H11.2079ZM19.4307 37.8658H17.2061L16.7964 39H16.0939L17.9379 33.9289H18.7063L20.543 39H19.8405L19.4307 37.8658ZM19.2405 37.3243L18.3184 34.7484L17.3964 37.3243H19.2405ZM25.086 39.0512C24.7494 39.0512 24.4469 38.9927 24.1786 38.8756C23.9152 38.7536 23.7078 38.5878 23.5566 38.378C23.4054 38.1633 23.3273 37.917 23.3224 37.6389H24.0323C24.0566 37.878 24.1542 38.0804 24.325 38.2463C24.5006 38.4073 24.7543 38.4878 25.086 38.4878C25.4031 38.4878 25.6519 38.4097 25.8324 38.2536C26.0178 38.0926 26.1105 37.8877 26.1105 37.6389C26.1105 37.4438 26.0568 37.2852 25.9495 37.1633C25.8421 37.0413 25.708 36.9486 25.547 36.8852C25.386 36.8218 25.1689 36.7535 24.8957 36.6803C24.5591 36.5925 24.2884 36.5047 24.0835 36.4169C23.8835 36.3291 23.7103 36.1925 23.5639 36.0071C23.4224 35.8168 23.3517 35.5631 23.3517 35.246C23.3517 34.968 23.4224 34.7216 23.5639 34.507C23.7054 34.2923 23.903 34.1264 24.1567 34.0094C24.4152 33.8923 24.7104 33.8337 25.0421 33.8337C25.5202 33.8337 25.9104 33.9533 26.2129 34.1923C26.5203 34.4313 26.6934 34.7484 26.7325 35.1436H26.0007C25.9763 34.9485 25.8739 34.7777 25.6934 34.6314C25.5129 34.4801 25.2738 34.4045 24.9762 34.4045C24.6982 34.4045 24.4713 34.4777 24.2957 34.624C24.1201 34.7655 24.0323 34.9655 24.0323 35.2241C24.0323 35.4095 24.0835 35.5607 24.1859 35.6778C24.2932 35.7949 24.4225 35.8851 24.5738 35.9485C24.7299 36.0071 24.947 36.0754 25.225 36.1534C25.5616 36.2461 25.8324 36.3388 26.0373 36.4315C26.2422 36.5193 26.4178 36.6584 26.5642 36.8486C26.7105 37.034 26.7837 37.2877 26.7837 37.6096C26.7837 37.8584 26.7178 38.0926 26.5861 38.3121C26.4544 38.5317 26.2593 38.7097 26.0007 38.8463C25.7421 38.9829 25.4372 39.0512 25.086 39.0512ZM33.4568 33.8996L31.7956 37.0755V39H31.1297V37.0755L29.4613 33.8996H30.2004L31.459 36.4827L32.7177 33.8996H33.4568ZM44.2692 39L43.6033 38.3268C43.3545 38.5853 43.0886 38.778 42.8057 38.9049C42.5227 39.0268 42.2032 39.0878 41.8471 39.0878C41.4958 39.0878 41.1836 39.0244 40.9104 38.8976C40.6421 38.7707 40.4323 38.5902 40.2811 38.356C40.1347 38.1219 40.0616 37.8487 40.0616 37.5365C40.0616 37.1803 40.1616 36.8681 40.3616 36.5998C40.5665 36.3266 40.8665 36.112 41.2617 35.9559C41.1055 35.7705 40.9933 35.5997 40.925 35.4436C40.8567 35.2875 40.8226 35.1168 40.8226 34.9314C40.8226 34.7167 40.8763 34.524 40.9836 34.3533C41.0958 34.1777 41.2543 34.0411 41.4592 33.9435C41.6641 33.8459 41.9007 33.7972 42.169 33.7972C42.4325 33.7972 42.6618 33.8484 42.8569 33.9508C43.052 34.0533 43.1984 34.1972 43.296 34.3826C43.3935 34.5631 43.4374 34.7655 43.4277 34.9899H42.7618C42.7666 34.7899 42.7105 34.6338 42.5935 34.5216C42.4764 34.4045 42.3251 34.346 42.1398 34.346C41.9446 34.346 41.7861 34.4021 41.6641 34.5143C41.547 34.6216 41.4885 34.7606 41.4885 34.9314C41.4885 35.0777 41.5275 35.2192 41.6056 35.3558C41.6885 35.4924 41.8251 35.6607 42.0154 35.8607L43.5374 37.3901L43.6692 37.1852L44.1668 36.351H44.8839L44.2838 37.3901C44.2009 37.5365 44.1033 37.6901 43.9911 37.8511L45.14 39H44.2692ZM41.8471 38.517C42.1105 38.517 42.3471 38.4658 42.5569 38.3634C42.7715 38.2609 42.974 38.1024 43.1642 37.8877L41.6641 36.3803C41.0397 36.6193 40.7275 36.9974 40.7275 37.5145C40.7275 37.8023 40.8299 38.0414 41.0348 38.2316C41.2446 38.4219 41.5153 38.517 41.8471 38.517ZM54.9739 37.8658H52.7493L52.3395 39H51.637L53.4811 33.9289H54.2494L56.0862 39H55.3837L54.9739 37.8658ZM54.7836 37.3243L53.8616 34.7484L52.9396 37.3243H54.7836ZM61.8951 33.8996V34.4411H59.6779V36.1608H61.478V36.7023H59.6779V39H59.012V33.8996H61.8951ZM67.7047 33.8996V34.4411H65.4874V36.1608H67.2875V36.7023H65.4874V39H64.8215V33.8996H67.7047ZM72.9434 39.0512C72.4702 39.0512 72.0385 38.9415 71.6482 38.7219C71.2579 38.4975 70.9481 38.1877 70.7188 37.7926C70.4944 37.3926 70.3822 36.9437 70.3822 36.4461C70.3822 35.9485 70.4944 35.5022 70.7188 35.107C70.9481 34.707 71.2579 34.3972 71.6482 34.1777C72.0385 33.9533 72.4702 33.8411 72.9434 33.8411C73.4215 33.8411 73.8557 33.9533 74.2459 34.1777C74.6362 34.3972 74.9436 34.7045 75.168 35.0997C75.3924 35.4948 75.5046 35.9437 75.5046 36.4461C75.5046 36.9486 75.3924 37.3974 75.168 37.7926C74.9436 38.1877 74.6362 38.4975 74.2459 38.7219C73.8557 38.9415 73.4215 39.0512 72.9434 39.0512ZM72.9434 38.4731C73.2995 38.4731 73.6191 38.3902 73.902 38.2243C74.1898 38.0585 74.4142 37.8219 74.5752 37.5145C74.7411 37.2072 74.824 36.8511 74.824 36.4461C74.824 36.0364 74.7411 35.6802 74.5752 35.3778C74.4142 35.0704 74.1923 34.8338 73.9093 34.668C73.6264 34.5021 73.3044 34.4192 72.9434 34.4192C72.5824 34.4192 72.2604 34.5021 71.9775 34.668C71.6945 34.8338 71.4701 35.0704 71.3042 35.3778C71.1433 35.6802 71.0628 36.0364 71.0628 36.4461C71.0628 36.8511 71.1433 37.2072 71.3042 37.5145C71.4701 37.8219 71.6945 38.0585 71.9775 38.2243C72.2653 38.3902 72.5873 38.4731 72.9434 38.4731ZM81.1914 39L79.9766 36.9145H79.1717V39H78.5058V33.8996H80.1523C80.5377 33.8996 80.8621 33.9655 81.1255 34.0972C81.3938 34.2289 81.5938 34.407 81.7256 34.6314C81.8573 34.8558 81.9231 35.1119 81.9231 35.3997C81.9231 35.751 81.8207 36.0607 81.6158 36.3291C81.4158 36.5974 81.1133 36.7754 80.7084 36.8632L81.989 39H81.1914ZM79.1717 36.3803H80.1523C80.5133 36.3803 80.784 36.2925 80.9645 36.1168C81.145 35.9363 81.2353 35.6973 81.2353 35.3997C81.2353 35.0973 81.145 34.8631 80.9645 34.6972C80.7889 34.5314 80.5181 34.4484 80.1523 34.4484H79.1717V36.3803ZM86.6679 33.8996C87.224 33.8996 87.7045 34.0045 88.1095 34.2143C88.5192 34.4192 88.8315 34.7143 89.0461 35.0997C89.2656 35.4851 89.3754 35.9388 89.3754 36.4608C89.3754 36.9828 89.2656 37.4365 89.0461 37.8219C88.8315 38.2024 88.5192 38.4951 88.1095 38.7C87.7045 38.9 87.224 39 86.6679 39H85.0799V33.8996H86.6679ZM86.6679 38.4512C87.3265 38.4512 87.8289 38.278 88.1753 37.9316C88.5217 37.5804 88.6949 37.0901 88.6949 36.4608C88.6949 35.8266 88.5192 35.3314 88.168 34.9753C87.8216 34.6192 87.3216 34.4411 86.6679 34.4411H85.7459V38.4512H86.6679ZM95.3907 37.8658H93.1662L92.7564 39H92.0539L93.8979 33.9289H94.6663L96.503 39H95.8005L95.3907 37.8658ZM95.2005 37.3243L94.2785 34.7484L93.3564 37.3243H95.2005ZM101.983 36.373C102.168 36.4022 102.336 36.4779 102.488 36.5998C102.644 36.7218 102.766 36.873 102.853 37.0535C102.946 37.234 102.993 37.4267 102.993 37.6316C102.993 37.8902 102.927 38.1243 102.795 38.3341C102.663 38.539 102.471 38.7024 102.217 38.8244C101.968 38.9415 101.673 39 101.331 39H99.4288V33.8996H101.258C101.605 33.8996 101.9 33.9581 102.144 34.0752C102.388 34.1874 102.571 34.3411 102.692 34.5362C102.814 34.7314 102.875 34.9509 102.875 35.1948C102.875 35.4973 102.793 35.7485 102.627 35.9485C102.466 36.1437 102.251 36.2852 101.983 36.373ZM100.095 36.1022H101.214C101.527 36.1022 101.768 36.029 101.939 35.8827C102.11 35.7363 102.195 35.5339 102.195 35.2753C102.195 35.0168 102.11 34.8143 101.939 34.668C101.768 34.5216 101.522 34.4484 101.2 34.4484H100.095V36.1022ZM101.273 38.4512C101.605 38.4512 101.863 38.3731 102.049 38.217C102.234 38.0609 102.327 37.8438 102.327 37.5657C102.327 37.2828 102.229 37.0608 102.034 36.8998C101.839 36.734 101.578 36.651 101.251 36.651H100.095V38.4512H101.273ZM106.705 38.4585H108.49V39H106.039V33.8996H106.705V38.4585ZM111.985 34.4411V36.1461H113.844V36.6949H111.985V38.4512H114.064V39H111.319V33.8923H114.064V34.4411H111.985ZM123.82 36.373C124.006 36.4022 124.174 36.4779 124.325 36.5998C124.481 36.7218 124.603 36.873 124.691 37.0535C124.784 37.234 124.83 37.4267 124.83 37.6316C124.83 37.8902 124.764 38.1243 124.632 38.3341C124.501 38.539 124.308 38.7024 124.054 38.8244C123.806 38.9415 123.51 39 123.169 39H121.266V33.8996H123.096C123.442 33.8996 123.737 33.9581 123.981 34.0752C124.225 34.1874 124.408 34.3411 124.53 34.5362C124.652 34.7314 124.713 34.9509 124.713 35.1948C124.713 35.4973 124.63 35.7485 124.464 35.9485C124.303 36.1437 124.088 36.2852 123.82 36.373ZM121.932 36.1022H123.052C123.364 36.1022 123.605 36.029 123.776 35.8827C123.947 35.7363 124.032 35.5339 124.032 35.2753C124.032 35.0168 123.947 34.8143 123.776 34.668C123.605 34.5216 123.359 34.4484 123.037 34.4484H121.932V36.1022ZM123.11 38.4512C123.442 38.4512 123.701 38.3731 123.886 38.217C124.071 38.0609 124.164 37.8438 124.164 37.5657C124.164 37.2828 124.067 37.0608 123.871 36.8998C123.676 36.734 123.415 36.651 123.088 36.651H121.932V38.4512H123.11ZM130.891 37.8658H128.666L128.257 39H127.554L129.398 33.9289H130.167L132.003 39H131.301L130.891 37.8658ZM130.701 37.3243L129.779 34.7484L128.857 37.3243H130.701ZM138.939 39H138.273L135.595 34.9387V39H134.929V33.8923H135.595L138.273 37.9463V33.8923H138.939V39ZM144.963 39L142.862 36.673V39H142.196V33.8996H142.862V36.2632L144.97 33.8996H145.811L143.499 36.4535L145.833 39H144.963ZM149.365 33.8996V39H148.699V33.8996H149.365ZM156.632 39H155.966L153.288 34.9387V39H152.622V33.8923H153.288L155.966 37.9463V33.8923H156.632V39ZM163.753 35.3778C163.612 35.0802 163.407 34.8509 163.138 34.6899C162.87 34.524 162.558 34.4411 162.202 34.4411C161.846 34.4411 161.524 34.524 161.236 34.6899C160.953 34.8509 160.729 35.0851 160.563 35.3924C160.402 35.6949 160.321 36.0461 160.321 36.4461C160.321 36.8462 160.402 37.1974 160.563 37.4999C160.729 37.8023 160.953 38.0365 161.236 38.2024C161.524 38.3634 161.846 38.4439 162.202 38.4439C162.699 38.4439 163.109 38.2951 163.431 37.9975C163.753 37.6999 163.941 37.2974 163.995 36.7901H161.96V36.2486H164.704V36.7608C164.665 37.1803 164.534 37.5657 164.309 37.917C164.085 38.2634 163.79 38.539 163.424 38.7439C163.058 38.9439 162.651 39.0439 162.202 39.0439C161.729 39.0439 161.297 38.9341 160.907 38.7146C160.516 38.4902 160.207 38.1804 159.977 37.7853C159.753 37.3901 159.641 36.9437 159.641 36.4461C159.641 35.9485 159.753 35.5022 159.977 35.107C160.207 34.707 160.516 34.3972 160.907 34.1777C161.297 33.9533 161.729 33.8411 162.202 33.8411C162.743 33.8411 163.221 33.9752 163.636 34.2435C164.056 34.5118 164.361 34.8899 164.551 35.3778H163.753Z" fill="#EF3E37"/>
<path fill-rule="evenodd" clip-rule="evenodd" d="M123 14V13C123 9.68629 120.314 7 117 7C113.686 7 111 9.68629 111 13V14C111 17.3137 113.686 20 117 20C120.314 20 123 17.3137 123 14ZM117 0C109.82 0 104 5.8203 104 13V14C104 21.1797 109.82 27 117 27C124.18 27 130 21.1797 130 14V13C130 5.8203 124.18 0 117 0Z" fill="#EE0000"/>
<path fill-rule="evenodd" clip-rule="evenodd" d="M110 12.5C110 16.6421 113.358 20 117.5 20C121.642 20 125 16.6421 125 12.5C125 8.35786 121.642 5 117.5 5C113.358 5 110 8.35786 110 12.5ZM117.5 4C112.806 4 109 7.80558 109 12.5C109 17.1944 112.806 21 117.5 21C122.194 21 126 17.1944 126 12.5C126 7.80558 122.194 4 117.5 4Z" fill="white"/>
</svg>
