<svg width="318" height="44" viewBox="0 0 318 44" fill="none" xmlns="http://www.w3.org/2000/svg">
<path d="M97.0369 5.21186V24.7559H93.1169V12.0439L87.8809 24.7559H84.9129L79.6489 12.0439V24.7559H75.7289V5.21186H80.1809L86.3969 19.7439L92.6129 5.21186H97.0369ZM107.8 25.0079C106.307 25.0079 104.963 24.6812 103.768 24.0279C102.574 23.3559 101.631 22.4132 100.94 21.1999C100.268 19.9865 99.9325 18.5865 99.9325 16.9999C99.9325 15.4132 100.278 14.0132 100.968 12.7999C101.678 11.5865 102.639 10.6532 103.852 9.99986C105.066 9.32786 106.419 8.99186 107.912 8.99186C109.406 8.99186 110.759 9.32786 111.972 9.99986C113.186 10.6532 114.138 11.5865 114.828 12.7999C115.538 14.0132 115.892 15.4132 115.892 16.9999C115.892 18.5865 115.528 19.9865 114.8 21.1999C114.091 22.4132 113.12 23.3559 111.888 24.0279C110.675 24.6812 109.312 25.0079 107.8 25.0079ZM107.8 21.5919C108.51 21.5919 109.172 21.4239 109.788 21.0879C110.423 20.7332 110.927 20.2105 111.3 19.5199C111.674 18.8292 111.86 17.9892 111.86 16.9999C111.86 15.5252 111.468 14.3959 110.684 13.6119C109.919 12.8092 108.976 12.4079 107.856 12.4079C106.736 12.4079 105.794 12.8092 105.028 13.6119C104.282 14.3959 103.908 15.5252 103.908 16.9999C103.908 18.4745 104.272 19.6132 105 20.4159C105.747 21.1999 106.68 21.5919 107.8 21.5919ZM122.688 11.5119C123.192 10.7652 123.883 10.1585 124.76 9.69186C125.656 9.22519 126.673 8.99186 127.812 8.99186C129.137 8.99186 130.332 9.31853 131.396 9.97186C132.479 10.6252 133.328 11.5585 133.944 12.7719C134.579 13.9665 134.896 15.3572 134.896 16.9439C134.896 18.5305 134.579 19.9399 133.944 21.1719C133.328 22.3852 132.479 23.3279 131.396 23.9999C130.332 24.6719 129.137 25.0079 127.812 25.0079C126.655 25.0079 125.637 24.7839 124.76 24.3359C123.901 23.8692 123.211 23.2719 122.688 22.5439V24.7559H118.768V4.03586H122.688V11.5119ZM130.892 16.9439C130.892 16.0105 130.696 15.2079 130.304 14.5359C129.931 13.8452 129.427 13.3225 128.792 12.9679C128.176 12.6132 127.504 12.4359 126.776 12.4359C126.067 12.4359 125.395 12.6225 124.76 12.9959C124.144 13.3505 123.64 13.8732 123.248 14.5639C122.875 15.2545 122.688 16.0665 122.688 16.9999C122.688 17.9332 122.875 18.7452 123.248 19.4359C123.64 20.1265 124.144 20.6585 124.76 21.0319C125.395 21.3865 126.067 21.5639 126.776 21.5639C127.504 21.5639 128.176 21.3772 128.792 21.0039C129.427 20.6305 129.931 20.0985 130.304 19.4079C130.696 18.7172 130.892 17.8959 130.892 16.9439ZM139.733 7.39586C139.042 7.39586 138.463 7.18119 137.997 6.75186C137.549 6.30386 137.325 5.75319 137.325 5.09986C137.325 4.44652 137.549 3.90519 137.997 3.47586C138.463 3.02786 139.042 2.80386 139.733 2.80386C140.423 2.80386 140.993 3.02786 141.441 3.47586C141.907 3.90519 142.141 4.44652 142.141 5.09986C142.141 5.75319 141.907 6.30386 141.441 6.75186C140.993 7.18119 140.423 7.39586 139.733 7.39586ZM141.665 9.24386V24.7559H137.745V9.24386H141.665ZM156.129 11.5119C156.633 10.7652 157.324 10.1585 158.201 9.69186C159.097 9.22519 160.115 8.99186 161.253 8.99186C162.579 8.99186 163.773 9.31853 164.837 9.97186C165.92 10.6252 166.769 11.5585 167.385 12.7719C168.02 13.9665 168.337 15.3572 168.337 16.9439C168.337 18.5305 168.02 19.9399 167.385 21.1719C166.769 22.3852 165.92 23.3279 164.837 23.9999C163.773 24.6719 162.579 25.0079 161.253 25.0079C160.096 25.0079 159.079 24.7839 158.201 24.3359C157.343 23.8692 156.652 23.2719 156.129 22.5439V24.7559H152.209V4.03586H156.129V11.5119ZM164.333 16.9439C164.333 16.0105 164.137 15.2079 163.745 14.5359C163.372 13.8452 162.868 13.3225 162.233 12.9679C161.617 12.6132 160.945 12.4359 160.217 12.4359C159.508 12.4359 158.836 12.6225 158.201 12.9959C157.585 13.3505 157.081 13.8732 156.689 14.5639C156.316 15.2545 156.129 16.0665 156.129 16.9999C156.129 17.9332 156.316 18.7452 156.689 19.4359C157.081 20.1265 157.585 20.6585 158.201 21.0319C158.836 21.3865 159.508 21.5639 160.217 21.5639C160.945 21.5639 161.617 21.3772 162.233 21.0039C162.868 20.6305 163.372 20.0985 163.745 19.4079C164.137 18.7172 164.333 17.8959 164.333 16.9439ZM183.17 21.0319H175.386L174.098 24.7559H169.982L177.01 5.18386H181.574L188.602 24.7559H184.458L183.17 21.0319ZM182.106 17.8959L179.278 9.71986L176.45 17.8959H182.106ZM203.213 21.0319H195.429L194.141 24.7559H190.025L197.053 5.18386H201.617L208.645 24.7559H204.501L203.213 21.0319ZM202.149 17.8959L199.321 9.71986L196.493 17.8959H202.149ZM219.868 9.01986C221.716 9.01986 223.209 9.60786 224.348 10.7839C225.487 11.9412 226.056 13.5652 226.056 15.6559V24.7559H222.136V16.1879C222.136 14.9559 221.828 14.0132 221.212 13.3599C220.596 12.6879 219.756 12.3519 218.692 12.3519C217.609 12.3519 216.751 12.6879 216.116 13.3599C215.5 14.0132 215.192 14.9559 215.192 16.1879V24.7559H211.272V9.24386H215.192V11.1759C215.715 10.5039 216.377 9.98119 217.18 9.60786C218.001 9.21586 218.897 9.01986 219.868 9.01986ZM238.968 24.7559L233.704 18.1479V24.7559H229.784V4.03586H233.704V15.8239L238.912 9.24386H244.008L237.176 17.0279L244.064 24.7559H238.968Z" fill="#282460"/>
<path d="M2.68488 36.2959C2.87155 35.9692 3.14488 35.7025 3.50488 35.4959C3.86488 35.2892 4.27488 35.1859 4.73488 35.1859C5.22822 35.1859 5.67155 35.3025 6.06488 35.5359C6.45822 35.7692 6.76822 36.0992 6.99488 36.5259C7.22155 36.9459 7.33488 37.4359 7.33488 37.9959C7.33488 38.5492 7.22155 39.0425 6.99488 39.4759C6.76822 39.9092 6.45488 40.2459 6.05488 40.4859C5.66155 40.7259 5.22155 40.8459 4.73488 40.8459C4.26155 40.8459 3.84488 40.7425 3.48488 40.5359C3.13155 40.3292 2.86488 40.0659 2.68488 39.7459V40.7559H1.77488V33.3559H2.68488V36.2959ZM6.40488 37.9959C6.40488 37.5825 6.32155 37.2225 6.15488 36.9159C5.98822 36.6092 5.76155 36.3759 5.47488 36.2159C5.19488 36.0559 4.88488 35.9759 4.54488 35.9759C4.21155 35.9759 3.90155 36.0592 3.61488 36.2259C3.33488 36.3859 3.10822 36.6225 2.93488 36.9359C2.76822 37.2425 2.68488 37.5992 2.68488 38.0059C2.68488 38.4192 2.76822 38.7825 2.93488 39.0959C3.10822 39.4025 3.33488 39.6392 3.61488 39.8059C3.90155 39.9659 4.21155 40.0459 4.54488 40.0459C4.88488 40.0459 5.19488 39.9659 5.47488 39.8059C5.76155 39.6392 5.98822 39.4025 6.15488 39.0959C6.32155 38.7825 6.40488 38.4159 6.40488 37.9959ZM11.0927 37.9959C11.0927 37.4359 11.206 36.9459 11.4327 36.5259C11.6594 36.0992 11.9694 35.7692 12.3627 35.5359C12.7627 35.3025 13.206 35.1859 13.6927 35.1859C14.1727 35.1859 14.5894 35.2892 14.9427 35.4959C15.296 35.7025 15.5594 35.9625 15.7327 36.2759V35.2759H16.6527V40.7559H15.7327V39.7359C15.5527 40.0559 15.2827 40.3225 14.9227 40.5359C14.5694 40.7425 14.156 40.8459 13.6827 40.8459C13.196 40.8459 12.756 40.7259 12.3627 40.4859C11.9694 40.2459 11.6594 39.9092 11.4327 39.4759C11.206 39.0425 11.0927 38.5492 11.0927 37.9959ZM15.7327 38.0059C15.7327 37.5925 15.6494 37.2325 15.4827 36.9259C15.316 36.6192 15.0894 36.3859 14.8027 36.2259C14.5227 36.0592 14.2127 35.9759 13.8727 35.9759C13.5327 35.9759 13.2227 36.0559 12.9427 36.2159C12.6627 36.3759 12.4394 36.6092 12.2727 36.9159C12.106 37.2225 12.0227 37.5825 12.0227 37.9959C12.0227 38.4159 12.106 38.7825 12.2727 39.0959C12.4394 39.4025 12.6627 39.6392 12.9427 39.8059C13.2227 39.9659 13.5327 40.0459 13.8727 40.0459C14.2127 40.0459 14.5227 39.9659 14.8027 39.8059C15.0894 39.6392 15.316 39.4025 15.4827 39.0959C15.6494 38.7825 15.7327 38.4192 15.7327 38.0059ZM23.7605 35.1759C24.4272 35.1759 24.9672 35.3792 25.3805 35.7859C25.7938 36.1859 26.0005 36.7659 26.0005 37.5259V40.7559H25.1005V37.6559C25.1005 37.1092 24.9638 36.6925 24.6905 36.4059C24.4172 36.1125 24.0438 35.9659 23.5705 35.9659C23.0905 35.9659 22.7072 36.1159 22.4205 36.4159C22.1405 36.7159 22.0005 37.1525 22.0005 37.7259V40.7559H21.0905V35.2759H22.0005V36.0559C22.1805 35.7759 22.4238 35.5592 22.7305 35.4059C23.0438 35.2525 23.3872 35.1759 23.7605 35.1759ZM33.447 40.7559L31.297 38.3359V40.7559H30.387V33.3559H31.297V37.7059L33.407 35.2759H34.677L32.097 38.0059L34.687 40.7559H33.447ZM38.9035 34.3859C38.7301 34.3859 38.5835 34.3259 38.4635 34.2059C38.3435 34.0859 38.2835 33.9392 38.2835 33.7659C38.2835 33.5925 38.3435 33.4459 38.4635 33.3259C38.5835 33.2059 38.7301 33.1459 38.9035 33.1459C39.0701 33.1459 39.2101 33.2059 39.3235 33.3259C39.4435 33.4459 39.5035 33.5925 39.5035 33.7659C39.5035 33.9392 39.4435 34.0859 39.3235 34.2059C39.2101 34.3259 39.0701 34.3859 38.9035 34.3859ZM39.3435 35.2759V40.7559H38.4335V35.2759H39.3435ZM46.4644 35.1759C47.1311 35.1759 47.6711 35.3792 48.0844 35.7859C48.4977 36.1859 48.7044 36.7659 48.7044 37.5259V40.7559H47.8044V37.6559C47.8044 37.1092 47.6677 36.6925 47.3944 36.4059C47.1211 36.1125 46.7477 35.9659 46.2744 35.9659C45.7944 35.9659 45.4111 36.1159 45.1244 36.4159C44.8444 36.7159 44.7044 37.1525 44.7044 37.7259V40.7559H43.7944V35.2759H44.7044V36.0559C44.8844 35.7759 45.1277 35.5592 45.4344 35.4059C45.7477 35.2525 46.0911 35.1759 46.4644 35.1759ZM55.3509 35.1859C55.8242 35.1859 56.2376 35.2892 56.5909 35.4959C56.9509 35.7025 57.2176 35.9625 57.3909 36.2759V35.2759H58.3109V40.8759C58.3109 41.3759 58.2042 41.8192 57.9909 42.2059C57.7776 42.5992 57.4709 42.9059 57.0709 43.1259C56.6776 43.3459 56.2176 43.4559 55.6909 43.4559C54.9709 43.4559 54.3709 43.2859 53.8909 42.9459C53.4109 42.6059 53.1276 42.1425 53.0409 41.5559H53.9409C54.0409 41.8892 54.2476 42.1559 54.5609 42.3559C54.8742 42.5625 55.2509 42.6659 55.6909 42.6659C56.1909 42.6659 56.5976 42.5092 56.9109 42.1959C57.2309 41.8825 57.3909 41.4425 57.3909 40.8759V39.7259C57.2109 40.0459 56.9442 40.3125 56.5909 40.5259C56.2376 40.7392 55.8242 40.8459 55.3509 40.8459C54.8642 40.8459 54.4209 40.7259 54.0209 40.4859C53.6276 40.2459 53.3176 39.9092 53.0909 39.4759C52.8642 39.0425 52.7509 38.5492 52.7509 37.9959C52.7509 37.4359 52.8642 36.9459 53.0909 36.5259C53.3176 36.0992 53.6276 35.7692 54.0209 35.5359C54.4209 35.3025 54.8642 35.1859 55.3509 35.1859ZM57.3909 38.0059C57.3909 37.5925 57.3076 37.2325 57.1409 36.9259C56.9742 36.6192 56.7476 36.3859 56.4609 36.2259C56.1809 36.0592 55.8709 35.9759 55.5309 35.9759C55.1909 35.9759 54.8809 36.0559 54.6009 36.2159C54.3209 36.3759 54.0976 36.6092 53.9309 36.9159C53.7642 37.2225 53.6809 37.5825 53.6809 37.9959C53.6809 38.4159 53.7642 38.7825 53.9309 39.0959C54.0976 39.4025 54.3209 39.6392 54.6009 39.8059C54.8809 39.9659 55.1909 40.0459 55.5309 40.0459C55.8709 40.0459 56.1809 39.9659 56.4609 39.8059C56.7476 39.6392 56.9742 39.4025 57.1409 39.0959C57.3076 38.7825 57.3909 38.4192 57.3909 38.0059ZM73.3147 37.8059C73.3147 37.9792 73.3047 38.1625 73.2847 38.3559H68.9047C68.9381 38.8959 69.1214 39.3192 69.4547 39.6259C69.7947 39.9259 70.2047 40.0759 70.6847 40.0759C71.0781 40.0759 71.4047 39.9859 71.6647 39.8059C71.9314 39.6192 72.1181 39.3725 72.2247 39.0659H73.2047C73.0581 39.5925 72.7647 40.0225 72.3247 40.3559C71.8847 40.6825 71.3381 40.8459 70.6847 40.8459C70.1647 40.8459 69.6981 40.7292 69.2847 40.4959C68.8781 40.2625 68.5581 39.9325 68.3247 39.5059C68.0914 39.0725 67.9747 38.5725 67.9747 38.0059C67.9747 37.4392 68.0881 36.9425 68.3147 36.5159C68.5414 36.0892 68.8581 35.7625 69.2647 35.5359C69.6781 35.3025 70.1514 35.1859 70.6847 35.1859C71.2047 35.1859 71.6647 35.2992 72.0647 35.5259C72.4647 35.7525 72.7714 36.0659 72.9847 36.4659C73.2047 36.8592 73.3147 37.3059 73.3147 37.8059ZM72.3747 37.6159C72.3747 37.2692 72.2981 36.9725 72.1447 36.7259C71.9914 36.4725 71.7814 36.2825 71.5147 36.1559C71.2547 36.0225 70.9647 35.9559 70.6447 35.9559C70.1847 35.9559 69.7914 36.1025 69.4647 36.3959C69.1447 36.6892 68.9614 37.0959 68.9147 37.6159H72.3747ZM80.2759 40.7559L78.9759 38.7159L77.7259 40.7559H76.7759L78.5459 38.0359L76.7759 35.2759H77.8059L79.1059 37.3059L80.3459 35.2759H81.2959L79.5359 37.9859L81.3059 40.7559H80.2759ZM86.0111 36.2859C86.1911 35.9725 86.4577 35.7125 86.8111 35.5059C87.1711 35.2925 87.5877 35.1859 88.0611 35.1859C88.5477 35.1859 88.9877 35.3025 89.3811 35.5359C89.7811 35.7692 90.0944 36.0992 90.3211 36.5259C90.5477 36.9459 90.6611 37.4359 90.6611 37.9959C90.6611 38.5492 90.5477 39.0425 90.3211 39.4759C90.0944 39.9092 89.7811 40.2459 89.3811 40.4859C88.9877 40.7259 88.5477 40.8459 88.0611 40.8459C87.5944 40.8459 87.1811 40.7425 86.8211 40.5359C86.4677 40.3225 86.1977 40.0592 86.0111 39.7459V43.3559H85.1011V35.2759H86.0111V36.2859ZM89.7311 37.9959C89.7311 37.5825 89.6477 37.2225 89.4811 36.9159C89.3144 36.6092 89.0877 36.3759 88.8011 36.2159C88.5211 36.0559 88.2111 35.9759 87.8711 35.9759C87.5377 35.9759 87.2277 36.0592 86.9411 36.2259C86.6611 36.3859 86.4344 36.6225 86.2611 36.9359C86.0944 37.2425 86.0111 37.5992 86.0111 38.0059C86.0111 38.4192 86.0944 38.7825 86.2611 39.0959C86.4344 39.4025 86.6611 39.6392 86.9411 39.8059C87.2277 39.9659 87.5377 40.0459 87.8711 40.0459C88.2111 40.0459 88.5211 39.9659 88.8011 39.8059C89.0877 39.6392 89.3144 39.4025 89.4811 39.0959C89.6477 38.7825 89.7311 38.4159 89.7311 37.9959ZM99.7589 37.8059C99.7589 37.9792 99.7489 38.1625 99.7289 38.3559H95.3489C95.3822 38.8959 95.5655 39.3192 95.8989 39.6259C96.2389 39.9259 96.6489 40.0759 97.1289 40.0759C97.5222 40.0759 97.8489 39.9859 98.1089 39.8059C98.3755 39.6192 98.5622 39.3725 98.6689 39.0659H99.6489C99.5022 39.5925 99.2089 40.0225 98.7689 40.3559C98.3289 40.6825 97.7822 40.8459 97.1289 40.8459C96.6089 40.8459 96.1422 40.7292 95.7289 40.4959C95.3222 40.2625 95.0022 39.9325 94.7689 39.5059C94.5355 39.0725 94.4189 38.5725 94.4189 38.0059C94.4189 37.4392 94.5322 36.9425 94.7589 36.5159C94.9855 36.0892 95.3022 35.7625 95.7089 35.5359C96.1222 35.3025 96.5955 35.1859 97.1289 35.1859C97.6489 35.1859 98.1089 35.2992 98.5089 35.5259C98.9089 35.7525 99.2155 36.0659 99.4289 36.4659C99.6489 36.8592 99.7589 37.3059 99.7589 37.8059ZM98.8189 37.6159C98.8189 37.2692 98.7422 36.9725 98.5889 36.7259C98.4355 36.4725 98.2255 36.2825 97.9589 36.1559C97.6989 36.0225 97.4089 35.9559 97.0889 35.9559C96.6289 35.9559 96.2355 36.1025 95.9089 36.3959C95.5889 36.6892 95.4055 37.0959 95.3589 37.6159H98.8189ZM104.77 36.1659C104.93 35.8525 105.157 35.6092 105.45 35.4359C105.75 35.2625 106.113 35.1759 106.54 35.1759V36.1159H106.3C105.28 36.1159 104.77 36.6692 104.77 37.7759V40.7559H103.86V35.2759H104.77V36.1659ZM110.961 34.3859C110.787 34.3859 110.641 34.3259 110.521 34.2059C110.401 34.0859 110.341 33.9392 110.341 33.7659C110.341 33.5925 110.401 33.4459 110.521 33.3259C110.641 33.2059 110.787 33.1459 110.961 33.1459C111.127 33.1459 111.267 33.2059 111.381 33.3259C111.501 33.4459 111.561 33.5925 111.561 33.7659C111.561 33.9392 111.501 34.0859 111.381 34.2059C111.267 34.3259 111.127 34.3859 110.961 34.3859ZM111.401 35.2759V40.7559H110.491V35.2759H111.401ZM120.851 37.8059C120.851 37.9792 120.841 38.1625 120.821 38.3559H116.441C116.475 38.8959 116.658 39.3192 116.991 39.6259C117.331 39.9259 117.741 40.0759 118.221 40.0759C118.615 40.0759 118.941 39.9859 119.201 39.8059C119.468 39.6192 119.655 39.3725 119.761 39.0659H120.741C120.595 39.5925 120.301 40.0225 119.861 40.3559C119.421 40.6825 118.875 40.8459 118.221 40.8459C117.701 40.8459 117.235 40.7292 116.821 40.4959C116.415 40.2625 116.095 39.9325 115.861 39.5059C115.628 39.0725 115.511 38.5725 115.511 38.0059C115.511 37.4392 115.625 36.9425 115.851 36.5159C116.078 36.0892 116.395 35.7625 116.801 35.5359C117.215 35.3025 117.688 35.1859 118.221 35.1859C118.741 35.1859 119.201 35.2992 119.601 35.5259C120.001 35.7525 120.308 36.0659 120.521 36.4659C120.741 36.8592 120.851 37.3059 120.851 37.8059ZM119.911 37.6159C119.911 37.2692 119.835 36.9725 119.681 36.7259C119.528 36.4725 119.318 36.2825 119.051 36.1559C118.791 36.0225 118.501 35.9559 118.181 35.9559C117.721 35.9559 117.328 36.1025 117.001 36.3959C116.681 36.6892 116.498 37.0959 116.451 37.6159H119.911ZM127.623 35.1759C128.289 35.1759 128.829 35.3792 129.243 35.7859C129.656 36.1859 129.863 36.7659 129.863 37.5259V40.7559H128.963V37.6559C128.963 37.1092 128.826 36.6925 128.553 36.4059C128.279 36.1125 127.906 35.9659 127.433 35.9659C126.953 35.9659 126.569 36.1159 126.283 36.4159C126.003 36.7159 125.863 37.1525 125.863 37.7259V40.7559H124.953V35.2759H125.863V36.0559C126.043 35.7759 126.286 35.5592 126.593 35.4059C126.906 35.2525 127.249 35.1759 127.623 35.1759ZM133.909 38.0059C133.909 37.4392 134.022 36.9459 134.249 36.5259C134.476 36.0992 134.789 35.7692 135.189 35.5359C135.596 35.3025 136.059 35.1859 136.579 35.1859C137.252 35.1859 137.806 35.3492 138.239 35.6759C138.679 36.0025 138.969 36.4559 139.109 37.0359H138.129C138.036 36.7025 137.852 36.4392 137.579 36.2459C137.312 36.0525 136.979 35.9559 136.579 35.9559C136.059 35.9559 135.639 36.1359 135.319 36.4959C134.999 36.8492 134.839 37.3525 134.839 38.0059C134.839 38.6659 134.999 39.1759 135.319 39.5359C135.639 39.8959 136.059 40.0759 136.579 40.0759C136.979 40.0759 137.312 39.9825 137.579 39.7959C137.846 39.6092 138.029 39.3425 138.129 38.9959H139.109C138.962 39.5559 138.669 40.0059 138.229 40.3459C137.789 40.6792 137.239 40.8459 136.579 40.8459C136.059 40.8459 135.596 40.7292 135.189 40.4959C134.789 40.2625 134.476 39.9325 134.249 39.5059C134.022 39.0792 133.909 38.5792 133.909 38.0059ZM148.223 37.8059C148.223 37.9792 148.213 38.1625 148.193 38.3559H143.813C143.847 38.8959 144.03 39.3192 144.363 39.6259C144.703 39.9259 145.113 40.0759 145.593 40.0759C145.987 40.0759 146.313 39.9859 146.573 39.8059C146.84 39.6192 147.027 39.3725 147.133 39.0659H148.113C147.967 39.5925 147.673 40.0225 147.233 40.3559C146.793 40.6825 146.247 40.8459 145.593 40.8459C145.073 40.8459 144.607 40.7292 144.193 40.4959C143.787 40.2625 143.467 39.9325 143.233 39.5059C143 39.0725 142.883 38.5725 142.883 38.0059C142.883 37.4392 142.997 36.9425 143.223 36.5159C143.45 36.0892 143.767 35.7625 144.173 35.5359C144.587 35.3025 145.06 35.1859 145.593 35.1859C146.113 35.1859 146.573 35.2992 146.973 35.5259C147.373 35.7525 147.68 36.0659 147.893 36.4659C148.113 36.8592 148.223 37.3059 148.223 37.8059ZM147.283 37.6159C147.283 37.2692 147.207 36.9725 147.053 36.7259C146.9 36.4725 146.69 36.2825 146.423 36.1559C146.163 36.0225 145.873 35.9559 145.553 35.9559C145.093 35.9559 144.7 36.1025 144.373 36.3959C144.053 36.6892 143.87 37.0959 143.823 37.6159H147.283ZM159.001 36.0259V39.2559C159.001 39.5225 159.057 39.7125 159.171 39.8259C159.284 39.9325 159.481 39.9859 159.761 39.9859H160.431V40.7559H159.611C159.104 40.7559 158.724 40.6392 158.471 40.4059C158.217 40.1725 158.091 39.7892 158.091 39.2559V36.0259H157.381V35.2759H158.091V33.8959H159.001V35.2759H160.431V36.0259H159.001ZM164.093 37.9959C164.093 37.4359 164.206 36.9459 164.433 36.5259C164.66 36.0992 164.97 35.7692 165.363 35.5359C165.763 35.3025 166.206 35.1859 166.693 35.1859C167.173 35.1859 167.59 35.2892 167.943 35.4959C168.296 35.7025 168.56 35.9625 168.733 36.2759V35.2759H169.653V40.7559H168.733V39.7359C168.553 40.0559 168.283 40.3225 167.923 40.5359C167.57 40.7425 167.156 40.8459 166.683 40.8459C166.196 40.8459 165.756 40.7259 165.363 40.4859C164.97 40.2459 164.66 39.9092 164.433 39.4759C164.206 39.0425 164.093 38.5492 164.093 37.9959ZM168.733 38.0059C168.733 37.5925 168.65 37.2325 168.483 36.9259C168.316 36.6192 168.09 36.3859 167.803 36.2259C167.523 36.0592 167.213 35.9759 166.873 35.9759C166.533 35.9759 166.223 36.0559 165.943 36.2159C165.663 36.3759 165.44 36.6092 165.273 36.9159C165.106 37.2225 165.023 37.5825 165.023 37.9959C165.023 38.4159 165.106 38.7825 165.273 39.0959C165.44 39.4025 165.663 39.6392 165.943 39.8059C166.223 39.9659 166.533 40.0459 166.873 40.0459C167.213 40.0459 167.523 39.9659 167.803 39.8059C168.09 39.6392 168.316 39.4025 168.483 39.0959C168.65 38.7825 168.733 38.4192 168.733 38.0059ZM174.561 34.3859C174.388 34.3859 174.241 34.3259 174.121 34.2059C174.001 34.0859 173.941 33.9392 173.941 33.7659C173.941 33.5925 174.001 33.4459 174.121 33.3259C174.241 33.2059 174.388 33.1459 174.561 33.1459C174.728 33.1459 174.868 33.2059 174.981 33.3259C175.101 33.4459 175.161 33.5925 175.161 33.7659C175.161 33.9392 175.101 34.0859 174.981 34.2059C174.868 34.3259 174.728 34.3859 174.561 34.3859ZM175.001 35.2759V40.7559H174.091V35.2759H175.001ZM180.362 33.3559V40.7559H179.452V33.3559H180.362ZM187.203 40.8459C186.689 40.8459 186.223 40.7292 185.803 40.4959C185.389 40.2625 185.063 39.9325 184.823 39.5059C184.589 39.0725 184.473 38.5725 184.473 38.0059C184.473 37.4459 184.593 36.9525 184.833 36.5259C185.079 36.0925 185.413 35.7625 185.833 35.5359C186.253 35.3025 186.723 35.1859 187.243 35.1859C187.763 35.1859 188.233 35.3025 188.653 35.5359C189.073 35.7625 189.403 36.0892 189.643 36.5159C189.889 36.9425 190.013 37.4392 190.013 38.0059C190.013 38.5725 189.886 39.0725 189.633 39.5059C189.386 39.9325 189.049 40.2625 188.623 40.4959C188.196 40.7292 187.723 40.8459 187.203 40.8459ZM187.203 40.0459C187.529 40.0459 187.836 39.9692 188.123 39.8159C188.409 39.6625 188.639 39.4325 188.813 39.1259C188.993 38.8192 189.083 38.4459 189.083 38.0059C189.083 37.5659 188.996 37.1925 188.823 36.8859C188.649 36.5792 188.423 36.3525 188.143 36.2059C187.863 36.0525 187.559 35.9759 187.233 35.9759C186.899 35.9759 186.593 36.0525 186.313 36.2059C186.039 36.3525 185.819 36.5792 185.653 36.8859C185.486 37.1925 185.403 37.5659 185.403 38.0059C185.403 38.4525 185.483 38.8292 185.643 39.1359C185.809 39.4425 186.029 39.6725 186.303 39.8259C186.576 39.9725 186.876 40.0459 187.203 40.0459ZM195.019 36.1659C195.179 35.8525 195.406 35.6092 195.699 35.4359C195.999 35.2625 196.363 35.1759 196.789 35.1759V36.1159H196.549C195.529 36.1159 195.019 36.6692 195.019 37.7759V40.7559H194.109V35.2759H195.019V36.1659ZM205.74 37.8059C205.74 37.9792 205.73 38.1625 205.71 38.3559H201.33C201.363 38.8959 201.546 39.3192 201.88 39.6259C202.22 39.9259 202.63 40.0759 203.11 40.0759C203.503 40.0759 203.83 39.9859 204.09 39.8059C204.356 39.6192 204.543 39.3725 204.65 39.0659H205.63C205.483 39.5925 205.19 40.0225 204.75 40.3559C204.31 40.6825 203.763 40.8459 203.11 40.8459C202.59 40.8459 202.123 40.7292 201.71 40.4959C201.303 40.2625 200.983 39.9325 200.75 39.5059C200.516 39.0725 200.4 38.5725 200.4 38.0059C200.4 37.4392 200.513 36.9425 200.74 36.5159C200.966 36.0892 201.283 35.7625 201.69 35.5359C202.103 35.3025 202.576 35.1859 203.11 35.1859C203.63 35.1859 204.09 35.2992 204.49 35.5259C204.89 35.7525 205.196 36.0659 205.41 36.4659C205.63 36.8592 205.74 37.3059 205.74 37.8059ZM204.8 37.6159C204.8 37.2692 204.723 36.9725 204.57 36.7259C204.416 36.4725 204.206 36.2825 203.94 36.1559C203.68 36.0225 203.39 35.9559 203.07 35.9559C202.61 35.9559 202.216 36.1025 201.89 36.3959C201.57 36.6892 201.386 37.0959 201.34 37.6159H204.8ZM209.501 37.9959C209.501 37.4359 209.614 36.9459 209.841 36.5259C210.068 36.0992 210.378 35.7692 210.771 35.5359C211.171 35.3025 211.618 35.1859 212.111 35.1859C212.538 35.1859 212.934 35.2859 213.301 35.4859C213.668 35.6792 213.948 35.9359 214.141 36.2559V33.3559H215.061V40.7559H214.141V39.7259C213.961 40.0525 213.694 40.3225 213.341 40.5359C212.988 40.7425 212.574 40.8459 212.101 40.8459C211.614 40.8459 211.171 40.7259 210.771 40.4859C210.378 40.2459 210.068 39.9092 209.841 39.4759C209.614 39.0425 209.501 38.5492 209.501 37.9959ZM214.141 38.0059C214.141 37.5925 214.058 37.2325 213.891 36.9259C213.724 36.6192 213.498 36.3859 213.211 36.2259C212.931 36.0592 212.621 35.9759 212.281 35.9759C211.941 35.9759 211.631 36.0559 211.351 36.2159C211.071 36.3759 210.848 36.6092 210.681 36.9159C210.514 37.2225 210.431 37.5825 210.431 37.9959C210.431 38.4159 210.514 38.7825 210.681 39.0959C210.848 39.4025 211.071 39.6392 211.351 39.8059C211.631 39.9659 211.941 40.0459 212.281 40.0459C212.621 40.0459 212.931 39.9659 213.211 39.8059C213.498 39.6392 213.724 39.4025 213.891 39.0959C214.058 38.7825 214.141 38.4192 214.141 38.0059ZM225.555 34.3859C225.381 34.3859 225.235 34.3259 225.115 34.2059C225.001 34.0859 224.945 33.9392 224.945 33.7659C224.945 33.5925 225.001 33.4459 225.115 33.3259C225.235 33.2059 225.381 33.1459 225.555 33.1459C225.728 33.1459 225.871 33.2059 225.985 33.3259C226.105 33.4459 226.165 33.5925 226.165 33.7659C226.165 33.9392 226.105 34.0859 225.985 34.2059C225.871 34.3259 225.728 34.3859 225.555 34.3859ZM226.005 41.9459C226.005 42.4325 225.881 42.7892 225.635 43.0159C225.388 43.2425 225.028 43.3559 224.555 43.3559H224.025V42.5859H224.405C224.658 42.5859 224.835 42.5359 224.935 42.4359C225.041 42.3359 225.095 42.1659 225.095 41.9259V35.2759H226.005V41.9459ZM235.305 35.2759V40.7559H234.395V39.9459C234.222 40.2259 233.979 40.4459 233.665 40.6059C233.359 40.7592 233.019 40.8359 232.645 40.8359C232.219 40.8359 231.835 40.7492 231.495 40.5759C231.155 40.3959 230.885 40.1292 230.685 39.7759C230.492 39.4225 230.395 38.9925 230.395 38.4859V35.2759H231.295V38.3659C231.295 38.9059 231.432 39.3225 231.705 39.6159C231.979 39.9025 232.352 40.0459 232.825 40.0459C233.312 40.0459 233.695 39.8959 233.975 39.5959C234.255 39.2959 234.395 38.8592 234.395 38.2859V35.2759H235.305ZM241.682 40.8459C241.262 40.8459 240.885 40.7759 240.552 40.6359C240.218 40.4892 239.955 40.2892 239.762 40.0359C239.568 39.7759 239.462 39.4792 239.442 39.1459H240.382C240.408 39.4192 240.535 39.6425 240.762 39.8159C240.995 39.9892 241.298 40.0759 241.672 40.0759C242.018 40.0759 242.292 39.9992 242.492 39.8459C242.692 39.6925 242.792 39.4992 242.792 39.2659C242.792 39.0259 242.685 38.8492 242.472 38.7359C242.258 38.6159 241.928 38.4992 241.482 38.3859C241.075 38.2792 240.742 38.1725 240.482 38.0659C240.228 37.9525 240.008 37.7892 239.822 37.5759C239.642 37.3559 239.552 37.0692 239.552 36.7159C239.552 36.4359 239.635 36.1792 239.802 35.9459C239.968 35.7125 240.205 35.5292 240.512 35.3959C240.818 35.2559 241.168 35.1859 241.562 35.1859C242.168 35.1859 242.658 35.3392 243.032 35.6459C243.405 35.9525 243.605 36.3725 243.632 36.9059H242.722C242.702 36.6192 242.585 36.3892 242.372 36.2159C242.165 36.0425 241.885 35.9559 241.532 35.9559C241.205 35.9559 240.945 36.0259 240.752 36.1659C240.558 36.3059 240.462 36.4892 240.462 36.7159C240.462 36.8959 240.518 37.0459 240.632 37.1659C240.752 37.2792 240.898 37.3725 241.072 37.4459C241.252 37.5125 241.498 37.5892 241.812 37.6759C242.205 37.7825 242.525 37.8892 242.772 37.9959C243.018 38.0959 243.228 38.2492 243.402 38.4559C243.582 38.6625 243.675 38.9325 243.682 39.2659C243.682 39.5659 243.598 39.8359 243.432 40.0759C243.265 40.3159 243.028 40.5059 242.722 40.6459C242.422 40.7792 242.075 40.8459 241.682 40.8459ZM248.976 36.0259V39.2559C248.976 39.5225 249.033 39.7125 249.146 39.8259C249.26 39.9325 249.456 39.9859 249.736 39.9859H250.406V40.7559H249.586C249.08 40.7559 248.7 40.6392 248.446 40.4059C248.193 40.1725 248.066 39.7892 248.066 39.2559V36.0259H247.356V35.2759H248.066V33.8959H248.976V35.2759H250.406V36.0259H248.976ZM262.205 36.0259H261.055V40.7559H260.145V36.0259H259.435V35.2759H260.145V34.8859C260.145 34.2725 260.302 33.8259 260.615 33.5459C260.935 33.2592 261.445 33.1159 262.145 33.1159V33.8759C261.745 33.8759 261.462 33.9559 261.295 34.1159C261.135 34.2692 261.055 34.5259 261.055 34.8859V35.2759H262.205V36.0259ZM268.556 40.8459C268.043 40.8459 267.576 40.7292 267.156 40.4959C266.743 40.2625 266.416 39.9325 266.176 39.5059C265.943 39.0725 265.826 38.5725 265.826 38.0059C265.826 37.4459 265.946 36.9525 266.186 36.5259C266.433 36.0925 266.766 35.7625 267.186 35.5359C267.606 35.3025 268.076 35.1859 268.596 35.1859C269.116 35.1859 269.586 35.3025 270.006 35.5359C270.426 35.7625 270.756 36.0892 270.996 36.5159C271.243 36.9425 271.366 37.4392 271.366 38.0059C271.366 38.5725 271.239 39.0725 270.986 39.5059C270.739 39.9325 270.403 40.2625 269.976 40.4959C269.549 40.7292 269.076 40.8459 268.556 40.8459ZM268.556 40.0459C268.883 40.0459 269.189 39.9692 269.476 39.8159C269.763 39.6625 269.993 39.4325 270.166 39.1259C270.346 38.8192 270.436 38.4459 270.436 38.0059C270.436 37.5659 270.349 37.1925 270.176 36.8859C270.003 36.5792 269.776 36.3525 269.496 36.2059C269.216 36.0525 268.913 35.9759 268.586 35.9759C268.253 35.9759 267.946 36.0525 267.666 36.2059C267.393 36.3525 267.173 36.5792 267.006 36.8859C266.839 37.1925 266.756 37.5659 266.756 38.0059C266.756 38.4525 266.836 38.8292 266.996 39.1359C267.163 39.4425 267.383 39.6725 267.656 39.8259C267.929 39.9725 268.229 40.0459 268.556 40.0459ZM276.372 36.1659C276.532 35.8525 276.759 35.6092 277.052 35.4359C277.352 35.2625 277.716 35.1759 278.142 35.1759V36.1159H277.902C276.882 36.1159 276.372 36.6692 276.372 37.7759V40.7559H275.462V35.2759H276.372V36.1659ZM292.379 35.2759L289.079 43.3359H288.139L289.219 40.6959L287.009 35.2759H288.019L289.739 39.7159L291.439 35.2759H292.379ZM298.584 40.8459C298.07 40.8459 297.604 40.7292 297.184 40.4959C296.77 40.2625 296.444 39.9325 296.204 39.5059C295.97 39.0725 295.854 38.5725 295.854 38.0059C295.854 37.4459 295.974 36.9525 296.214 36.5259C296.46 36.0925 296.794 35.7625 297.214 35.5359C297.634 35.3025 298.104 35.1859 298.624 35.1859C299.144 35.1859 299.614 35.3025 300.034 35.5359C300.454 35.7625 300.784 36.0892 301.024 36.5159C301.27 36.9425 301.394 37.4392 301.394 38.0059C301.394 38.5725 301.267 39.0725 301.014 39.5059C300.767 39.9325 300.43 40.2625 300.004 40.4959C299.577 40.7292 299.104 40.8459 298.584 40.8459ZM298.584 40.0459C298.91 40.0459 299.217 39.9692 299.504 39.8159C299.79 39.6625 300.02 39.4325 300.194 39.1259C300.374 38.8192 300.464 38.4459 300.464 38.0059C300.464 37.5659 300.377 37.1925 300.204 36.8859C300.03 36.5792 299.804 36.3525 299.524 36.2059C299.244 36.0525 298.94 35.9759 298.614 35.9759C298.28 35.9759 297.974 36.0525 297.694 36.2059C297.42 36.3525 297.2 36.5792 297.034 36.8859C296.867 37.1925 296.784 37.5659 296.784 38.0059C296.784 38.4525 296.864 38.8292 297.024 39.1359C297.19 39.4425 297.41 39.6725 297.684 39.8259C297.957 39.9725 298.257 40.0459 298.584 40.0459ZM310.35 35.2759V40.7559H309.44V39.9459C309.267 40.2259 309.023 40.4459 308.71 40.6059C308.403 40.7592 308.063 40.8359 307.69 40.8359C307.263 40.8359 306.88 40.7492 306.54 40.5759C306.2 40.3959 305.93 40.1292 305.73 39.7759C305.537 39.4225 305.44 38.9925 305.44 38.4859V35.2759H306.34V38.3659C306.34 38.9059 306.477 39.3225 306.75 39.6159C307.023 39.9025 307.397 40.0459 307.87 40.0459C308.357 40.0459 308.74 39.8959 309.02 39.5959C309.3 39.2959 309.44 38.8592 309.44 38.2859V35.2759H310.35ZM315.967 33.7859L315.857 38.7859H315.097L314.987 33.7859H315.967ZM315.517 40.8159C315.343 40.8159 315.197 40.7559 315.077 40.6359C314.957 40.5159 314.897 40.3692 314.897 40.1959C314.897 40.0225 314.957 39.8759 315.077 39.7559C315.197 39.6359 315.343 39.5759 315.517 39.5759C315.683 39.5759 315.823 39.6359 315.937 39.7559C316.057 39.8759 316.117 40.0225 316.117 40.1959C316.117 40.3692 316.057 40.5159 315.937 40.6359C315.823 40.7559 315.683 40.8159 315.517 40.8159Z" fill="#EF3E37"/>
</svg>
