<svg width="30" height="30" viewBox="0 0 30 30" fill="none" xmlns="http://www.w3.org/2000/svg">
<circle cx="15" cy="15" r="15" fill="#E9EDEE"/>
<path d="M19.2 9.75C19.4785 9.75 19.7455 9.86062 19.9425 10.0575C20.1394 10.2545 20.25 10.5215 20.25 10.8V17.1C20.25 17.3785 20.1394 17.6455 19.9425 17.8425C19.7455 18.0394 19.4785 18.15 19.2 18.15H11.85L9.75 20.25V10.8C9.75 10.2172 10.2225 9.75 10.8 9.75H19.2ZM10.8 10.8V17.7142L11.4143 17.1H19.2V10.8H10.8ZM11.85 12.375H18.15V13.425H11.85V12.375ZM11.85 14.475H16.575V15.525H11.85V14.475Z" fill="#1E4552"/>
</svg>
