<svg width="35" height="35" viewBox="0 0 35 35" fill="none" xmlns="http://www.w3.org/2000/svg">
<path d="M13.1054 16.6826C14.3407 19.1103 16.3309 21.1005 18.7586 22.3358L20.6458 20.4485C20.886 20.2083 21.2206 20.1397 21.5208 20.2341C22.4816 20.5515 23.511 20.723 24.5833 20.723C24.8108 20.723 25.029 20.8134 25.1899 20.9743C25.3508 21.1352 25.4412 21.3534 25.4412 21.5809V24.5833C25.4412 24.8108 25.3508 25.029 25.1899 25.1899C25.029 25.3508 24.8108 25.4412 24.5833 25.4412C20.7156 25.4412 17.0063 23.9047 14.2714 21.1698C11.5365 18.4349 10 14.7256 10 10.8578C10 10.6303 10.0904 10.4121 10.2513 10.2513C10.4121 10.0904 10.6303 10 10.8578 10H13.8603C14.0878 10 14.306 10.0904 14.4669 10.2513C14.6278 10.4121 14.7181 10.6303 14.7181 10.8578C14.7181 11.9301 14.8897 12.9596 15.2071 13.9203C15.3015 14.2206 15.2328 14.5551 14.9926 14.7953L13.1054 16.6826Z" fill="#1E4552"/>
<circle cx="17.5" cy="17.5" r="17.5" fill="#1E4552" fill-opacity="0.1"/>
</svg>
