<svg width="15" height="22" viewBox="0 0 15 22" fill="none" xmlns="http://www.w3.org/2000/svg">
<path d="M7.5 15C9.75938 15 11.5909 13.1685 11.5909 10.9091V4.09091C11.5909 1.83153 9.75938 0 7.5 0C5.24062 0 3.40909 1.83153 3.40909 4.09091V10.9091C3.40909 13.1685 5.24062 15 7.5 15ZM14.3182 8.18182H13.6364C13.2597 8.18182 12.9545 8.48693 12.9545 8.86364V10.9091C12.9545 14.0966 10.2064 16.6543 6.95497 16.3372C4.12117 16.0607 2.04545 13.5132 2.04545 10.6662V8.86364C2.04545 8.48693 1.74034 8.18182 1.36364 8.18182H0.681818C0.305114 8.18182 0 8.48693 0 8.86364V10.575C0 14.3949 2.72599 17.8001 6.47727 18.3175V19.7727H4.09091C3.7142 19.7727 3.40909 20.0778 3.40909 20.4545V21.1364C3.40909 21.5131 3.7142 21.8182 4.09091 21.8182H10.9091C11.2858 21.8182 11.5909 21.5131 11.5909 21.1364V20.4545C11.5909 20.0778 11.2858 19.7727 10.9091 19.7727H8.52273V18.3337C12.1751 17.8325 15 14.6974 15 10.9091V8.86364C15 8.48693 14.6949 8.18182 14.3182 8.18182Z" fill="#000"/>
</svg>
