<svg width="20" height="20" viewBox="0 0 20 20" fill="none" xmlns="http://www.w3.org/2000/svg">
<path d="M18.7825 13.2525C16.495 11.0775 13.405 9.75 10 9.75C6.595 9.75 3.505 11.0775 1.2175 13.2525C1.0825 13.3875 1 13.575 1 13.785C1 13.9875 1.0825 14.175 1.2175 14.31L3.0775 16.17C3.2125 16.305 3.4 16.395 3.625 16.395C3.8125 16.395 4 16.3125 4.135 16.1775C4.7275 15.6225 5.395 15.1575 6.13 14.79C6.3775 14.67 6.55 14.415 6.55 14.115V11.79C7.6375 11.4375 8.7925 11.25 10 11.25C11.2 11.25 12.3625 11.4375 13.45 11.79V14.115C13.45 14.415 13.6225 14.67 13.87 14.79C14.605 15.1575 15.2725 15.6225 15.865 16.1775C16 16.3125 16.1875 16.395 16.375 16.395C16.6 16.395 16.7875 16.305 16.9225 16.17L18.7825 14.31C18.9175 14.175 19 13.9875 19 13.785C19 13.575 18.9175 13.3875 18.7825 13.2525ZM5.875 4.875L10 9L15.25 3.75L14.5 3L10 7.5L6.625 4.125H9.25V3H4.75V7.5H5.875V4.875Z" fill="#000"/>
</svg>
