<svg width="30" height="24" viewBox="0 0 30 24" fill="none" xmlns="http://www.w3.org/2000/svg">
<path d="M29.7103 21.4734L22.3134 15.7566C22.9035 14.6311 23.25 13.3598 23.25 12V9.75C23.25 9.33562 22.9143 9 22.5 9H21.75C21.3356 9 21 9.33562 21 9.75V12C21 12.84 20.8143 13.6312 20.4975 14.3531L19.2529 13.3912C19.3982 12.9506 19.5004 12.4903 19.5004 12.0005V4.5C19.5004 2.01469 17.4857 0 15.0004 0C12.5151 0 10.5004 2.01469 10.5004 4.5V6.62625L2.13136 0.157969C1.80418 -0.0960937 1.33261 -0.0375 1.07855 0.289687L0.157927 1.47422C-0.0961353 1.80094 -0.0375415 2.27203 0.289646 2.52656L27.869 23.842C28.1962 24.0966 28.6673 24.0375 28.9218 23.7103L29.8424 22.5258C30.096 22.1991 30.0374 21.728 29.7103 21.4734ZM18.75 21.75H16.125V20.167C16.6715 20.092 17.196 19.9542 17.7032 19.7775L15.3543 17.962C15.0398 17.9808 14.7257 18.0028 14.4004 17.9714C11.7825 17.7159 9.77199 15.6919 9.18886 13.1972L6.74996 11.3114V11.6325C6.74996 15.8344 9.74855 19.5802 13.875 20.1492V21.75H11.25C10.8356 21.75 10.5 22.0856 10.5 22.5V23.25C10.5 23.6644 10.8356 24 11.25 24H18.75C19.1643 24 19.5 23.6644 19.5 23.25V22.5C19.5 22.0856 19.1643 21.75 18.75 21.75Z" fill="#1E4552"/>
</svg>
