<svg width="15" height="15" viewBox="0 0 15 15" fill="none" xmlns="http://www.w3.org/2000/svg">
<g clip-path="url(#clip0_4905_2165)">
<path d="M4.82143 15H1.60714C0.719866 15 0 14.2801 0 13.3928V1.60714C0 0.719866 0.719866 0 1.60714 0H4.82143C5.70871 0 6.42857 0.719866 6.42857 1.60714V13.3928C6.42857 14.2801 5.70871 15 4.82143 15ZM15 13.3928V1.60714C15 0.719866 14.2801 0 13.3928 0H10.1785C9.2913 0 8.57145 0.719866 8.57145 1.60714V13.3928C8.57145 14.2801 9.2913 15 10.1785 15H13.3928C14.2801 15 15 14.2801 15 13.3928Z" fill="#1E4552"/>
</g>
<defs>
<clipPath id="clip0_4905_2165">
<rect width="15" height="15" fill="white"/>
</clipPath>
</defs>
</svg>
