<svg width="65" height="65" viewBox="0 0 65 65" fill="none" xmlns="http://www.w3.org/2000/svg">
<g filter="url(#filter0_d_4_168)">
<path d="M55.0081 30.004C55.0081 43.8134 43.8134 55.0081 30.004 55.0081C16.1947 55.0081 5 43.8134 5 30.004C5 16.1947 16.1947 5 30.004 5C43.8134 5 55.0081 16.1947 55.0081 30.004Z" fill="white"/>
</g>
<path d="M22.0078 32.8492C21.7973 32.4309 21.5936 32.0072 21.3978 31.5822C21.0144 30.751 20.6551 29.8996 20.4942 28.9987C19.9727 26.0921 21.4756 22.9226 23.6328 21.0591C26.703 18.4085 31.0522 17.407 34.4348 15.0554C34.2473 16.2114 33.6294 17.2536 32.7053 17.9728C34.2886 16.7527 39.0066 18.7625 40.4813 19.5159C42.9266 20.7471 45.0046 22.6004 46.5064 24.8894C44.9143 24.2422 43.1812 24.0204 41.4775 24.2459C42.8021 25.529 44.1803 26.8978 44.6817 28.6702C42.3047 26.9568 38.5092 27.7813 37.0612 30.3354C36.1321 31.971 36.1455 33.9633 35.5864 35.7612C34.9965 37.665 33.4051 38.8743 31.5335 39.3811C30.1231 39.7672 27.3478 39.9415 26.0702 39.1129C25.6827 38.8622 25.3998 38.4788 25.1397 38.1007C23.9717 36.4272 22.9251 34.6722 22.0078 32.8492Z" fill="#00214E"/>
<path d="M25.7659 33.3814C25.7659 34.6401 24.7454 35.6606 23.4867 35.6606C22.2279 35.6606 21.2075 34.6401 21.2075 33.3814C21.2075 32.1226 22.2279 31.1022 23.4867 31.1022C24.7454 31.1022 25.7659 32.1226 25.7659 33.3814Z" fill="#FFBAB0"/>
<path d="M26.4172 33.2473C26.4172 34.432 25.4568 35.3924 24.2721 35.3924C23.0874 35.3924 22.127 34.432 22.127 33.2473C22.127 32.0626 23.0874 31.1022 24.2721 31.1022C25.4568 31.1022 26.4172 32.0626 26.4172 33.2473Z" fill="#ECAE9E"/>
<path d="M45.151 49.903C36.1887 56.8037 23.6879 56.7485 14.7869 49.7689L21.3107 46.7108C21.6214 46.5647 21.9196 46.3934 22.2023 46.1986C22.2881 46.1396 22.3739 46.078 22.4557 46.0136C23.1657 45.4704 23.7501 44.7803 24.1691 43.9905C24.7054 42.9783 24.8823 41.8601 24.8904 40.7205C24.8904 40.3438 24.8823 39.9657 24.8716 39.5876C24.8609 39.2096 24.8448 38.8087 24.8408 38.4186C24.8354 37.994 24.8309 37.569 24.8274 37.1436L25.0955 37.2776L25.7927 37.6383L26.1158 37.6932L29.8536 38.3287L34.0259 39.0393L34.1519 43.3295L34.2042 45.1113L34.2136 45.413V45.4572L35.8358 46.1169L45.151 49.903Z" fill="#FFBAB0"/>
<path d="M34.2017 45.1018L33.9952 45.1233C31.9775 45.3001 29.984 44.582 28.5426 43.1591L24.8718 38.6892C24.8597 38.3004 24.8449 38.8005 24.8409 38.4104C24.8356 37.9858 24.8311 37.5608 24.8275 37.1354L25.0956 37.2694L25.7928 37.6301L26.1159 37.6851L29.8538 38.3206L34.026 39.0311L34.1521 43.3214L34.2017 45.1018Z" fill="#ECAE9E"/>
<path d="M24.6477 29.13C24.2296 29.4998 23.9608 30.0094 23.8916 30.5632C23.6114 33.1816 24.5807 36.2719 24.8502 38.8943L29.733 42.4954C31.3556 43.7075 33.4286 44.1457 35.4028 43.694C36.1898 43.5077 36.6886 43.387 37.0438 42.7555C37.7303 41.5489 39.4155 37.4209 39.5255 34.5089C39.5563 33.6817 39.5362 32.4214 39.0267 31.7175C38.7787 31.3757 38.6513 31.3676 38.7412 30.885C38.8337 30.3809 38.9664 29.8821 39.0777 29.3821C39.2393 28.6587 39.2846 27.9142 39.2118 27.1766C39.138 26.5063 39.1407 25.911 39.0696 25.2286C39.0348 24.8974 38.8873 23.4481 38.8873 23.4481C38.036 24.7298 36.4995 25.4029 35.0784 25.8453C33.1451 26.4459 31.1327 26.7395 29.1726 27.2436C27.8735 27.5828 25.7726 28.0655 24.6477 29.13Z" fill="#FFBAB0"/>
<path d="M30.4409 31.1505C31.2587 31.1572 31.2587 32.4081 30.4409 32.4148H30.4047C29.5856 32.4081 29.5856 31.1572 30.4047 31.1505H30.4409Z" fill="#00214E"/>
<path d="M37.505 30.7684C38.2651 30.7684 38.2651 31.9348 37.505 31.9415H37.4714C36.7126 31.9348 36.7126 30.7738 37.4714 30.7684H37.505Z" fill="#00214E"/>
<path fill-rule="evenodd" clip-rule="evenodd" d="M33.5174 38.5445C32.5423 38.4245 31.6439 37.9549 30.9887 37.2229L31.0916 37.1307C31.7245 37.8379 32.5924 38.2915 33.5342 38.4074L33.5174 38.5445Z" fill="#00214E"/>
<path fill-rule="evenodd" clip-rule="evenodd" d="M32.2983 29.6114C31.0527 29.4261 29.7842 29.4622 28.5511 29.7179L28.5231 29.5826C29.7721 29.3236 31.057 29.2871 32.3187 29.4747L32.2983 29.6114Z" fill="#00214E"/>
<path fill-rule="evenodd" clip-rule="evenodd" d="M38.7874 29.5647C38.0111 29.4958 37.2289 29.55 36.4695 29.7255L36.4384 29.5908C37.2119 29.4121 38.0089 29.3569 38.7996 29.4271L38.7874 29.5647Z" fill="#00214E"/>
<path d="M45.151 49.9028C36.1887 56.8035 23.6879 56.7483 14.7869 49.7687L21.3107 46.7106C21.6214 46.5645 21.9196 46.3932 22.2023 46.1984C22.2881 46.1395 22.3739 46.0778 22.4557 46.0134C25.613 48.2604 29.922 49.6776 33.6492 48.0003C34.5367 47.5981 35.3518 46.9492 35.8345 46.1153L45.151 49.9028Z" fill="#373232"/>
<path fill-rule="evenodd" clip-rule="evenodd" d="M32.4025 35.4911C32.3212 35.2453 32.4313 34.977 32.6617 34.859L32.7247 34.982C32.5549 35.0689 32.4738 35.2666 32.5337 35.4477C32.5936 35.6288 32.7766 35.7392 32.9647 35.7077L32.9875 35.844C32.7321 35.8867 32.4838 35.7369 32.4025 35.4911Z" fill="#00214E"/>
<path fill-rule="evenodd" clip-rule="evenodd" d="M35.2466 33.3126C35.0682 32.5572 34.8904 31.804 34.6924 31.0446L34.8261 31.0098C35.0243 31.7698 35.203 32.5266 35.3818 33.284C35.504 33.8016 35.6263 34.3195 35.7549 34.8389C35.7944 34.9646 35.8089 35.0969 35.7974 35.2282L35.7972 35.2306L35.7969 35.2329C35.7636 35.4456 35.6204 35.5906 35.4479 35.6903C35.2761 35.7896 35.0669 35.849 34.8825 35.889L34.8532 35.754C35.0335 35.7149 35.2258 35.6591 35.3788 35.5707C35.5304 35.4831 35.6349 35.3687 35.66 35.2139C35.6695 35.1007 35.6568 34.9867 35.6225 34.8784L35.6219 34.8763L35.6213 34.8742C35.4917 34.3507 35.369 33.8311 35.2466 33.3126Z" fill="#00214E"/>
<defs>
<filter id="filter0_d_4_168" x="0" y="0" width="64.0081" height="64.0081" filterUnits="userSpaceOnUse" color-interpolation-filters="sRGB">
<feFlood flood-opacity="0" result="BackgroundImageFix"/>
<feColorMatrix in="SourceAlpha" type="matrix" values="0 0 0 0 0 0 0 0 0 0 0 0 0 0 0 0 0 0 127 0" result="hardAlpha"/>
<feOffset dx="2" dy="2"/>
<feGaussianBlur stdDeviation="3.5"/>
<feComposite in2="hardAlpha" operator="out"/>
<feColorMatrix type="matrix" values="0 0 0 0 0 0 0 0 0 0 0 0 0 0 0 0 0 0 0.1 0"/>
<feBlend mode="normal" in2="BackgroundImageFix" result="effect1_dropShadow_4_168"/>
<feBlend mode="normal" in="SourceGraphic" in2="effect1_dropShadow_4_168" result="shape"/>
</filter>
</defs>
</svg>
