<svg width="184" height="207" viewBox="0 0 184 207" fill="none" xmlns="http://www.w3.org/2000/svg">
<mask id="mask0_0_530" style="mask-type:alpha" maskUnits="userSpaceOnUse" x="0" y="0" width="184" height="183">
<path d="M182.872 91.5C182.872 141.896 141.991 182.75 91.5608 182.75C41.1311 182.75 0.25 141.896 0.25 91.5C0.25 41.1042 41.1311 0.25 91.5608 0.25C141.991 0.25 182.872 41.1042 182.872 91.5Z" fill="#00214E" stroke="#989898" stroke-width="0.5"/>
</mask>
<g mask="url(#mask0_0_530)">
<circle cx="59" cy="53" r="175" fill="url(#paint0_radial_0_530)"/>
<path d="M259.5 102C259.5 181.529 195.029 246 115.5 246C35.971 246 -28.5 181.529 -28.5 102C-28.5 22.471 35.971 -42 115.5 -42C195.029 -42 259.5 22.471 259.5 102Z" fill="url(#paint1_radial_0_530)"/>
</g>
<path d="M175 92C175 138.392 137.392 176 91 176C44.6081 176 7 138.392 7 92C7 45.6081 44.6081 8 91 8C137.392 8 175 45.6081 175 92Z" fill="white"/>
<path d="M64.1371 101.558C63.4299 100.153 62.7453 98.7294 62.0877 97.3016C60.7996 94.5091 59.5925 91.649 59.052 88.6223C57.3 78.8576 62.349 68.2101 69.5959 61.9495C79.9101 53.0451 94.5212 49.6806 105.885 41.7805C105.255 45.6638 103.179 49.1651 100.075 51.5813C105.394 47.4826 121.244 54.2341 126.198 56.7654C134.413 60.9014 141.394 67.1275 146.439 74.8175C141.09 72.6432 135.268 71.8982 129.544 72.6556C133.994 76.9659 138.625 81.5645 140.309 87.5189C132.323 81.7627 119.573 84.5327 114.708 93.1129C111.587 98.6078 111.632 105.301 109.754 111.341C107.772 117.736 102.426 121.799 96.1381 123.502C91.3999 124.799 82.0766 125.384 77.7842 122.601C76.4826 121.758 75.5322 120.47 74.6585 119.2C70.7347 113.578 67.2186 107.682 64.1371 101.558Z" fill="#00214E"/>
<path d="M76.7619 103.346C76.7619 107.575 73.3338 111.003 69.105 111.003C64.8763 111.003 61.4482 107.575 61.4482 103.346C61.4482 99.1172 64.8763 95.6891 69.105 95.6891C73.3338 95.6891 76.7619 99.1172 76.7619 103.346Z" fill="#FFBAB0"/>
<path d="M78.9502 102.896C78.9502 106.876 75.7237 110.102 71.7437 110.102C67.7637 110.102 64.5373 106.876 64.5373 102.896C64.5373 98.9155 67.7637 95.6891 71.7437 95.6891C75.7237 95.6891 78.9502 98.9155 78.9502 102.896Z" fill="#ECAE9E"/>
<path d="M141.886 158.85C111.777 182.032 69.7812 181.847 39.8785 158.399L61.7951 148.126C62.8389 147.635 63.8406 147.059 64.7903 146.405C65.0785 146.207 65.3668 146 65.6415 145.783C68.0268 143.958 69.9902 141.64 71.3977 138.987C73.1993 135.586 73.7938 131.83 73.8209 128.002C73.8209 126.736 73.7938 125.466 73.7578 124.196C73.7218 122.926 73.6677 121.579 73.6542 120.268C73.6362 118.842 73.6212 117.414 73.6092 115.985L74.51 116.435L76.8521 117.647L77.9375 117.832L90.4947 119.966L104.511 122.354L104.935 136.766L105.11 142.752L105.142 143.766V143.914L110.592 146.13L141.886 158.85Z" fill="#FFBAB0"/>
<path d="M105.102 142.72L104.408 142.792C97.6298 143.386 90.9325 140.974 86.0902 136.194L73.7582 121.177C73.7176 119.871 73.6681 121.551 73.6546 120.241C73.6366 118.814 73.6215 117.387 73.6095 115.957L74.5103 116.408L76.8524 117.619L77.9379 117.804L90.4951 119.939L104.512 122.326L104.935 136.739L105.102 142.72Z" fill="#ECAE9E"/>
<path d="M73.0056 89.0639C71.601 90.3061 70.6978 92.018 70.4654 93.8787C69.524 102.675 72.7804 113.057 73.6857 121.867L90.0894 133.964C95.5403 138.036 102.504 139.508 109.137 137.991C111.781 137.365 113.456 136.96 114.65 134.838C116.956 130.785 122.617 116.917 122.987 107.134C123.09 104.355 123.023 100.121 121.311 97.7566C120.478 96.6081 120.05 96.5811 120.352 94.9596C120.663 93.2661 121.109 91.5906 121.482 89.9106C122.025 87.4806 122.177 84.9795 121.933 82.5015C121.685 80.2495 121.694 78.2497 121.455 75.9572C121.338 74.8447 120.843 69.9758 120.843 69.9758C117.983 74.2817 112.821 76.5427 108.047 78.029C101.552 80.0468 94.7916 81.0332 88.2067 82.7267C83.8423 83.8662 76.7845 85.4877 73.0056 89.0639Z" fill="#FFBAB0"/>
<path d="M92.4675 95.8514C95.215 95.874 95.215 100.076 92.4675 100.099H92.3459C89.594 100.076 89.594 95.874 92.3459 95.8514H92.4675Z" fill="#00214E"/>
<path d="M116.199 94.5676C118.753 94.5676 118.753 98.4861 116.199 98.5086H116.086C113.537 98.4861 113.537 94.5856 116.086 94.5676H116.199Z" fill="#00214E"/>
<path fill-rule="evenodd" clip-rule="evenodd" d="M102.803 120.692C99.5271 120.288 96.5088 118.711 94.3078 116.252L94.6536 115.942C96.7798 118.318 99.6953 119.841 102.86 120.231L102.803 120.692Z" fill="#00214E"/>
<path fill-rule="evenodd" clip-rule="evenodd" d="M98.7074 90.6808C94.5229 90.0586 90.2613 90.1798 86.1189 91.0388L86.0246 90.5844C90.2205 89.7142 94.5371 89.5915 98.7757 90.2217L98.7074 90.6808Z" fill="#00214E"/>
<path fill-rule="evenodd" clip-rule="evenodd" d="M120.507 90.5244C117.899 90.2927 115.271 90.475 112.721 91.0644L112.616 90.6122C115.215 90.0117 117.892 89.8261 120.548 90.0621L120.507 90.5244Z" fill="#00214E"/>
<path d="M141.886 158.849C111.777 182.032 69.7812 181.846 39.8785 158.398L61.7951 148.125C62.8389 147.634 63.8406 147.059 64.7903 146.404C65.0785 146.206 65.3668 145.999 65.6415 145.783C76.2485 153.331 90.7244 158.092 103.246 152.458C106.227 151.106 108.966 148.927 110.587 146.125L141.886 158.849Z" fill="#ECEAFF"/>
<path fill-rule="evenodd" clip-rule="evenodd" d="M99.0576 110.434C98.7845 109.608 99.1542 108.706 99.9284 108.31L100.14 108.723C99.5694 109.015 99.297 109.679 99.4983 110.288C99.6995 110.896 100.314 111.267 100.946 111.161L101.023 111.619C100.165 111.763 99.3307 111.259 99.0576 110.434Z" fill="#00214E"/>
<path fill-rule="evenodd" clip-rule="evenodd" d="M108.612 103.115C108.013 100.577 107.415 98.0471 106.75 95.4959L107.199 95.3788C107.865 97.932 108.465 100.475 109.066 103.019C109.477 104.758 109.888 106.498 110.32 108.242C110.452 108.665 110.501 109.109 110.462 109.551L110.462 109.558L110.461 109.566C110.349 110.281 109.868 110.768 109.288 111.103C108.711 111.436 108.008 111.636 107.389 111.77L107.29 111.317C107.896 111.186 108.542 110.998 109.056 110.701C109.565 110.407 109.917 110.023 110.001 109.502C110.033 109.122 109.99 108.739 109.875 108.375L109.873 108.368L109.871 108.361C109.435 106.602 109.023 104.857 108.612 103.115Z" fill="#00214E"/>
<g filter="url(#filter0_d_0_530)">
<circle cx="92.1023" cy="179.102" r="19.1023" fill="white"/>
</g>
<path d="M95.4731 172.522L95.4731 172.522C95.0188 172.068 94.4026 171.812 93.76 171.812L95.4731 172.522ZM95.4731 172.522L96.5177 173.567C96.5177 173.567 96.5177 173.567 96.5177 173.567C97.0095 174.059 97.6766 174.335 98.3722 174.335H99.8507C100.493 174.335 101.11 174.591 101.564 175.045C102.019 175.499 102.274 176.116 102.274 176.758V184.328C102.274 184.97 102.019 185.587 101.564 186.041C101.11 186.495 100.493 186.751 99.8507 186.751H84.7123C84.0696 186.751 83.4533 186.495 82.9989 186.041C82.5445 185.587 82.2892 184.97 82.2892 184.328V176.758C82.2892 176.116 82.5445 175.499 82.9989 175.045C83.4533 174.591 84.0696 174.335 84.7123 174.335H86.1908H86.1908C86.8864 174.335 87.5535 174.059 88.0453 173.567C88.0453 173.567 88.0453 173.567 88.0453 173.567L89.0899 172.522L89.0899 172.522M95.4731 172.522L89.0899 172.522M89.0899 172.522C89.5442 172.068 90.1604 171.812 90.803 171.812C90.803 171.812 90.803 171.812 90.803 171.812M89.0899 172.522L90.803 171.812M90.803 171.812H93.76H90.803ZM88.7946 174.317L88.7945 174.317C88.104 175.008 87.1675 175.396 86.1907 175.397H84.7123C84.3512 175.397 84.0049 175.54 83.7495 175.796C83.4942 176.051 83.3507 176.397 83.3507 176.758V184.328C83.3507 184.689 83.4942 185.035 83.7495 185.29C84.0049 185.546 84.3512 185.689 84.7123 185.689H99.8507C100.212 185.689 100.558 185.546 100.813 185.29C101.069 185.035 101.212 184.689 101.212 184.328V176.758C101.212 176.397 101.069 176.051 100.813 175.796C100.558 175.54 100.212 175.397 99.8507 175.397H98.3722C97.8882 175.397 97.4089 175.302 96.9617 175.116C96.5145 174.931 96.1082 174.66 95.7659 174.317L95.7659 174.317L94.7214 173.273C94.4661 173.017 94.1199 172.874 93.7588 172.874H93.7588L90.8017 172.874L90.8015 172.874C90.4414 172.875 90.0962 173.018 89.8416 173.273L88.7946 174.317Z" fill="#232323" stroke="white" stroke-width="0.2"/>
<path d="M89.9806 182.213C90.5908 182.823 91.4184 183.166 92.2814 183.166C93.1444 183.166 93.972 182.823 94.5822 182.213C95.1924 181.603 95.5352 180.775 95.5352 179.912C95.5352 179.049 95.1924 178.222 94.5822 177.611C93.972 177.001 93.1444 176.658 92.2814 176.658C91.4184 176.658 90.5908 177.001 89.9806 177.611C89.3704 178.222 89.0275 179.049 89.0275 179.912C89.0275 180.775 89.3704 181.603 89.9806 182.213ZM95.3328 182.964C94.5235 183.773 93.4259 184.228 92.2814 184.228C91.1369 184.228 90.0392 183.773 89.23 182.964C88.4207 182.154 87.966 181.057 87.966 179.912C87.966 178.768 88.4207 177.67 89.23 176.861C90.0392 176.051 91.1369 175.597 92.2814 175.597C93.4259 175.597 94.5235 176.051 95.3328 176.861C96.1421 177.67 96.5968 178.768 96.5968 179.912C96.5968 181.057 96.1421 182.154 95.3328 182.964ZM85.8737 177.389C85.8737 177.53 85.8178 177.665 85.7182 177.764C85.6187 177.864 85.4837 177.92 85.3429 177.92C85.2022 177.92 85.0672 177.864 84.9676 177.764C84.8681 177.665 84.8122 177.53 84.8122 177.389C84.8122 177.248 84.8681 177.113 84.9676 177.014C85.0672 176.914 85.2022 176.858 85.3429 176.858C85.4837 176.858 85.6187 176.914 85.7182 177.014C85.8178 177.113 85.8737 177.248 85.8737 177.389Z" fill="#232323" stroke="white" stroke-width="0.2"/>
<defs>
<filter id="filter0_d_0_530" x="69" y="160" width="46.2045" height="46.2046" filterUnits="userSpaceOnUse" color-interpolation-filters="sRGB">
<feFlood flood-opacity="0" result="BackgroundImageFix"/>
<feColorMatrix in="SourceAlpha" type="matrix" values="0 0 0 0 0 0 0 0 0 0 0 0 0 0 0 0 0 0 127 0" result="hardAlpha"/>
<feOffset dy="4"/>
<feGaussianBlur stdDeviation="2"/>
<feComposite in2="hardAlpha" operator="out"/>
<feColorMatrix type="matrix" values="0 0 0 0 0 0 0 0 0 0 0 0 0 0 0 0 0 0 0.25 0"/>
<feBlend mode="normal" in2="BackgroundImageFix" result="effect1_dropShadow_0_530"/>
<feBlend mode="normal" in="SourceGraphic" in2="effect1_dropShadow_0_530" result="shape"/>
</filter>
<radialGradient id="paint0_radial_0_530" cx="0" cy="0" r="1" gradientUnits="userSpaceOnUse" gradientTransform="translate(59 53) rotate(90) scale(175)">
<stop offset="0.38639" stop-color="#DD0000"/>
<stop offset="1" stop-color="#D9D9D9" stop-opacity="0"/>
</radialGradient>
<radialGradient id="paint1_radial_0_530" cx="0" cy="0" r="1" gradientUnits="userSpaceOnUse" gradientTransform="translate(111 109) rotate(90) scale(144)">
<stop offset="0.310106" stop-color="#063C86"/>
<stop offset="1" stop-color="#00214E" stop-opacity="0"/>
</radialGradient>
</defs>
</svg>
