<svg width="25" height="22" viewBox="0 0 25 22" fill="none" xmlns="http://www.w3.org/2000/svg">
<path d="M14.881 5.95238H13.0952V11.9048L18.1905 14.9286L19.0476 13.4881L14.881 11.0119V5.95238ZM14.2857 0C11.4441 0 8.71889 1.12882 6.70957 3.13814C4.70025 5.14746 3.57143 7.87268 3.57143 10.7143H0L4.71429 15.5119L9.52381 10.7143H5.95238C5.95238 8.50415 6.83035 6.38453 8.39316 4.82173C9.95596 3.25893 12.0756 2.38095 14.2857 2.38095C16.4959 2.38095 18.6155 3.25893 20.1783 4.82173C21.7411 6.38453 22.619 8.50415 22.619 10.7143C22.619 12.9244 21.7411 15.044 20.1783 16.6068C18.6155 18.1696 16.4959 19.0476 14.2857 19.0476C11.9881 19.0476 9.90476 18.1071 8.40476 16.5952L6.71429 18.2857C8.65476 20.2381 11.3095 21.4286 14.2857 21.4286C17.1273 21.4286 19.8525 20.2997 21.8619 18.2904C23.8712 16.2811 25 13.5559 25 10.7143C25 7.87268 23.8712 5.14746 21.8619 3.13814C19.8525 1.12882 17.1273 0 14.2857 0Z" fill="#000"/>
</svg>
    