<svg width="37" height="36" viewBox="0 0 37 36" fill="none" xmlns="http://www.w3.org/2000/svg">
<path d="M6.51474 22.5829L12.0934 20.3809C12.3313 20.2864 12.5321 20.1172 12.6656 19.8987C12.799 19.6803 12.8579 19.4244 12.8333 19.1696L12.468 15.3325C16.461 13.9189 20.8215 13.9388 24.8015 15.3888L24.4012 19.2224C24.3738 19.477 24.4301 19.7336 24.5616 19.9534C24.6931 20.1732 24.8926 20.3441 25.13 20.4403L30.6883 22.6931C30.9456 22.7955 31.2305 22.8049 31.4939 22.7197C31.7573 22.6345 31.9827 22.46 32.1313 22.2264L34.9359 17.7843C35.0785 17.5584 35.1403 17.2908 35.1112 17.0253C35.0822 16.7597 34.9639 16.5119 34.7759 16.3221C25.8896 7.35441 11.4323 7.30237 2.47853 16.1748C2.2886 16.3628 2.16801 16.6096 2.13645 16.8749C2.1049 17.1403 2.16425 17.4085 2.30481 17.6358L5.06874 22.1033C5.21638 22.3389 5.44154 22.5157 5.70546 22.6032C5.96938 22.6907 6.25555 22.6835 6.51474 22.5829Z" fill="white"/>
</svg>
