<svg width="14" height="14" viewBox="0 0 14 14" fill="none" xmlns="http://www.w3.org/2000/svg">
<path d="M1.06291 0.0726572L13.5777 6.05801C13.9476 6.23491 14.1041 6.67818 13.9272 7.04808C13.854 7.20104 13.7307 7.32436 13.5777 7.39751L1.06291 13.3829C0.693018 13.5598 0.249749 13.4033 0.0728427 13.0334C-0.00403174 12.8727 -0.0205349 12.6897 0.0263459 12.5178L1.27808 7.92795C1.30944 7.81296 1.40651 7.72786 1.52461 7.71182L7.58896 6.88807C7.64122 6.8806 7.68453 6.84626 7.70454 6.79937L7.71495 6.76208C7.72489 6.69249 7.68487 6.6273 7.62211 6.60278L7.58896 6.59409L1.5317 5.77036C1.41362 5.7543 1.31657 5.66921 1.28522 5.55423L0.0263459 0.937751C-0.0815378 0.542177 0.151681 0.134044 0.547255 0.0261603C0.719151 -0.0207205 0.902175 -0.00421724 1.06291 0.0726572Z" fill="#1E4552"/>
</svg>
