<svg width="25" height="26" viewBox="0 0 25 26" fill="none" xmlns="http://www.w3.org/2000/svg">
<path d="M12.5 7.70865C13.863 7.70865 15.1701 8.25009 16.1339 9.21386C17.0977 10.1776 17.6391 11.4848 17.6391 12.8477C17.6391 14.2107 17.0977 15.5179 16.1339 16.4816C15.1701 17.4454 13.863 17.9868 12.5 17.9868C11.137 17.9868 9.82988 17.4454 8.86611 16.4816C7.90234 15.5179 7.3609 14.2107 7.3609 12.8477C7.3609 11.4848 7.90234 10.1776 8.86611 9.21386C9.82988 8.25009 11.137 7.70865 12.5 7.70865ZM12.5 10.2782C11.8185 10.2782 11.1649 10.5489 10.6831 11.0308C10.2012 11.5127 9.93045 12.1663 9.93045 12.8477C9.93045 13.5292 10.2012 14.1828 10.6831 14.6647C11.1649 15.1466 11.8185 15.4173 12.5 15.4173C13.1815 15.4173 13.8351 15.1466 14.3169 14.6647C14.7988 14.1828 15.0695 13.5292 15.0695 12.8477C15.0695 12.1663 14.7988 11.5127 14.3169 11.0308C13.8351 10.5489 13.1815 10.2782 12.5 10.2782ZM9.93045 25.6955C9.60926 25.6955 9.33945 25.4642 9.28806 25.1559L8.8127 21.7512C8.00329 21.43 7.30951 20.9932 6.64143 20.4793L3.44234 21.7769C3.15969 21.8797 2.8128 21.7769 2.65863 21.4943L0.0890754 17.049C-0.0779453 16.7663 -0.00085862 16.4194 0.243249 16.2267L2.95412 14.094L2.86419 12.8477L2.95412 11.563L0.243249 9.46879C-0.00085862 9.27607 -0.0779453 8.92918 0.0890754 8.64653L2.65863 4.20121C2.8128 3.91856 3.15969 3.80293 3.44234 3.91856L6.64143 5.20334C7.30951 4.70228 8.00329 4.26545 8.8127 3.94426L9.28806 0.539605C9.33945 0.23126 9.60926 0 9.93045 0H15.0695C15.3907 0 15.6605 0.23126 15.7119 0.539605L16.1873 3.94426C16.9967 4.26545 17.6905 4.70228 18.3586 5.20334L21.5577 3.91856C21.8403 3.80293 22.1872 3.91856 22.3414 4.20121L24.9109 8.64653C25.0779 8.92918 25.0009 9.27607 24.7568 9.46879L22.0459 11.563L22.1358 12.8477L22.0459 14.1325L24.7568 16.2267C25.0009 16.4194 25.0779 16.7663 24.9109 17.049L22.3414 21.4943C22.1872 21.7769 21.8403 21.8926 21.5577 21.7769L18.3586 20.4922C17.6905 20.9932 16.9967 21.43 16.1873 21.7512L15.7119 25.1559C15.6605 25.4642 15.3907 25.6955 15.0695 25.6955H9.93045ZM11.5364 2.56955L11.0611 5.92281C9.51932 6.24401 8.15746 7.06626 7.16818 8.20971L4.07188 6.87355L3.1083 8.54375L5.81917 10.5352C5.30526 12.0383 5.30526 13.67 5.81917 15.1603L3.09545 17.1646L4.05903 18.8348L7.18103 17.4986C8.17031 18.6292 9.51932 19.4515 11.0482 19.7598L11.5236 23.1259H13.4764L13.9518 19.7727C15.4807 19.4515 16.8297 18.6292 17.819 17.4986L20.941 18.8348L21.9046 17.1646L19.1808 15.1732C19.6947 13.67 19.6947 12.0383 19.1808 10.5352L21.8917 8.54375L20.9281 6.87355L17.8318 8.20971C16.8425 7.06626 15.4807 6.24401 13.9389 5.93566L13.4636 2.56955H11.5364Z" fill="#000"/>
</svg>
