<svg width="22" height="22" viewBox="0 0 22 22" fill="none" xmlns="http://www.w3.org/2000/svg">
<path d="M2.6875 2.6875H5.375V5.375H2.6875V2.6875Z" fill="#979797"/>
<path d="M8.0625 0V8.0625H0V0H8.0625ZM6.71875 1.34375H1.34375V6.71875H6.71875V1.34375ZM5.375 16.125H2.6875V18.8125H5.375V16.125Z" fill="#979797"/>
<path d="M8.0625 13.4375V21.5H0V13.4375H8.0625ZM1.34375 14.7812V20.1562H6.71875V14.7812H1.34375ZM16.125 2.6875H18.8125V5.375H16.125V2.6875Z" fill="#979797"/>
<path d="M13.4375 0V8.0625H21.5V0H13.4375ZM20.1562 1.34375V6.71875H14.7812V1.34375H20.1562ZM10.75 1.34375V0H12.0938V2.6875H10.75V5.375H9.40625V1.34375H10.75ZM10.75 8.0625V5.375H12.0938V8.0625H10.75ZM8.0625 10.75V9.40625H9.40625V8.0625H10.75V10.75H12.0938V9.40625H18.8125V10.75H13.4375V12.0938H9.40625V10.75H8.0625ZM8.0625 10.75V12.0938H2.6875V10.75H1.34375V12.0938H0V9.40625H4.03125V10.75H8.0625ZM21.5 12.0938H20.1562V9.40625H21.5V12.0938ZM20.1562 12.0938H18.8125V14.7812H21.5V13.4375H20.1562V12.0938ZM14.7812 12.0938H17.4688V13.4375H16.125V14.7812H14.7812V12.0938ZM17.4688 16.125V14.7812H16.125V16.125H14.7812V17.4688H12.0938V18.8125H16.125V16.125H17.4688ZM17.4688 16.125H21.5V17.4688H18.8125V18.8125H17.4688V16.125ZM12.0938 14.7812V16.125H13.4375V13.4375H9.40625V14.7812H12.0938Z" fill="#979797"/>
<path d="M9.40625 16.125H10.75V20.1562H16.125V21.5H9.40625V16.125ZM21.5 18.8125V21.5H17.4688V20.1562H20.1562V18.8125H21.5Z" fill="#979797"/>
</svg>
