<svg width="19" height="20" viewBox="0 0 19 20" fill="none" xmlns="http://www.w3.org/2000/svg">
<path d="M9.27051 9.76465C11.7734 9.76465 13.7822 7.5625 13.7822 4.82324C13.7822 2.14844 11.7627 0 9.27051 0C6.78906 0 4.74805 2.16992 4.75879 4.83398C4.76953 7.57324 6.76758 9.76465 9.27051 9.76465ZM9.27051 8.50781C7.51953 8.50781 6.09082 6.90723 6.09082 4.83398C6.06934 2.84668 7.51953 1.26758 9.27051 1.26758C11.0215 1.26758 12.4502 2.8252 12.4502 4.82324C12.4502 6.88574 11.0322 8.50781 9.27051 8.50781ZM2.32031 19.6152H16.1885C17.7676 19.6152 18.5088 19.1104 18.5088 18.0254C18.5088 15.2217 14.9854 11.2363 9.25977 11.2363C3.52344 11.2363 0 15.2217 0 18.0254C0 19.1104 0.751953 19.6152 2.32031 19.6152ZM1.9873 18.3477C1.49316 18.3477 1.33203 18.2295 1.33203 17.8857C1.33203 15.8555 4.2002 12.4932 9.25977 12.4932C14.3086 12.4932 17.1875 15.8555 17.1875 17.8857C17.1875 18.2295 17.0156 18.3477 16.5322 18.3477H1.9873Z" fill="#979797"/>
</svg>
