<svg width="16" height="8" viewBox="0 0 16 8" fill="none" xmlns="http://www.w3.org/2000/svg">
<path d="M12.4 5.15121e-06C11.748 -2.63759e-05 11.1083 0.176974 10.5491 0.512112C9.98993 0.847251 9.53223 1.32795 9.22489 1.90289C8.91755 2.47784 8.77211 3.12545 8.80408 3.7766C8.83605 4.42775 9.04424 5.058 9.40643 5.60007H6.5934C7.03927 4.93275 7.24937 4.13557 7.19032 3.33518C7.13127 2.53478 6.80646 1.77707 6.26749 1.1824C5.72852 0.587738 5.00629 0.190225 4.21554 0.0530106C3.42478 -0.084204 2.61085 0.0467489 1.90304 0.425067C1.19523 0.803385 0.634137 1.40737 0.308885 2.14108C-0.0163671 2.87479 -0.0871209 3.69615 0.107863 4.47467C0.302847 5.2532 0.752386 5.94424 1.38507 6.43803C2.01775 6.93183 2.7973 7.20004 3.59987 7.20008H12.4C13.3548 7.20008 14.2704 6.82079 14.9456 6.14566C15.6207 5.47052 16 4.55483 16 3.60004C16 2.64525 15.6207 1.72957 14.9456 1.05443C14.2704 0.379294 13.3548 5.15121e-06 12.4 5.15121e-06ZM1.59985 3.60004C1.59985 3.20448 1.71714 2.81779 1.93691 2.48889C2.15667 2.15999 2.46904 1.90364 2.83449 1.75226C3.19995 1.60089 3.60209 1.56128 3.99005 1.63845C4.37802 1.71562 4.73439 1.90611 5.0141 2.18582C5.2938 2.46552 5.48429 2.82189 5.56146 3.20986C5.63863 3.59783 5.59902 3.99996 5.44765 4.36542C5.29627 4.73088 5.03992 5.04324 4.71102 5.263C4.38212 5.48277 3.99543 5.60007 3.59987 5.60007C3.06943 5.60007 2.56071 5.38935 2.18564 5.01427C1.81056 4.6392 1.59985 4.13048 1.59985 3.60004ZM12.4 5.60007C12.0044 5.60007 11.6177 5.48277 11.2888 5.263C10.9599 5.04324 10.7036 4.73088 10.5522 4.36542C10.4008 3.99996 10.3612 3.59783 10.4384 3.20986C10.5155 2.82189 10.706 2.46552 10.9857 2.18582C11.2654 1.90611 11.6218 1.71562 12.0098 1.63845C12.3977 1.56128 12.7999 1.60089 13.1653 1.75226C13.5308 1.90364 13.8432 2.15999 14.0629 2.48889C14.2827 2.81779 14.4 3.20448 14.4 3.60004C14.4 4.13048 14.1893 4.6392 13.8142 5.01427C13.4391 5.38935 12.9304 5.60007 12.4 5.60007Z" fill="#1E4552"/>
</svg>
